{
.appVersion = "3151";
.formatVersion = 3;
customParameters = (
{
name = vendorID;
value = COMM;
},
{
name = panose;
value = (
2,
13,
2,
4,
3,
5,
2,
12,
2,
3
);
},
{
name = unicodeRanges;
value = (
0,
1,
2
);
},
{
name = codePageRanges;
value = (
"1252",
"1250",
"1254",
"1257",
"bit 29"
);
},
{
name = fsType;
value = (
2
);
},
{
name = "Family Alignment Zones";
value = (
{
pos = 715;
size = 8;
},
{
pos = 685;
size = 15;
},
{
pos = 517;
size = 7;
},
{
pos = 0;
size = "-11";
},
{
pos = "-147";
size = "-22";
}
);
},
{
name = blueScale;
value = 0.0384;
},
{
name = glyphOrder;
value = (
.notdef,
Eth,
eth,
Lslash,
lslash,
Scaron,
scaron,
Yacute,
yacute,
Thorn,
thorn,
Zcaron,
zcaron,
onehalf,
onequarter,
onesuperior,
threequarters,
threesuperior,
twosuperior,
brokenbar,
minus,
multiply,
space,
exclam,
quotedbl,
numbersign,
dollar,
percent,
ampersand,
quotesingle,
parenleft,
parenright,
asterisk,
plus,
comma,
hyphen,
period,
slash,
zero,
one,
two,
three,
four,
five,
six,
seven,
eight,
nine,
colon,
semicolon,
less,
equal,
greater,
question,
at,
A,
B,
C,
D,
E,
F,
G,
H,
I,
J,
K,
L,
M,
N,
O,
P,
Q,
R,
S,
T,
U,
V,
W,
X,
Y,
Z,
bracketleft,
backslash,
bracketright,
asciicircum,
underscore,
grave,
a,
b,
c,
d,
e,
f,
g,
h,
i,
j,
k,
l,
m,
n,
o,
p,
q,
r,
s,
t,
u,
v,
w,
x,
y,
z,
braceleft,
bar,
braceright,
asciitilde,
Adieresis,
Aring,
Ccedilla,
Eacute,
Ntilde,
Odieresis,
Udieresis,
aacute,
agrave,
acircumflex,
adieresis,
atilde,
aring,
ccedilla,
eacute,
egrave,
ecircumflex,
edieresis,
iacute,
igrave,
icircumflex,
idieresis,
ntilde,
oacute,
ograve,
ocircumflex,
odieresis,
otilde,
uacute,
ugrave,
ucircumflex,
udieresis,
dagger,
degree,
cent,
sterling,
section,
bullet,
paragraph,
germandbls,
registered,
copyright,
trademark,
acute,
dieresis,
notequal,
AE,
Oslash,
infinity,
plusminus,
lessequal,
greaterequal,
yen,
mu,
partialdiff,
summation,
product,
pi,
integral,
ordfeminine,
ordmasculine,
Omega,
ae,
oslash,
questiondown,
exclamdown,
logicalnot,
radical,
florin,
approxequal,
Delta,

glyphs = (
{
glyphname = Eth;
kernLeft = Eth;
kernRight = Eth;
layers = (
{
hints = (
{
horizontal = 1;
place = (0, 14);
place = (0, 14);
type = Stem;
},
{
horizontal = 1;
place = (354, 14);
place = (354, 14);
type = Stem;
},
{
horizontal = 1;
place = (701, 14);
place = (701, 14);
type = Stem;
},
{
place = (616, 15);
place = (616, 15);
type = Stem;
}
);
layerId = m01;
shapes = (
{
closed = 1;
nodes = (
(22,0,l),
(247,0,ls),
(508,0,o),
(631,198,o),
(631,425,cs),
(631,594,o),
(533,715,o),
(355,715,cs),
(159,715,l),
(92,368,l),
(20,368,l),
(17,354,l),
(90,354,l)
);
},
{
closed = 1;
nodes = (
(172,701,l),
(355,701,ls),
(526,701,o),
(616,585,o),
(616,425,cs),
(616,206,o),
(498,14,o),
(247,14,cs),
(40,14,l),
(105,354,l),
(356,354,l),
(359,368,l),
(108,368,l)
);
}
);
width = 643;
}
);
note = Eth;
unicode = 208;
},
{
glyphname = eth;
kernLeft = eth;
kernRight = eth;
layers = (
{
hints = (
{
horizontal = 1;
place = (-7, 14);
place = (-7, 14);
type = Stem;
},
{
horizontal = 1;
place = (511, 14);
place = (511, 14);
type = Stem;
},
{
horizontal = 1;
place = (676, -20);
target = down;
type = TopGhost;
},
{
horizontal = 1;
place = (721, -20);
target = down;
type = TopGhost;
},
{
place = (23, 14);
place = (23, 14);
type = Stem;
},
{
place = (478, 15);
place = (478, 15);
type = Stem;
}
);
layerId = m01;
shapes = (
{
closed = 1;
nodes = (
(233,576,l),
(382,626,l),
(427,572,o),
(467,496,o),
(477,390,c),
(452,465,o),
(390,525,o),
(288,525,cs),
(117,525,o),
(23,365,o),
(23,214,cs),
(23,98,o),
(93,-7,o),
(229,-7,cs),
(407,-7,o),
(493,164,o),
(493,337,cs),
(493,471,o),
(449,565,o),
(396,631,c),
(488,662,l),
(484,676,l),
(386,643,l),
(356,677,o),
(325,702,o),
(297,721,c),
(289,709,l),
(315,691,o),
(344,668,o),
(372,638,c),
(229,590,l)
);
},
{
closed = 1;
nodes = (
(103,7,o),
(37,106,o),
(37,214,cs),
(37,359,o),
(127,511,o),
(288,511,cs),
(423,511,o),
(478,396,o),
(478,317,cs),
(478,209,o),
(417,7,o),
(229,7,cs)
);
}
);
width = 519;
}
);
note = eth;
unicode = 240;
},
{
glyphname = Lslash;
layers = (
{
hints = (
{
horizontal = 1;
place = (0, 14);
place = (0, 14);
type = Stem;
},
{
horizontal = 1;
place = (715, -20);
target = down;
type = TopGhost;
},
{
place = (-6, 460);
place = (-6, 460);
type = Stem;
}
);
layerId = m01;
shapes = (
{
closed = 1;
nodes = (
(174,715,l),
(159,715,l),
(74,274,l),
(-3,234,l),
(-6,218,l),
(71,258,l),
(21,0,l),
(451,0,l),
(454,14,l),
(38,14,l),
(87,266,l),
(422,440,l),
(425,457,l),
(90,282,l)
);
}
);
width = 514;
}
);
note = Lslash;
unicode = 321;
},
{
glyphname = lslash;
layers = (
{
hints = (
{
horizontal = 1;
place = (0, 21);
target = up;
type = BottomGhost;
},
{
horizontal = 1;
place = (715, -20);
target = down;
type = TopGhost;
},
{
place = (6, 188);
place = (6, 188);
type = Stem;
}
);
layerId = m01;
shapes = (
{
closed = 1;
nodes = (
(194,445,l),
(108,382,l),
(173,715,l),
(158,715,l),
(91,369,l),
(10,311,l),
(6,291,l),
(87,349,l),
(19,0,l),
(34,0,l),
(104,362,l),
(190,424,l)
);
}
);
width = 150;
}
);
note = lslash;
unicode = 322;
},
{
glyphname = Scaron;
kernLeft = Scaron;
kernRight = Scaron;
layers = (
{
hints = (
{
horizontal = 1;
place = (-8, 14);
place = (-8, 14);
type = Stem;
},
{
horizontal = 1;
place = (709, 14);
place = (709, 14);
type = Stem;
},
{
place = (13, 14);
place = (13, 14);
type = Stem;
},
{
place = (96, 15);
place = (96, 15);
type = Stem;
},
{
place = (510, 15);
place = (510, 15);
type = Stem;
},
{
place = (542, 14);
place = (542, 14);
type = Stem;
},
{
horizontal = 1;
place = (758, 12);
place = (758, 12);
type = Stem;
}
);
layerId = m01;
shapes = (
{
closed = 1;
nodes = (
(13,231,l),
(13,67,o),
(137,-8,o),
(274,-8,cs),
(415,-8,o),
(525,67,o),
(525,190,cs),
(525,306,o),
(445,335,o),
(297,389,cs),
(169,436,o),
(111,469,o),
(111,556,cs),
(111,648,o),
(188,709,o),
(314,709,cs),
(465,709,o),
(534,628,o),
(542,522,c),
(556,522,l),
(548,636,o),
(474,723,o),
(314,723,cs),
(180,723,o),
(96,656,o),
(96,556,cs),
(96,461,o),
(158,425,o),
(294,375,cs),
(435,323,o),
(510,299,o),
(510,190,cs),
(510,74,o),
(407,6,o),
(274,6,cs),
(145,6,o),
(28,76,o),
(27,231,c)
);
},
{
closed = 1;
nodes = (
(336,758,l),
(350,758,l),
(458,862,l),
(440,862,l),
(344,770,l),
(272,862,l),
(255,862,l)
);
}
);
width = 570;
}
);
note = Scaron;
unicode = 352;
},
{
glyphname = scaron;
kernLeft = scaron;
kernRight = scaron;
layers = (
{
hints = (
{
horizontal = 1;
place = (-8, 14);
place = (-8, 14);
type = Stem;
},
{
horizontal = 1;
place = (510, 14);
place = (510, 14);
type = Stem;
},
{
place = (3, 15);
place = (3, 15);
type = Stem;
},
{
place = (65, 15);
place = (65, 15);
type = Stem;
},
{
place = (370, 15);
place = (370, 15);
type = Stem;
},
{
place = (393, 14);
place = (393, 14);
type = Stem;
},
{
horizontal = 1;
place = (604, 12);
place = (604, 12);
type = Stem;
}
);
layerId = m01;
shapes = (
{
closed = 1;
nodes = (
(3,153,l),
(5,59,o),
(83,-8,o),
(197,-8,cs),
(300,-8,o),
(385,35,o),
(385,134,cs),
(385,209,o),
(337,236,o),
(226,277,cs),
(134,311,o),
(80,335,o),
(80,402,cs),
(80,476,o),
(147,510,o),
(229,510,cs),
(324,510,o),
(385,462,o),
(393,380,c),
(407,380,l),
(400,468,o),
(332,524,o),
(229,524,cs),
(141,524,o),
(65,483,o),
(65,402,cs),
(65,325,o),
(129,297,o),
(222,263,cs),
(322,226,o),
(370,203,o),
(370,134,cs),
(370,42,o),
(292,6,o),
(197,6,cs),
(88,6,o),
(21,68,o),
(18,153,c)
);
},
{
closed = 1;
nodes = (
(250,604,l),
(264,604,l),
(372,708,l),
(354,708,l),
(258,616,l),
(186,708,l),
(169,708,l)
);
}
);
width = 432;
}
);
note = scaron;
unicode = 353;
},
{
glyphname = Yacute;
kernLeft = Yacute;
kernRight = Yacute;
layers = (
{
hints = (
{
horizontal = 1;
place = (0, 21);
target = up;
type = BottomGhost;
},
{
horizontal = 1;
place = (715, -20);
target = down;
type = TopGhost;
},
{
place = (81, 563);
place = (81, 563);
type = Stem;
}
);
layerId = m01;
shapes = (
{
closed = 1;
nodes = (
(97,715,l),
(81,715,l),
(287,328,l),
(223,0,l),
(238,0,l),
(302,328,l),
(644,715,l),
(625,715,l),
(296,342,l)
);
},
{
closed = 1;
nodes = (
(385,756,l),
(450,871,l),
(434,871,l),
(369,756,l)
);
}
);
width = 556;
}
);
note = Yacute;
unicode = 221;
},
{
glyphname = yacute;
kernLeft = yacute;
kernRight = yacute;
layers = (
{
hints = (
{
horizontal = 1;
place = (-168, 14);
place = (-168, 14);
type = Stem;
},
{
horizontal = 1;
place = (517, -20);
target = down;
type = TopGhost;
},
{
place = (-25, 501);
place = (-25, 501);
type = Stem;
},
{
horizontal = 1;
place = (-157, 21);
target = up;
type = BottomGhost;
}
);
layerId = m01;
shapes = (
{
closed = 1;
nodes = (
(476,517,l),
(460,517,l),
(256,159,ls),
(215,86,o),
(188,39,o),
(188,39,c),
(188,39,o),
(174,93,o),
(157,162,cs),
(68,517,l),
(52,517,l),
(178,20,l),
(132,-60,ls),
(87,-138,o),
(65,-154,o),
(24,-154,cs),
(6,-154,o),
(-10,-148,o),
(-20,-143,c),
(-22,-143,l),
(-25,-157,l),
(-14,-162,o),
(3,-168,o),
(24,-168,cs),
(72,-168,o),
(98,-148,o),
(145,-66,cs)
);
},
{
closed = 1;
nodes = (
(271,598,l),
(342,725,l),
(326,725,l),
(255,598,l)
);
}
);
width = 431;
}
);
note = yacute;
unicode = 253;
},
{
glyphname = Thorn;
kernRight = Thorn;
layers = (
{
hints = (
{
horizontal = 1;
place = (0, 21);
target = up;
type = BottomGhost;
},
{
horizontal = 1;
place = (191, 14);
place = (191, 14);
type = Stem;
},
{
horizontal = 1;
place = (559, 14);
place = (559, 14);
type = Stem;
},
{
place = (544, 15);
place = (544, 15);
type = Stem;
},
{
horizontal = 1;
place = (559, 156);
place = (559, 156);
type = Stem;
}
);
layerId = m01;
shapes = (
{
closed = 1;
nodes = (
(293,191,ls),
(454,191,o),
(559,254,o),
(559,399,cs),
(559,526,o),
(471,573,o),
(363,573,cs),
(143,573,l),
(170,715,l),
(155,715,l),
(16,0,l),
(31,0,l),
(68,191,l)
);
},
{
closed = 1;
nodes = (
(140,559,l),
(362,559,ls),
(462,559,o),
(544,517,o),
(544,399,cs),
(544,261,o),
(444,205,o),
(292,205,cs),
(71,205,l)
);
}
);
width = 562;
}
);
note = Thorn;
unicode = 222;
},
{
glyphname = thorn;
kernRight = thorn;
layers = (
{
hints = (
{
horizontal = 1;
place = (-166, 21);
target = up;
type = BottomGhost;
},
{
horizontal = 1;
place = (-8, 14);
place = (-8, 14);
type = Stem;
},
{
horizontal = 1;
place = (510, 14);
place = (510, 14);
type = Stem;
},
{
horizontal = 1;
place = (715, -20);
target = down;
type = TopGhost;
},
{
place = (52, 13);
place = (52, 13);
type = Stem;
},
{
place = (482, 15);
place = (482, 15);
type = Stem;
}
);
layerId = m01;
shapes = (
{
closed = 1;
nodes = (
(497,432,o),
(430,524,o),
(315,524,cs),
(204,524,o),
(130,456,o),
(90,369,c),
(157,715,l),
(142,715,l),
(-28,-166,l),
(-13,-166,l),
(52,171,l),
(61,88,o),
(117,-8,o),
(244,-8,cs),
(413,-8,o),
(497,165,o),
(497,312,cs)
);
},
{
closed = 1;
nodes = (
(482,171,o),
(402,6,o),
(244,6,cs),
(114,6,o),
(65,116,o),
(65,197,cs),
(65,330,o),
(139,510,o),
(315,510,cs),
(422,510,o),
(482,424,o),
(482,312,cs)
);
}
);
width = 522;
}
);
note = thorn;
unicode = 254;
},
{
glyphname = Zcaron;
kernLeft = Zcaron;
kernRight = Zcaron;
layers = (
{
hints = (
{
horizontal = 1;
place = (0, 14);
place = (0, 14);
type = Stem;
},
{
horizontal = 1;
place = (701, 14);
place = (701, 14);
type = Stem;
},
{
horizontal = 1;
place = (758, 12);
place = (758, 12);
type = Stem;
},
{
place = (-20, 621);
place = (-20, 621);
type = Stem;
},
{
horizontal = 1;
place = (701, 161);
place = (701, 161);
type = Stem;
}
);
layerId = m01;
shapes = (
{
closed = 1;
nodes = (
(488,14,l),
(1,14,l),
(598,701,l),
(601,715,l),
(137,715,l),
(134,701,l),
(579,701,l),
(-17,14,l),
(-20,0,l),
(485,0,l)
);
},
{
closed = 1;
nodes = (
(350,758,l),
(364,758,l),
(472,862,l),
(454,862,l),
(358,770,l),
(286,862,l),
(269,862,l)
);
}
);
width = 560;
}
);
note = Zcaron;
unicode = 381;
},
{
glyphname = zcaron;
kernLeft = zcaron;
kernRight = zcaron;
layers = (
{
hints = (
{
horizontal = 1;
place = (0, 14);
place = (0, 14);
type = Stem;
},
{
horizontal = 1;
place = (503, 14);
place = (503, 14);
type = Stem;
},
{
horizontal = 1;
place = (604, 12);
place = (604, 12);
type = Stem;
},
{
place = (-17, 453);
place = (-17, 453);
type = Stem;
}
);
layerId = m01;
shapes = (
{
closed = 1;
nodes = (
(-17,0,l),
(351,0,l),
(354,14,l),
(6,14,l),
(6,15,l),
(434,505,l),
(436,517,l),
(96,517,l),
(93,503,l),
(412,503,l),
(412,502,l),
(-15,13,l)
);
},
{
closed = 1;
nodes = (
(262,604,l),
(276,604,l),
(384,708,l),
(366,708,l),
(270,616,l),
(198,708,l),
(181,708,l)
);
}
);
width = 425;
}
);
note = zcaron;
unicode = 382;
},
{
glyphname = onehalf;
layers = (
{
hints = (
{
horizontal = 1;
place = (0, 14);
place = (0, 14);
type = Stem;
},
{
horizontal = 1;
place = (405, 14);
place = (405, 14);
type = Stem;
},
{
horizontal = 1;
place = (623, 13);
place = (623, 13);
type = Stem;
},
{
horizontal = 1;
place = (718, -20);
target = down;
type = TopGhost;
},
{
place = (723, 15);
place = (723, 15);
type = Stem;
},
{
horizontal = 1;
place = (715, -20);
target = down;
type = TopGhost;
}
);
layerId = m01;
shapes = (
{
closed = 1;
nodes = (
(223,718,l),
(198,657,o),
(164,637,o),
(93,636,c),
(91,623,l),
(148,623,o),
(188,635,o),
(214,674,c),
(143,304,l),
(158,304,l),
(238,718,l)
);
},
{
closed = 1;
nodes = (
(649,715,l),
(51,0,l),
(69,0,l),
(667,715,l)
);
},
{
closed = 1;
nodes = (
(686,14,l),
(432,14,l),
(455,100,o),
(522,134,o),
(607,172,cs),
(684,206,o),
(738,240,o),
(738,311,cs),
(738,377,o),
(688,419,o),
(615,419,cs),
(529,419,o),
(482,358,o),
(468,279,c),
(483,279,l),
(497,352,o),
(534,405,o),
(615,405,cs),
(683,405,o),
(723,371,o),
(723,311,cs),
(723,242,o),
(672,216,o),
(595,181,cs),
(505,140,o),
(435,103,o),
(414,0,c),
(684,0,l)
);
}
);
width = 763;
}
);
note = onehalf;
unicode = 189;
},
{
glyphname = onequarter;
layers = (
{
hints = (
{
horizontal = 1;
place = (0, 128);
place = (0, 128);
type = Stem;
},
{
horizontal = 1;
place = (623, 13);
place = (623, 13);
type = Stem;
},
{
horizontal = 1;
place = (718, -20);
target = down;
type = TopGhost;
},
{
place = (62, 620);
place = (62, 620);
type = Stem;
},
{
horizontal = 1;
place = (114, 14);
place = (114, 14);
type = Stem;
},
{
horizontal = 1;
place = (715, -20);
target = down;
type = TopGhost;
}
);
layerId = m01;
shapes = (
{
closed = 1;
nodes = (
(595,0,l),
(617,114,l),
(679,114,l),
(682,128,l),
(620,128,l),
(676,417,l),
(660,417,l),
(381,126,l),
(379,114,l),
(602,114,l),
(580,0,l)
);
},
{
closed = 1;
nodes = (
(656,392,l),
(605,128,l),
(401,128,l)
);
},
{
closed = 1;
nodes = (
(660,715,l),
(62,0,l),
(80,0,l),
(678,715,l)
);
},
{
closed = 1;
nodes = (
(223,718,l),
(198,657,o),
(164,637,o),
(93,636,c),
(91,623,l),
(148,623,o),
(188,635,o),
(214,674,c),
(143,304,l),
(158,304,l),
(238,718,l)
);
}
);
width = 724;
}
);
note = onequarter;
unicode = 188;
},
{
glyphname = onesuperior;
layers = (
{
hints = (
{
horizontal = 1;
place = (593, 13);
place = (593, 13);
type = Stem;
},
{
horizontal = 1;
place = (688, -20);
target = down;
type = TopGhost;
},
{
place = (82, 147);
place = (82, 147);
type = Stem;
}
);
layerId = m01;
shapes = (
{
closed = 1;
nodes = (
(214,688,l),
(189,627,o),
(155,607,o),
(84,606,c),
(82,593,l),
(139,593,o),
(179,605,o),
(205,644,c),
(134,274,l),
(149,274,l),
(229,688,l)
);
}
);
width = 205;
}
);
note = onesuperior;
unicode = 185;
},
{
glyphname = threequarters;
layers = (
{
hints = (
{
horizontal = 1;
place = (0, 128);
place = (0, 128);
type = Stem;
},
{
horizontal = 1;
place = (294, 14);
place = (294, 14);
type = Stem;
},
{
horizontal = 1;
place = (513, 14);
place = (513, 14);
type = Stem;
},
{
horizontal = 1;
place = (709, 14);
place = (709, 14);
type = Stem;
},
{
place = (54, 14);
place = (54, 14);
type = Stem;
},
{
place = (336, 14);
place = (336, 14);
type = Stem;
},
{
horizontal = 1;
place = (114, 14);
place = (114, 14);
type = Stem;
},
{
horizontal = 1;
place = (520, -20);
target = down;
type = TopGhost;
},
{
place = (347, 14);
place = (347, 14);
type = Stem;
},
{
horizontal = 1;
place = (715, -20);
target = down;
type = TopGhost;
}
);
layerId = m01;
shapes = (
{
closed = 1;
nodes = (
(660,0,l),
(682,114,l),
(744,114,l),
(747,128,l),
(685,128,l),
(741,417,l),
(725,417,l),
(446,126,l),
(444,114,l),
(667,114,l),
(645,0,l)
);
},
{
closed = 1;
nodes = (
(721,392,l),
(670,128,l),
(466,128,l)
);
},
{
closed = 1;
nodes = (
(197,513,l),
(247,513,ls),
(295,511,o),
(336,483,o),
(336,427,cs),
(336,358,o),
(275,308,o),
(201,308,cs),
(121,308,o),
(73,353,o),
(68,431,c),
(54,431,l),
(59,345,o),
(113,294,o),
(201,294,cs),
(283,294,o),
(350,350,o),
(350,427,cs),
(350,477,o),
(322,508,o),
(283,520,c),
(327,533,o),
(361,569,o),
(361,620,cs),
(361,691,o),
(304,723,o),
(241,723,cs),
(159,723,o),
(106,671,o),
(91,595,c),
(105,595,l),
(120,663,o),
(166,709,o),
(241,709,cs),
(296,709,o),
(347,681,o),
(347,620,cs),
(347,561,o),
(297,527,o),
(243,527,cs),
(200,527,l)
);
},
{
closed = 1;
nodes = (
(736,715,l),
(138,0,l),
(156,0,l),
(754,715,l)
);
}
);
width = 799;
}
);
note = threequarters;
unicode = 190;
},
{
glyphname = threesuperior;
layers = (
{
hints = (
{
horizontal = 1;
place = (265, 14);
place = (265, 14);
type = Stem;
},
{
horizontal = 1;
place = (484, 14);
place = (484, 14);
type = Stem;
},
{
horizontal = 1;
place = (680, 14);
place = (680, 14);
type = Stem;
},
{
place = (45, 14);
place = (45, 14);
type = Stem;
},
{
place = (333, 14);
place = (333, 14);
type = Stem;
},
{
place = (344, 14);
place = (344, 14);
type = Stem;
}
);
layerId = m01;
shapes = (
{
closed = 1;
nodes = (
(199,484,l),
(243,484,ls),
(291,482,o),
(333,454,o),
(333,398,cs),
(333,329,o),
(271,279,o),
(195,279,cs),
(113,279,o),
(63,324,o),
(59,402,c),
(45,402,l),
(50,316,o),
(105,265,o),
(195,265,cs),
(279,265,o),
(347,321,o),
(347,398,cs),
(347,448,o),
(318,479,o),
(279,491,c),
(323,504,o),
(358,538,o),
(358,589,cs),
(358,660,o),
(299,694,o),
(235,694,cs),
(151,694,o),
(98,640,o),
(82,564,c),
(96,564,l),
(111,632,o),
(158,680,o),
(235,680,cs),
(291,680,o),
(344,650,o),
(344,589,cs),
(344,530,o),
(293,498,o),
(239,498,cs),
(202,498,l)
);
}
);
width = 347;
}
);
note = threesuperior;
unicode = 179;
},
{
glyphname = twosuperior;
layers = (
{
hints = (
{
horizontal = 1;
place = (274, 14);
place = (274, 14);
type = Stem;
},
{
horizontal = 1;
place = (679, 14);
place = (679, 14);
type = Stem;
},
{
place = (331, 15);
place = (331, 15);
type = Stem;
}
);
layerId = m01;
shapes = (
{
closed = 1;
nodes = (
(294,288,l),
(40,288,l),
(63,374,o),
(130,408,o),
(215,446,cs),
(292,480,o),
(346,514,o),
(346,585,cs),
(346,651,o),
(296,693,o),
(223,693,cs),
(137,693,o),
(90,632,o),
(76,553,c),
(91,553,l),
(105,626,o),
(142,679,o),
(223,679,cs),
(291,679,o),
(331,645,o),
(331,585,cs),
(331,516,o),
(280,490,o),
(203,455,cs),
(113,414,o),
(43,377,o),
(22,274,c),
(292,274,l)
);
}
);
width = 315;
}
);
note = twosuperior;
unicode = 178;
},
{
glyphname = brokenbar;
layers = (
{
hints = (
{
horizontal = 1;
place = (-118, 872);
place = (-118, 872);
type = Stem;
},
{
place = (95, 15);
place = (95, 15);
type = Stem;
}
);
layerId = m01;
shapes = (
{
closed = 1;
nodes = (
(95,358,l),
(110,358,l),
(110,754,l),
(95,754,l)
);
},
{
closed = 1;
nodes = (
(95,-118,l),
(110,-118,l),
(110,294,l),
(95,294,l)
);
}
);
width = 165;
}
);
note = brokenbar;
unicode = 166;
},
{
glyphname = minus;
kernLeft = minus;
kernRight = minus;
layers = (
{
hints = (
{
horizontal = 1;
place = (320, 14);
place = (320, 14);
type = Stem;
},
{
place = (59, 432);
place = (59, 432);
type = Stem;
}
);
layerId = m01;
shapes = (
{
closed = 1;
nodes = (
(59,320,l),
(488,320,l),
(491,334,l),
(62,334,l)
);
}
);
width = 524;
}
);
note = minus;
unicode = 8722;
},
{
glyphname = multiply;
layers = (
{
hints = (
{
horizontal = 1;
place = (141, 368);
place = (141, 368);
type = Stem;
},
{
place = (54, 431);
place = (54, 431);
type = Stem;
}
);
layerId = m01;
shapes = (
{
closed = 1;
nodes = (
(476,509,l),
(269,334,l),
(131,509,l),
(120,500,l),
(259,325,l),
(54,152,l),
(63,141,l),
(268,314,l),
(405,143,l),
(415,152,l),
(278,323,l),
(485,498,l)
);
}
);
width = 513;
}
);
note = multiply;
unicode = 215;
},
{
glyphname = exclam;
kernLeft = exclam;
layers = (
{
hints = (
{
horizontal = 1;
place = (0, 55);
place = (0, 55);
type = Stem;
},
{
horizontal = 1;
place = (715, -20);
target = down;
type = TopGhost;
},
{
place = (18, 156);
place = (18, 156);
type = Stem;
}
);
layerId = m01;
shapes = (
{
closed = 1;
nodes = (
(120,436,l),
(174,715,l),
(159,715,l),
(105,436,l),
(56,177,l),
(67,177,l)
);
},
{
closed = 1;
nodes = (
(46,55,l),
(29,55,l),
(18,0,l),
(35,0,l)
);
}
);
width = 158;
}
);
note = exclam;
unicode = 33;
},
{
glyphname = quotedbl;
kernLeft = quotedbl;
kernRight = quotedbl;
layers = (
{
hints = (
{
horizontal = 1;
place = (715, -20);
target = down;
type = TopGhost;
},
{
place = (88, 159);
place = (88, 159);
type = Stem;
}
);
layerId = m01;
shapes = (
{
closed = 1;
nodes = (
(140,715,l),
(125,715,l),
(88,525,l),
(103,525,l)
);
},
{
closed = 1;
nodes = (
(247,715,l),
(232,715,l),
(195,525,l),
(210,525,l)
);
}
);
width = 200;
}
);
note = quotedbl;
unicode = 34;
},
{
glyphname = numbersign;
layers = (
{
hints = (
{
horizontal = 1;
place = (0, 21);
target = up;
type = BottomGhost;
},
{
horizontal = 1;
place = (241, 13);
place = (241, 13);
type = Stem;
},
{
horizontal = 1;
place = (447, 13);
place = (447, 13);
type = Stem;
},
{
horizontal = 1;
place = (682, -20);
target = down;
type = TopGhost;
},
{
place = (12, 489);
place = (12, 489);
type = Stem;
}
);
layerId = m01;
shapes = (
{
closed = 1;
nodes = (
(71,447,l),
(179,447,l),
(124,254,l),
(15,254,l),
(12,241,l),
(120,241,l),
(51,0,l),
(66,0,l),
(135,241,l),
(310,241,l),
(241,0,l),
(256,0,l),
(325,241,l),
(436,241,l),
(439,254,l),
(329,254,l),
(384,447,l),
(497,447,l),
(501,460,l),
(388,460,l),
(452,682,l),
(437,682,l),
(373,460,l),
(198,460,l),
(262,682,l),
(247,682,l),
(183,460,l),
(75,460,l)
);
},
{
closed = 1;
nodes = (
(194,447,l),
(369,447,l),
(314,254,l),
(139,254,l)
);
}
);
width = 483;
}
);
note = numbersign;
unicode = 35;
},
{
glyphname = dollar;
layers = (
{
hints = (
{
horizontal = 1;
place = (-1, 14);
place = (-1, 14);
type = Stem;
},
{
horizontal = 1;
place = (687, 14);
place = (687, 14);
type = Stem;
},
{
place = (-3, 14);
place = (-3, 14);
type = Stem;
},
{
place = (79, 15);
place = (79, 15);
type = Stem;
},
{
place = (470, 15);
place = (470, 15);
type = Stem;
}
);
layerId = m01;
shapes = (
{
closed = 1;
nodes = (
(200,-85,l),
(216,0,l),
(227,0,o),
(239,-1,o),
(251,-1,cs),
(390,-1,o),
(485,75,o),
(485,190,cs),
(485,285,o),
(424,327,o),
(288,368,c),
(350,683,l),
(439,670,o),
(498,620,o),
(511,529,c),
(525,529,l),
(512,628,o),
(448,683,o),
(352,697,c),
(364,757,l),
(349,757,l),
(337,699,l),
(326,700,o),
(315,701,o),
(303,701,cs),
(180,702,o),
(79,635,o),
(79,528,cs),
(79,437,o),
(140,398,o),
(271,358,c),
(204,16,l),
(91,31,o),
(15,103,o),
(11,218,c),
(-3,218,l),
(0,96,o),
(81,18,o),
(202,2,c),
(185,-85,l)
);
},
{
closed = 1;
nodes = (
(470,84,o),
(382,13,o),
(251,13,cs),
(240,13,o),
(229,13,o),
(219,14,c),
(285,354,l),
(419,313,o),
(470,276,o),
(470,190,cs)
);
},
{
closed = 1;
nodes = (
(94,626,o),
(186,688,o),
(303,687,cs),
(314,687,o),
(324,686,o),
(335,685,c),
(274,372,l),
(157,408,o),
(94,442,o),
(94,528,cs)
);
}
);
width = 520;
}
);
note = dollar;
unicode = 36;
},
{
glyphname = percent;
kernLeft = percent;
layers = (
{
hints = (
{
horizontal = 1;
place = (0, 21);
target = up;
type = BottomGhost;
},
{
horizontal = 1;
place = (327, 14);
place = (327, 14);
type = Stem;
},
{
horizontal = 1;
place = (685, -20);
target = down;
type = TopGhost;
},
{
place = (68, 15);
place = (68, 15);
type = Stem;
},
{
place = (317, 15);
place = (317, 15);
type = Stem;
},
{
place = (363, 15);
place = (363, 15);
type = Stem;
},
{
place = (612, 15);
place = (612, 15);
type = Stem;
},
{
horizontal = 1;
place = (-8, 14);
place = (-8, 14);
type = Stem;
},
{
horizontal = 1;
place = (332, 14);
place = (332, 14);
type = Stem;
},
{
horizontal = 1;
place = (667, 14);
place = (667, 14);
type = Stem;
}
);
layerId = m01;
shapes = (
{
closed = 1;
nodes = (
(71,0,l),
(89,0,l),
(634,685,l),
(616,685,l)
);
},
{
closed = 1;
nodes = (
(585,-8,o),
(627,120,o),
(627,215,cs),
(627,292,o),
(586,346,o),
(516,346,cs),
(410,346,o),
(363,218,o),
(363,124,cs),
(363,45,o),
(407,-8,o),
(476,-8,cs)
);
},
{
closed = 1;
nodes = (
(415,6,o),
(378,53,o),
(378,126,cs),
(378,210,o),
(419,332,o),
(516,332,cs),
(578,332,o),
(612,284,o),
(612,213,cs),
(612,126,o),
(575,6,o),
(476,6,cs)
);
},
{
closed = 1;
nodes = (
(290,327,o),
(332,455,o),
(332,550,cs),
(332,627,o),
(291,681,o),
(221,681,cs),
(115,681,o),
(68,553,o),
(68,459,cs),
(68,380,o),
(112,327,o),
(181,327,cs)
);
},
{
closed = 1;
nodes = (
(120,341,o),
(83,388,o),
(83,461,cs),
(83,545,o),
(124,667,o),
(221,667,cs),
(283,667,o),
(317,619,o),
(317,548,cs),
(317,461,o),
(280,341,o),
(181,341,cs)
);
}
);
width = 672;
}
);
note = percent;
unicode = 37;
},
{
glyphname = ampersand;
kernLeft = ampersand;
kernRight = ampersand;
layers = (
{
hints = (
{
horizontal = 1;
place = (0, 21);
target = up;
type = BottomGhost;
},
{
horizontal = 1;
place = (693, 14);
place = (693, 14);
type = Stem;
},
{
place = (12, 15);
place = (12, 15);
type = Stem;
},
{
place = (164, 15);
place = (164, 15);
type = Stem;
},
{
place = (412, 15);
place = (412, 15);
type = Stem;
},
{
place = (491, 15);
place = (491, 15);
type = Stem;
},
{
horizontal = 1;
place = (-9, 14);
place = (-9, 14);
type = Stem;
}
);
layerId = m01;
shapes = (
{
closed = 1;
nodes = (
(496,0,l),
(423,115,l),
(469,177,o),
(499,251,o),
(506,319,c),
(491,319,l),
(484,256,o),
(457,186,o),
(415,128,c),
(248,391,l),
(370,446,o),
(427,507,o),
(427,583,cs),
(427,654,o),
(382,707,o),
(303,707,cs),
(216,707,o),
(164,636,o),
(164,561,cs),
(164,498,o),
(196,445,o),
(227,396,c),
(81,331,o),
(12,268,o),
(12,168,cs),
(12,59,o),
(96,-9,o),
(197,-9,cs),
(285,-9,o),
(359,37,o),
(413,103,c),
(479,0,l)
);
},
{
closed = 1;
nodes = (
(104,5,o),
(27,67,o),
(27,168,cs),
(27,266,o),
(99,324,o),
(235,385,c),
(405,116,l),
(354,51,o),
(283,5,o),
(197,5,cs)
);
},
{
closed = 1;
nodes = (
(179,628,o),
(226,693,o),
(303,693,cs),
(373,693,o),
(412,645,o),
(412,583,cs),
(412,514,o),
(360,456,o),
(241,402,c),
(209,450,o),
(179,500,o),
(179,561,cs)
);
}
);
width = 549;
}
);
note = ampersand;
unicode = 38;
},
{
glyphname = quotesingle;
kernLeft = quotedbl;
kernRight = quotedbl;
layers = (
{
hints = (
{
horizontal = 1;
place = (715, -20);
target = down;
type = TopGhost;
},
{
place = (88, 52);
place = (88, 52);
type = Stem;
}
);
layerId = m01;
shapes = (
{
closed = 1;
nodes = (
(140,715,l),
(125,715,l),
(88,525,l),
(103,525,l)
);
}
);
width = 93;
}
);
note = quotesingle;
unicode = 39;
},
{
glyphname = parenleft;
kernRight = parenleft;
layers = (
{
hints = (
{
horizontal = 1;
place = (-118, 872);
place = (-118, 872);
type = Stem;
},
{
place = (71, 14);
place = (71, 14);
type = Stem;
}
);
layerId = m01;
shapes = (
{
closed = 1;
nodes = (
(299,754,l),
(152,596,o),
(71,427,o),
(71,203,cs),
(71,80,o),
(94,-20,o),
(133,-118,c),
(148,-118,l),
(108,-23,o),
(85,80,o),
(85,203,cs),
(85,423,o),
(169,600,o),
(318,754,c)
);
}
);
width = 236;
}
);
note = parenleft;
unicode = 40;
},
{
glyphname = parenright;
kernLeft = parenright;
layers = (
{
hints = (
{
horizontal = 1;
place = (-118, 872);
place = (-118, 872);
type = Stem;
},
{
place = (179, 14);
place = (179, 14);
type = Stem;
}
);
layerId = m01;
shapes = (
{
closed = 1;
nodes = (
(-35,-118,l),
(112,40,o),
(193,209,o),
(193,433,cs),
(193,556,o),
(170,656,o),
(131,754,c),
(116,754,l),
(156,659,o),
(179,556,o),
(179,433,cs),
(179,213,o),
(95,36,o),
(-54,-118,c)
);
}
);
width = 236;
}
);
note = parenright;
unicode = 41;
},
{
glyphname = asterisk;
kernLeft = asterisk;
kernRight = asterisk;
layers = (
{
hints = (
{
horizontal = 1;
place = (458, 249);
place = (458, 249);
type = Stem;
},
{
place = (111, 245);
place = (111, 245);
type = Stem;
}
);
layerId = m01;
shapes = (
{
closed = 1;
nodes = (
(131,458,l),
(223,561,l),
(275,460,l),
(287,466,l),
(235,568,l),
(356,601,l),
(353,614,l),
(317,605,o),
(269,590,o),
(233,581,c),
(257,705,l),
(243,707,l),
(219,582,l),
(117,627,l),
(111,614,l),
(212,570,l),
(121,468,l)
);
}
);
width = 333;
}
);
note = asterisk;
unicode = 42;
},
{
glyphname = plus;
kernLeft = minus;
kernRight = minus;
layers = (
{
hints = (
{
horizontal = 1;
place = (320, 14);
place = (320, 14);
type = Stem;
},
{
place = (59, 432);
place = (59, 432);
type = Stem;
}
);
layerId = m01;
shapes = (
{
closed = 1;
nodes = (
(59,320,l),
(266,320,l),
(225,106,l),
(240,106,l),
(281,320,l),
(488,320,l),
(491,334,l),
(284,334,l),
(325,546,l),
(310,546,l),
(269,334,l),
(62,334,l)
);
}
);
width = 524;
}
);
note = plus;
unicode = 43;
},
{
glyphname = comma;
kernLeft = comma;
kernRight = comma;
layers = (
{
hints = (
{
horizontal = 1;
place = (-120, 175);
place = (-120, 175);
type = Stem;
},
{
place = (-63, 83);
place = (-63, 83);
type = Stem;
}
);
layerId = m01;
shapes = (
{
closed = 1;
nodes = (
(-63,-120,l),
(-36,-113,o),
(-11,-101,o),
(4,-25,cs),
(20,55,l),
(4,55,l),
(-11,-19,ls),
(-24,-86,o),
(-40,-97,o),
(-60,-104,c)
);
}
);
width = 95;
}
);
note = comma;
unicode = 44;
},
{
glyphname = hyphen;
kernLeft = hyphen;
kernRight = hyphen;
layers = (
{
hints = (
{
horizontal = 1;
place = (268, 15);
place = (268, 15);
type = Stem;
},
{
place = (33, 225);
place = (33, 225);
type = Stem;
}
);
layerId = m01;
shapes = (
{
closed = 1;
nodes = (
(33,268,l),
(255,268,l),
(258,283,l),
(36,283,l)
);
}
);
width = 285;
}
);
note = hyphen;
unicode = 45;
},
{
glyphname = period;
kernLeft = comma;
kernRight = comma;
layers = (
{
hints = (
{
horizontal = 1;
place = (0, 55);
place = (0, 55);
type = Stem;
},
{
place = (-7, 28);
place = (-7, 28);
type = Stem;
}
);
layerId = m01;
shapes = (
{
closed = 1;
nodes = (
(21,55,l),
(4,55,l),
(-7,0,l),
(10,0,l)
);
}
);
width = 95;
}
);
note = period;
unicode = 46;
},
{
glyphname = slash;
kernLeft = slash;
kernRight = slash;
layers = (
{
hints = (
{
horizontal = 1;
place = (0, 21);
target = up;
type = BottomGhost;
},
{
horizontal = 1;
place = (715, -20);
target = down;
type = TopGhost;
},
{
place = (-34, 447);
place = (-34, 447);
type = Stem;
}
);
layerId = m01;
shapes = (
{
closed = 1;
nodes = (
(413,715,l),
(397,715,l),
(-34,0,l),
(-18,0,l)
);
}
);
width = 341;
}
);
note = slash;
unicode = 47;
},
{
glyphname = zero;
kernLeft = zero;
kernRight = zero;
layers = (
{
hints = (
{
horizontal = 1;
place = (-7, 14);
place = (-7, 14);
type = Stem;
},
{
horizontal = 1;
place = (679, 14);
place = (679, 14);
type = Stem;
},
{
place = (50, 15);
place = (50, 15);
type = Stem;
},
{
place = (554, 15);
place = (554, 15);
type = Stem;
}
);
layerId = m01;
shapes = (
{
closed = 1;
nodes = (
(486,-7,o),
(569,246,o),
(569,434,cs),
(569,587,o),
(490,693,o),
(351,693,cs),
(139,693,o),
(50,435,o),
(50,252,cs),
(50,95,o),
(134,-7,o),
(272,-7,cs)
);
},
{
closed = 1;
nodes = (
(142,7,o),
(65,103,o),
(65,252,cs),
(65,429,o),
(149,679,o),
(351,679,cs),
(482,679,o),
(554,579,o),
(554,434,cs),
(554,252,o),
(476,7,o),
(272,7,cs)
);
}
);
width = 588;
}
);
note = zero;
unicode = 48;
},
{
glyphname = one;
kernLeft = one;
kernRight = one;
layers = (
{
hints = (
{
horizontal = 1;
place = (0, 21);
target = up;
type = BottomGhost;
},
{
horizontal = 1;
place = (535, 14);
place = (535, 14);
type = Stem;
},
{
horizontal = 1;
place = (688, -20);
target = down;
type = TopGhost;
},
{
place = (59, 204);
place = (59, 204);
type = Stem;
}
);
layerId = m01;
shapes = (
{
closed = 1;
nodes = (
(248,688,l),
(215,578,o),
(153,550,o),
(62,549,c),
(59,535,l),
(136,536,o),
(196,555,o),
(235,621,c),
(115,0,l),
(130,0,l),
(263,688,l)
);
}
);
width = 267;
}
);
note = one;
unicode = 49;
},
{
glyphname = two;
kernLeft = two;
kernRight = two;
layers = (
{
hints = (
{
horizontal = 1;
place = (0, 14);
place = (0, 14);
type = Stem;
},
{
horizontal = 1;
place = (679, 14);
place = (679, 14);
type = Stem;
},
{
place = (493, 15);
place = (493, 15);
type = Stem;
}
);
layerId = m01;
shapes = (
{
closed = 1;
nodes = (
(427,14,l),
(1,14,l),
(35,162,o),
(148,223,o),
(289,286,cs),
(417,343,o),
(508,392,o),
(508,515,cs),
(508,624,o),
(431,693,o),
(310,693,cs),
(167,693,o),
(90,593,o),
(67,461,c),
(81,461,l),
(105,587,o),
(175,679,o),
(310,679,cs),
(424,679,o),
(493,616,o),
(493,515,cs),
(493,400,o),
(409,357,o),
(282,299,cs),
(133,231,o),
(16,170,o),
(-18,0,c),
(424,0,l)
);
}
);
width = 519;
}
);
note = two;
unicode = 50;
},
{
glyphname = three;
kernLeft = three;
kernRight = three;
layers = (
{
hints = (
{
horizontal = 1;
place = (-7, 14);
place = (-7, 14);
type = Stem;
},
{
horizontal = 1;
place = (357, 14);
place = (357, 14);
type = Stem;
},
{
horizontal = 1;
place = (679, 14);
place = (679, 14);
type = Stem;
},
{
place = (12, 15);
place = (12, 15);
type = Stem;
},
{
place = (478, 15);
place = (478, 15);
type = Stem;
},
{
place = (497, 15);
place = (497, 15);
type = Stem;
}
);
layerId = m01;
shapes = (
{
closed = 1;
nodes = (
(12,213,l),
(19,74,o),
(109,-7,o),
(250,-7,cs),
(385,-7,o),
(493,75,o),
(493,207,cs),
(493,293,o),
(440,347,o),
(372,363,c),
(451,378,o),
(512,430,o),
(512,526,cs),
(512,640,o),
(418,693,o),
(315,693,cs),
(184,693,o),
(99,607,o),
(73,487,c),
(89,487,l),
(113,599,o),
(192,679,o),
(315,679,cs),
(411,679,o),
(497,630,o),
(497,526,cs),
(497,415,o),
(409,371,o),
(322,371,cs),
(256,371,l),
(254,357,l),
(317,357,ls),
(402,357,o),
(478,309,o),
(478,207,cs),
(478,82,o),
(377,7,o),
(250,7,cs),
(118,7,o),
(34,82,o),
(27,213,c)
);
}
);
width = 524;
}
);
note = three;
unicode = 51;
},
{
glyphname = four;
kernLeft = four;
kernRight = four;
layers = (
{
hints = (
{
horizontal = 1;
place = (0, 21);
target = up;
type = BottomGhost;
},
{
horizontal = 1;
place = (195, 14);
place = (195, 14);
type = Stem;
},
{
horizontal = 1;
place = (692, -20);
target = down;
type = TopGhost;
},
{
place = (8, 493);
place = (8, 493);
type = Stem;
},
{
horizontal = 1;
place = (668, 24);
place = (668, 24);
type = Stem;
}
);
layerId = m01;
shapes = (
{
closed = 1;
nodes = (
(346,0,l),
(384,195,l),
(498,195,l),
(501,209,l),
(387,209,l),
(481,692,l),
(465,692,l),
(11,209,l),
(8,195,l),
(369,195,l),
(331,0,l)
);
},
{
closed = 1;
nodes = (
(461,668,l),
(371,209,l),
(30,209,l)
);
}
);
width = 528;
}
);
note = four;
unicode = 52;
},
{
glyphname = five;
kernLeft = five;
kernRight = five;
layers = (
{
hints = (
{
horizontal = 1;
place = (-8, 14);
place = (-8, 14);
type = Stem;
},
{
horizontal = 1;
place = (439, 14);
place = (439, 14);
type = Stem;
},
{
horizontal = 1;
place = (663, 14);
place = (663, 14);
type = Stem;
},
{
place = (8, 15);
place = (8, 15);
type = Stem;
},
{
place = (466, 15);
place = (466, 15);
type = Stem;
}
);
layerId = m01;
shapes = (
{
closed = 1;
nodes = (
(504,677,l),
(160,677,l),
(59,328,l),
(73,328,l),
(102,373,o),
(170,439,o),
(282,439,cs),
(382,439,o),
(466,373,o),
(466,252,cs),
(466,101,o),
(370,6,o),
(229,6,cs),
(115,6,o),
(36,79,o),
(23,187,c),
(8,187,l),
(19,73,o),
(105,-8,o),
(229,-8,cs),
(377,-8,o),
(481,94,o),
(481,252,cs),
(481,381,o),
(389,453,o),
(282,453,cs),
(185,453,o),
(122,407,o),
(85,366,c),
(171,663,l),
(501,663,l)
);
}
);
width = 501;
}
);
note = five;
unicode = 53;
},
{
glyphname = six;
kernLeft = six;
kernRight = six;
layers = (
{
hints = (
{
horizontal = 1;
place = (-7, 14);
place = (-7, 14);
type = Stem;
},
{
horizontal = 1;
place = (429, 14);
place = (429, 14);
type = Stem;
},
{
horizontal = 1;
place = (679, 14);
place = (679, 14);
type = Stem;
},
{
place = (47, 14);
place = (47, 14);
type = Stem;
},
{
place = (484, 15);
place = (484, 15);
type = Stem;
},
{
place = (515, 15);
place = (515, 15);
type = Stem;
}
);
layerId = m01;
shapes = (
{
closed = 1;
nodes = (
(530,522,l),
(522,624,o),
(460,693,o),
(346,693,cs),
(143,693,o),
(47,441,o),
(47,240,cs),
(47,98,o),
(115,-7,o),
(260,-7,cs),
(397,-7,o),
(499,95,o),
(499,239,cs),
(499,361,o),
(418,443,o),
(300,443,cs),
(164,443,o),
(77,346,o),
(61,240,c),
(64,445,o),
(157,679,o),
(346,679,cs),
(451,679,o),
(507,616,o),
(515,522,c)
);
},
{
closed = 1;
nodes = (
(70,288,o),
(137,429,o),
(300,429,cs),
(410,429,o),
(484,353,o),
(484,239,cs),
(484,103,o),
(389,7,o),
(260,7,cs),
(144,7,o),
(70,85,o),
(70,205,cs)
);
}
);
width = 541;
}
);
note = six;
unicode = 54;
},
{
glyphname = seven;
kernLeft = seven;
kernRight = seven;
layers = (
{
hints = (
{
horizontal = 1;
place = (0, 21);
target = up;
type = BottomGhost;
},
{
horizontal = 1;
place = (671, 14);
place = (671, 14);
type = Stem;
},
{
place = (83, 451);
place = (83, 451);
type = Stem;
}
);
layerId = m01;
shapes = (
{
closed = 1;
nodes = (
(510,671,l),
(264,462,o),
(159,257,o),
(106,0,c),
(121,0,l),
(174,252,o),
(273,454,o),
(531,671,c),
(534,685,l),
(86,685,l),
(83,671,l)
);
}
);
width = 470;
}
);
note = seven;
unicode = 55;
},
{
glyphname = eight;
kernLeft = eight;
kernRight = eight;
layers = (
{
hints = (
{
horizontal = 1;
place = (-7, 14);
place = (-7, 14);
type = Stem;
},
{
horizontal = 1;
place = (368, 14);
place = (368, 14);
type = Stem;
},
{
horizontal = 1;
place = (680, 14);
place = (680, 14);
type = Stem;
},
{
place = (19, 15);
place = (19, 15);
type = Stem;
},
{
place = (115, 15);
place = (115, 15);
type = Stem;
},
{
place = (499, 15);
place = (499, 15);
type = Stem;
},
{
place = (514, 15);
place = (514, 15);
type = Stem;
}
);
layerId = m01;
shapes = (
{
closed = 1;
nodes = (
(421,-7,o),
(514,84,o),
(514,206,cs),
(514,291,o),
(454,354,o),
(361,372,c),
(465,385,o),
(529,446,o),
(529,532,cs),
(529,635,o),
(442,694,o),
(332,694,cs),
(201,694,o),
(115,614,o),
(115,514,cs),
(115,446,o),
(162,398,o),
(235,379,c),
(93,366,o),
(19,278,o),
(19,175,cs),
(19,70,o),
(111,-7,o),
(263,-7,cs)
);
},
{
closed = 1;
nodes = (
(119,7,o),
(34,78,o),
(34,175,cs),
(34,283,o),
(118,368,o),
(280,368,cs),
(407,368,o),
(499,309,o),
(499,206,cs),
(499,92,o),
(413,7,o),
(263,7,cs)
);
},
{
closed = 1;
nodes = (
(209,382,o),
(130,429,o),
(130,514,cs),
(130,606,o),
(209,680,o),
(332,680,cs),
(434,680,o),
(514,627,o),
(514,532,cs),
(514,440,o),
(436,382,o),
(313,382,cs)
);
}
);
width = 547;
}
);
note = eight;
unicode = 56;
},
{
glyphname = nine;
kernLeft = nine;
kernRight = nine;
layers = (
{
hints = (
{
horizontal = 1;
place = (-7, 14);
place = (-7, 14);
type = Stem;
},
{
horizontal = 1;
place = (243, 14);
place = (243, 14);
type = Stem;
},
{
horizontal = 1;
place = (679, 14);
place = (679, 14);
type = Stem;
},
{
place = (54, 15);
place = (54, 15);
type = Stem;
},
{
place = (492, 14);
place = (492, 14);
type = Stem;
},
{
place = (23, 15);
place = (23, 15);
type = Stem;
}
);
layerId = m01;
shapes = (
{
closed = 1;
nodes = (
(23,164,l),
(31,62,o),
(97,-7,o),
(211,-7,cs),
(430,-7,o),
(506,246,o),
(506,446,cs),
(506,587,o),
(437,693,o),
(292,693,cs),
(155,693,o),
(54,590,o),
(54,447,cs),
(54,325,o),
(136,243,o),
(254,243,cs),
(391,243,o),
(476,340,o),
(492,446,c),
(489,241,o),
(416,7,o),
(211,7,cs),
(106,7,o),
(47,70,o),
(38,164,c)
);
},
{
closed = 1;
nodes = (
(483,398,o),
(417,257,o),
(254,257,cs),
(144,257,o),
(69,333,o),
(69,447,cs),
(69,583,o),
(163,679,o),
(292,679,cs),
(434,679,o),
(483,578,o),
(483,481,cs)
);
}
);
width = 528;
}
);
note = nine;
unicode = 57;
},
{
glyphname = colon;
kernLeft = colon;
kernRight = colon;
layers = (
{
hints = (
{
horizontal = 1;
place = (0, 55);
place = (0, 55);
type = Stem;
},
{
horizontal = 1;
place = (328, 55);
place = (328, 55);
type = Stem;
},
{
place = (-7, 91);
place = (-7, 91);
type = Stem;
}
);
layerId = m01;
shapes = (
{
closed = 1;
nodes = (
(21,55,l),
(4,55,l),
(-7,0,l),
(10,0,l)
);
},
{
closed = 1;
nodes = (
(84,383,l),
(67,383,l),
(56,328,l),
(73,328,l)
);
}
);
width = 102;
}
);
note = colon;
unicode = 58;
},
{
glyphname = semicolon;
kernLeft = colon;
kernRight = colon;
layers = (
{
hints = (
{
horizontal = 1;
place = (328, 55);
place = (328, 55);
type = Stem;
},
{
place = (-63, 147);
place = (-63, 147);
type = Stem;
}
);
layerId = m01;
shapes = (
{
closed = 1;
nodes = (
(-63,-120,l),
(-36,-113,o),
(-11,-101,o),
(4,-25,cs),
(20,55,l),
(4,55,l),
(-11,-19,ls),
(-24,-86,o),
(-40,-97,o),
(-60,-104,c)
);
},
{
closed = 1;
nodes = (
(84,383,l),
(67,383,l),
(56,328,l),
(73,328,l)
);
}
);
width = 102;
}
);
note = semicolon;
unicode = 59;
},
{
glyphname = less;
layers = (
{
hints = (
{
horizontal = 1;
place = (124, 377);
place = (124, 377);
type = Stem;
},
{
place = (52, 18);
place = (52, 18);
type = Stem;
}
);
layerId = m01;
shapes = (
{
closed = 1;
nodes = (
(411,139,l),
(70,311,l),
(478,485,l),
(481,501,l),
(53,318,l),
(51,306,l),
(408,124,l)
);
}
);
width = 482;
}
);
note = less;
unicode = 60;
},
{
glyphname = equal;
layers = (
{
hints = (
{
horizontal = 1;
place = (239, 14);
place = (239, 14);
type = Stem;
},
{
horizontal = 1;
place = (374, 14);
place = (374, 14);
type = Stem;
},
{
place = (39, 455);
place = (39, 455);
type = Stem;
}
);
layerId = m01;
shapes = (
{
closed = 1;
nodes = (
(65,374,l),
(491,374,l),
(494,388,l),
(68,388,l)
);
},
{
closed = 1;
nodes = (
(39,239,l),
(464,239,l),
(467,253,l),
(42,253,l)
);
}
);
width = 512;
}
);
note = equal;
unicode = 61;
},
{
glyphname = greater;
layers = (
{
hints = (
{
horizontal = 1;
place = (123, 377);
place = (123, 377);
type = Stem;
},
{
place = (432, 18);
place = (432, 18);
type = Stem;
}
);
layerId = m01;
shapes = (
{
closed = 1;
nodes = (
(90,485,l),
(432,313,l),
(24,140,l),
(21,123,l),
(449,306,l),
(451,318,l),
(93,500,l)
);
}
);
width = 482;
}
);
note = greater;
unicode = 62;
},
{
glyphname = question;
kernLeft = question;
layers = (
{
hints = (
{
horizontal = 1;
place = (0, 55);
place = (0, 55);
type = Stem;
},
{
horizontal = 1;
place = (709, 14);
place = (709, 14);
type = Stem;
},
{
place = (479, 15);
place = (479, 15);
type = Stem;
}
);
layerId = m01;
shapes = (
{
closed = 1;
nodes = (
(218,178,l),
(239,286,o),
(278,321,o),
(370,381,cs),
(430,420,o),
(494,462,o),
(494,557,cs),
(494,658,o),
(416,723,o),
(304,723,cs),
(171,723,o),
(91,633,o),
(65,518,c),
(79,518,l),
(108,628,o),
(178,709,o),
(304,709,cs),
(408,709,o),
(479,651,o),
(479,557,cs),
(479,468,o),
(421,432,o),
(362,393,cs),
(258,324,o),
(225,287,o),
(203,178,c)
);
},
{
closed = 1;
nodes = (
(197,55,l),
(180,55,l),
(169,0,l),
(186,0,l)
);
}
);
width = 470;
}
);
note = question;
unicode = 63;
},
{
glyphname = at;
kernLeft = at;
kernRight = at;
layers = (
{
hints = (
{
horizontal = 1;
place = (-96, 14);
place = (-96, 14);
type = Stem;
},
{
horizontal = 1;
place = (86, 14);
place = (86, 14);
type = Stem;
},
{
horizontal = 1;
place = (500, 14);
place = (500, 14);
type = Stem;
},
{
horizontal = 1;
place = (690, 14);
place = (690, 14);
type = Stem;
},
{
place = (34, 15);
place = (34, 15);
type = Stem;
},
{
place = (229, 15);
place = (229, 15);
type = Stem;
},
{
place = (575, 12);
place = (575, 12);
type = Stem;
},
{
place = (816, 15);
place = (816, 15);
type = Stem;
},
{
place = (549, 12);
place = (549, 12);
type = Stem;
},
{
horizontal = 1;
place = (95, 14);
place = (95, 14);
type = Stem;
}
);
layerId = m01;
shapes = (
{
closed = 1;
nodes = (
(633,510,l),
(619,512,l),
(587,367,l),
(584,448,o),
(535,514,o),
(442,514,cs),
(306,514,o),
(229,381,o),
(229,249,cs),
(229,154,o),
(288,86,o),
(385,86,cs),
(456,86,o),
(518,129,o),
(549,195,c),
(540,138,o),
(570,95,o),
(633,95,cs),
(748,95,o),
(828,203,o),
(831,359,cs),
(831,584,o),
(652,704,o),
(460,704,cs),
(251,704,o),
(34,553,o),
(34,274,cs),
(34,55,o),
(191,-96,o),
(427,-96,cs),
(498,-96,o),
(567,-82,o),
(629,-55,c),
(623,-43,l),
(563,-68,o),
(496,-82,o),
(427,-82,cs),
(199,-82,o),
(49,63,o),
(49,274,cs),
(49,543,o),
(257,690,o),
(460,690,cs),
(644,690,o),
(816,574,o),
(816,359,cs),
(813,211,o),
(740,109,o),
(633,109,cs),
(568,109,o),
(553,159,o),
(565,210,cs)
);
},
{
closed = 1;
nodes = (
(575,243,o),
(516,100,o),
(385,100,cs),
(296,100,o),
(244,163,o),
(244,249,cs),
(244,375,o),
(314,500,o),
(442,500,cs),
(540,500,o),
(575,426,o),
(575,352,cs)
);
}
);
width = 848;
}
);
note = at;
unicode = 64;
},
{
glyphname = A;
kernLeft = A;
kernRight = A;
layers = (
{
hints = (
{
horizontal = 1;
place = (0, 21);
target = up;
type = BottomGhost;
},
{
horizontal = 1;
place = (256, 14);
place = (256, 14);
type = Stem;
},
{
horizontal = 1;
place = (695, 20);
place = (695, 20);
type = Stem;
},
{
place = (-39, 565);
place = (-39, 565);
type = Stem;
}
);
layerId = m01;
shapes = (
{
closed = 1;
nodes = (
(512,0,l),
(526,0,l),
(374,715,l),
(360,715,l),
(-39,0,l),
(-24,0,l),
(119,256,l),
(457,256,l)
);
},
{
closed = 1;
nodes = (
(306,591,ls),
(330,634,o),
(364,695,o),
(364,695,c),
(364,695,o),
(380,621,o),
(386,593,cs),
(454,270,l),
(127,270,l)
);
}
);
width = 586;
}
);
note = A;
unicode = 65;
},
{
glyphname = B;
layers = (
{
hints = (
{
horizontal = 1;
place = (0, 14);
place = (0, 14);
type = Stem;
},
{
horizontal = 1;
place = (370, 14);
place = (370, 14);
type = Stem;
},
{
horizontal = 1;
place = (701, 14);
place = (701, 14);
type = Stem;
},
{
place = (573, 15);
place = (573, 15);
type = Stem;
},
{
place = (554, 15);
place = (554, 15);
type = Stem;
}
);
layerId = m01;
shapes = (
{
closed = 1;
nodes = (
(588,668,o),
(490,715,o),
(393,715,cs),
(155,715,l),
(16,0,l),
(315,0,ls),
(448,0,o),
(569,70,o),
(569,222,cs),
(569,303,o),
(521,357,o),
(439,376,c),
(439,377,l),
(542,398,o),
(588,465,o),
(588,546,cs)
);
},
{
closed = 1;
nodes = (
(372,370,ls),
(480,370,o),
(554,317,o),
(554,222,cs),
(554,81,o),
(439,14,o),
(314,14,cs),
(35,14,l),
(104,370,l)
);
},
{
closed = 1;
nodes = (
(168,701,l),
(392,701,ls),
(482,701,o),
(573,658,o),
(573,546,cs),
(573,455,o),
(509,384,o),
(372,384,cs),
(107,384,l)
);
}
);
width = 604;
}
);
note = B;
unicode = 66;
},
{
glyphname = C;
kernLeft = C;
kernRight = C;
layers = (
{
hints = (
{
horizontal = 1;
place = (-7, 14);
place = (-7, 14);
type = Stem;
},
{
horizontal = 1;
place = (708, 14);
place = (708, 14);
type = Stem;
},
{
place = (50, 15);
place = (50, 15);
type = Stem;
}
);
layerId = m01;
shapes = (
{
closed = 1;
nodes = (
(660,516,l),
(644,641,o),
(555,722,o),
(413,722,cs),
(183,722,o),
(50,510,o),
(50,304,cs),
(50,123,o),
(147,-7,o),
(338,-7,cs),
(503,-7,o),
(605,113,o),
(636,249,c),
(621,249,l),
(591,120,o),
(496,7,o),
(338,7,cs),
(157,7,o),
(65,131,o),
(65,304,cs),
(65,504,o),
(191,708,o),
(413,708,cs),
(555,708,o),
(628,631,o),
(645,516,c)
);
}
);
width = 660;
}
);
note = C;
unicode = 67;
},
{
glyphname = D;
kernRight = Eth;
layers = (
{
hints = (
{
horizontal = 1;
place = (0, 14);
place = (0, 14);
type = Stem;
},
{
horizontal = 1;
place = (701, 14);
place = (701, 14);
type = Stem;
},
{
place = (610, 15);
place = (610, 15);
type = Stem;
}
);
layerId = m01;
shapes = (
{
closed = 1;
nodes = (
(16,0,l),
(241,0,ls),
(502,0,o),
(625,198,o),
(625,425,cs),
(625,594,o),
(527,715,o),
(349,715,cs),
(153,715,l)
);
},
{
closed = 1;
nodes = (
(166,701,l),
(349,701,ls),
(520,701,o),
(610,585,o),
(610,425,cs),
(610,206,o),
(492,14,o),
(241,14,cs),
(34,14,l)
);
}
);
width = 637;
}
);
note = D;
unicode = 68;
},
{
glyphname = E;
kernRight = E;
layers = (
{
hints = (
{
horizontal = 1;
place = (0, 14);
place = (0, 14);
type = Stem;
},
{
horizontal = 1;
place = (364, 14);
place = (364, 14);
type = Stem;
},
{
horizontal = 1;
place = (701, 14);
place = (701, 14);
type = Stem;
},
{
place = (16, 566);
place = (16, 566);
type = Stem;
}
);
layerId = m01;
shapes = (
{
closed = 1;
nodes = (
(16,0,l),
(466,0,l),
(469,14,l),
(34,14,l),
(101,364,l),
(481,364,l),
(484,378,l),
(104,378,l),
(166,701,l),
(579,701,l),
(582,715,l),
(153,715,l)
);
}
);
width = 553;
}
);
note = E;
unicode = 69;
},
{
glyphname = F;
kernRight = F;
layers = (
{
hints = (
{
horizontal = 1;
place = (0, 21);
target = up;
type = BottomGhost;
},
{
horizontal = 1;
place = (368, 14);
place = (368, 14);
type = Stem;
},
{
horizontal = 1;
place = (701, 14);
place = (701, 14);
type = Stem;
},
{
place = (16, 579);
place = (16, 579);
type = Stem;
}
);
layerId = m01;
shapes = (
{
closed = 1;
nodes = (
(16,0,l),
(31,0,l),
(102,368,l),
(478,368,l),
(481,382,l),
(105,382,l),
(166,701,l),
(592,701,l),
(595,715,l),
(153,715,l)
);
}
);
width = 535;
}
);
note = F;
unicode = 70;
},
{
glyphname = G;
kernLeft = C;
kernRight = G;
layers = (
{
hints = (
{
horizontal = 1;
place = (-7, 14);
place = (-7, 14);
type = Stem;
},
{
horizontal = 1;
place = (335, 14);
place = (335, 14);
type = Stem;
},
{
horizontal = 1;
place = (708, 14);
place = (708, 14);
type = Stem;
},
{
place = (50, 14);
place = (50, 14);
type = Stem;
},
{
horizontal = 1;
place = (0, 21);
target = up;
type = BottomGhost;
}
);
layerId = m01;
shapes = (
{
closed = 1;
nodes = (
(655,349,l),
(377,349,l),
(374,335,l),
(637,335,l),
(622,258,ls),
(597,126,o),
(496,7,o),
(336,7,cs),
(155,7,o),
(64,131,o),
(64,304,cs),
(64,504,o),
(188,708,o),
(411,708,cs),
(554,708,o),
(635,631,o),
(653,516,c),
(667,516,l),
(650,640,o),
(561,722,o),
(411,722,cs),
(181,722,o),
(50,510,o),
(50,304,cs),
(50,123,o),
(145,-7,o),
(336,-7,cs),
(464,-7,o),
(557,66,o),
(604,165,c),
(572,0,l),
(587,0,l)
);
}
);
width = 695;
}
);
note = G;
unicode = 71;
},
{
glyphname = H;
layers = (
{
hints = (
{
horizontal = 1;
place = (0, 21);
target = up;
type = BottomGhost;
},
{
horizontal = 1;
place = (374, 14);
place = (374, 14);
type = Stem;
},
{
horizontal = 1;
place = (715, -20);
target = down;
type = TopGhost;
},
{
place = (16, 660);
place = (16, 660);
type = Stem;
}
);
layerId = m01;
shapes = (
{
closed = 1;
nodes = (
(16,0,l),
(31,0,l),
(104,374,l),
(595,374,l),
(522,0,l),
(537,0,l),
(676,715,l),
(661,715,l),
(597,388,l),
(106,388,l),
(170,715,l),
(155,715,l)
);
}
);
width = 654;
}
);
note = H;
unicode = 72;
},
{
glyphname = I;
layers = (
{
hints = (
{
horizontal = 1;
place = (0, 21);
target = up;
type = BottomGhost;
},
{
horizontal = 1;
place = (715, -20);
target = down;
type = TopGhost;
},
{
place = (18, 154);
place = (18, 154);
type = Stem;
}
);
layerId = m01;
shapes = (
{
closed = 1;
nodes = (
(172,715,l),
(157,715,l),
(18,0,l),
(33,0,l)
);
}
);
width = 152;
}
);
note = I;
unicode = 73;
},
{
glyphname = J;
kernLeft = J;
kernRight = J;
layers = (
{
hints = (
{
horizontal = 1;
place = (-7, 14);
place = (-7, 14);
type = Stem;
},
{
horizontal = 1;
place = (715, -20);
target = down;
type = TopGhost;
},
{
place = (2, 15);
place = (2, 15);
type = Stem;
}
);
layerId = m01;
shapes = (
{
closed = 1;
nodes = (
(10,220,l),
(6,202,o),
(2,175,o),
(2,149,cs),
(2,52,o),
(60,-7,o),
(180,-7,cs),
(300,-7,o),
(360,64,o),
(380,169,cs),
(485,715,l),
(470,715,l),
(365,170,ls),
(346,74,o),
(291,7,o),
(180,7,cs),
(70,7,o),
(17,60,o),
(17,150,cs),
(17,172,o),
(20,196,o),
(25,220,c)
);
}
);
width = 454;
}
);
note = J;
unicode = 74;
},
{
glyphname = K;
kernRight = K;
layers = (
{
hints = (
{
horizontal = 1;
place = (0, 21);
target = up;
type = BottomGhost;
},
{
horizontal = 1;
place = (715, -20);
target = down;
type = TopGhost;
},
{
place = (16, 594);
place = (16, 594);
type = Stem;
}
);
layerId = m01;
shapes = (
{
closed = 1;
nodes = (
(610,715,l),
(588,715,l),
(86,285,l),
(170,715,l),
(155,715,l),
(16,0,l),
(31,0,l),
(82,264,l),
(264,420,l),
(518,0,l),
(535,0,l),
(276,430,l)
);
}
);
width = 563;
}
);
note = K;
unicode = 75;
},
{
glyphname = L;
kernRight = L;
layers = (
{
hints = (
{
horizontal = 1;
place = (0, 14);
place = (0, 14);
type = Stem;
},
{
horizontal = 1;
place = (715, -20);
target = down;
type = TopGhost;
},
{
place = (16, 433);
place = (16, 433);
type = Stem;
}
);
layerId = m01;
shapes = (
{
closed = 1;
nodes = (
(169,715,l),
(154,715,l),
(16,0,l),
(446,0,l),
(449,14,l),
(33,14,l)
);
}
);
width = 509;
}
);
note = L;
unicode = 76;
},
{
glyphname = M;
layers = (
{
hints = (
{
horizontal = 1;
place = (0, 18);
place = (0, 18);
type = Stem;
},
{
horizontal = 1;
place = (692, 23);
place = (692, 23);
type = Stem;
},
{
place = (16, 783);
place = (16, 783);
type = Stem;
}
);
layerId = m01;
shapes = (
{
closed = 1;
nodes = (
(799,715,l),
(776,715,l),
(340,18,l),
(339,18,l),
(175,715,l),
(154,715,l),
(16,0,l),
(31,0,l),
(165,692,l),
(165,692,o),
(179,634,o),
(192,580,cs),
(329,0,l),
(345,0,l),
(710,581,ls),
(740,629,o),
(779,692,o),
(779,692,c),
(645,0,l),
(660,0,l)
);
}
);
width = 777;
}
);
note = M;
unicode = 77;
},
{
glyphname = N;
layers = (
{
hints = (
{
horizontal = 1;
place = (0, 25);
place = (0, 25);
type = Stem;
},
{
horizontal = 1;
place = (692, 23);
place = (692, 23);
type = Stem;
},
{
place = (16, 655);
place = (16, 655);
type = Stem;
}
);
layerId = m01;
shapes = (
{
closed = 1;
nodes = (
(671,715,l),
(656,715,l),
(522,25,l),
(522,25,o),
(491,86,o),
(465,137,cs),
(171,715,l),
(154,715,l),
(16,0,l),
(31,0,l),
(165,692,l),
(165,692,o),
(207,610,o),
(231,563,cs),
(517,0,l),
(532,0,l)
);
}
);
width = 649;
}
);
note = N;
unicode = 78;
},
{
glyphname = O;
kernLeft = C;
kernRight = O;
layers = (
{
hints = (
{
horizontal = 1;
place = (-8, 14);
place = (-8, 14);
type = Stem;
},
{
horizontal = 1;
place = (709, 14);
place = (709, 14);
type = Stem;
},
{
place = (50, 15);
place = (50, 15);
type = Stem;
},
{
place = (704, 15);
place = (704, 15);
type = Stem;
}
);
layerId = m01;
shapes = (
{
closed = 1;
nodes = (
(579,-8,o),
(719,175,o),
(719,400,cs),
(719,606,o),
(583,723,o),
(412,723,cs),
(199,723,o),
(50,536,o),
(50,314,cs),
(50,109,o),
(189,-8,o),
(360,-8,cs)
);
},
{
closed = 1;
nodes = (
(197,6,o),
(65,117,o),
(65,314,cs),
(65,528,o),
(207,709,o),
(412,709,cs),
(575,709,o),
(704,598,o),
(704,400,cs),
(704,183,o),
(571,6,o),
(360,6,cs)
);
}
);
width = 732;
}
);
note = O;
unicode = 79;
},
{
glyphname = P;
kernRight = P;
layers = (
{
hints = (
{
horizontal = 1;
place = (0, 21);
target = up;
type = BottomGhost;
},
{
horizontal = 1;
place = (333, 14);
place = (333, 14);
type = Stem;
},
{
horizontal = 1;
place = (701, 14);
place = (701, 14);
type = Stem;
},
{
place = (569, 15);
place = (569, 15);
type = Stem;
}
);
layerId = m01;
shapes = (
{
closed = 1;
nodes = (
(318,333,ls),
(479,333,o),
(584,396,o),
(584,541,cs),
(584,595,o),
(568,635,o),
(541,663,cs),
(506,699,o),
(450,715,o),
(388,715,cs),
(153,715,l),
(16,0,l),
(31,0,l),
(95,333,l)
);
},
{
closed = 1;
nodes = (
(166,701,l),
(387,701,ls),
(487,701,o),
(569,659,o),
(569,541,cs),
(569,403,o),
(469,347,o),
(317,347,cs),
(97,347,l)
);
}
);
width = 554;
}
);
note = P;
unicode = 80;
},
{
glyphname = Q;
kernLeft = C;
kernRight = Q;
layers = (
{
hints = (
{
horizontal = 1;
place = (-8, 14);
place = (-8, 14);
type = Stem;
},
{
horizontal = 1;
place = (709, 14);
place = (709, 14);
type = Stem;
},
{
place = (50, 15);
place = (50, 15);
type = Stem;
},
{
place = (704, 15);
place = (704, 15);
type = Stem;
}
);
layerId = m01;
shapes = (
{
closed = 1;
nodes = (
(665,-45,l),
(561,55,l),
(661,128,o),
(719,255,o),
(719,400,cs),
(719,606,o),
(583,723,o),
(412,723,cs),
(199,723,o),
(50,536,o),
(50,314,cs),
(50,109,o),
(189,-8,o),
(360,-8,cs),
(432,-8,o),
(496,12,o),
(549,47,c),
(656,-56,l)
);
},
{
closed = 1;
nodes = (
(197,6,o),
(65,117,o),
(65,314,cs),
(65,528,o),
(207,709,o),
(412,709,cs),
(575,709,o),
(704,598,o),
(704,400,cs),
(704,259,o),
(648,135,o),
(551,65,c),
(466,149,l),
(456,138,l),
(539,57,l),
(489,25,o),
(428,6,o),
(360,6,cs)
);
}
);
width = 732;
}
);
note = Q;
unicode = 81;
},
{
glyphname = R;
kernRight = R;
layers = (
{
hints = (
{
horizontal = 1;
place = (0, 21);
target = up;
type = BottomGhost;
},
{
horizontal = 1;
place = (335, 14);
place = (335, 14);
type = Stem;
},
{
horizontal = 1;
place = (701, 14);
place = (701, 14);
type = Stem;
},
{
place = (520, 15);
place = (520, 15);
type = Stem;
},
{
place = (589, 15);
place = (589, 15);
type = Stem;
}
);
layerId = m01;
shapes = (
{
closed = 1;
nodes = (
(551,2,l),
(541,17,o),
(533,33,o),
(533,95,cs),
(533,118,o),
(535,163,o),
(535,188,cs),
(535,289,o),
(504,329,o),
(439,343,c),
(537,362,o),
(604,430,o),
(604,533,cs),
(604,666,o),
(511,715,o),
(413,715,cs),
(154,715,l),
(15,0,l),
(30,0,l),
(95,335,l),
(367,335,ls),
(469,335,o),
(520,315,o),
(520,188,cs),
(520,153,o),
(518,116,o),
(518,95,cs),
(518,37,o),
(525,13,o),
(535,0,c),
(551,0,l)
);
},
{
closed = 1;
nodes = (
(166,701,l),
(413,701,ls),
(503,701,o),
(589,657,o),
(589,533,cs),
(589,416,o),
(500,349,o),
(372,349,cs),
(98,349,l)
);
}
);
width = 618;
}
);
note = R;
unicode = 82;
},
{
glyphname = S;
kernLeft = Scaron;
kernRight = Scaron;
layers = (
{
hints = (
{
horizontal = 1;
place = (-8, 14);
place = (-8, 14);
type = Stem;
},
{
horizontal = 1;
place = (709, 14);
place = (709, 14);
type = Stem;
},
{
place = (13, 14);
place = (13, 14);
type = Stem;
},
{
place = (96, 15);
place = (96, 15);
type = Stem;
},
{
place = (510, 15);
place = (510, 15);
type = Stem;
},
{
place = (542, 14);
place = (542, 14);
type = Stem;
}
);
layerId = m01;
shapes = (
{
closed = 1;
nodes = (
(13,231,l),
(13,67,o),
(137,-8,o),
(274,-8,cs),
(415,-8,o),
(525,67,o),
(525,190,cs),
(525,306,o),
(445,335,o),
(297,389,cs),
(169,436,o),
(111,469,o),
(111,556,cs),
(111,648,o),
(188,709,o),
(314,709,cs),
(465,709,o),
(534,628,o),
(542,522,c),
(556,522,l),
(548,636,o),
(474,723,o),
(314,723,cs),
(180,723,o),
(96,656,o),
(96,556,cs),
(96,461,o),
(158,425,o),
(294,375,cs),
(435,323,o),
(510,299,o),
(510,190,cs),
(510,74,o),
(407,6,o),
(274,6,cs),
(145,6,o),
(28,76,o),
(27,231,c)
);
}
);
width = 570;
}
);
note = S;
unicode = 83;
},
{
glyphname = T;
kernLeft = T;
kernRight = T;
layers = (
{
hints = (
{
horizontal = 1;
place = (0, 21);
target = up;
type = BottomGhost;
},
{
horizontal = 1;
place = (701, 14);
place = (701, 14);
type = Stem;
},
{
place = (90, 518);
place = (90, 518);
type = Stem;
}
);
layerId = m01;
shapes = (
{
closed = 1;
nodes = (
(218,0,l),
(354,701,l),
(605,701,l),
(608,715,l),
(93,715,l),
(90,701,l),
(339,701,l),
(203,0,l)
);
}
);
width = 536;
}
);
note = T;
unicode = 84;
},
{
glyphname = U;
kernLeft = U;
kernRight = U;
layers = (
{
hints = (
{
horizontal = 1;
place = (-7, 14);
place = (-7, 14);
type = Stem;
},
{
horizontal = 1;
place = (715, -20);
target = down;
type = TopGhost;
},
{
place = (46, 16);
place = (46, 16);
type = Stem;
}
);
layerId = m01;
shapes = (
{
closed = 1;
nodes = (
(142,715,l),
(53,260,ls),
(19,86,o),
(120,-7,o),
(288,-7,cs),
(430,-7,o),
(530,72,o),
(557,209,cs),
(657,715,l),
(642,715,l),
(542,211,ls),
(516,81,o),
(423,7,o),
(288,7,cs),
(117,7,o),
(38,104,o),
(68,258,cs),
(157,715,l)
);
}
);
width = 623;
}
);
note = U;
unicode = 85;
},
{
glyphname = V;
kernLeft = V;
kernRight = V;
layers = (
{
hints = (
{
horizontal = 1;
place = (0, 21);
target = up;
type = BottomGhost;
},
{
horizontal = 1;
place = (715, -20);
target = down;
type = TopGhost;
},
{
place = (90, 563);
place = (90, 563);
type = Stem;
}
);
layerId = m01;
shapes = (
{
closed = 1;
nodes = (
(105,715,l),
(90,715,l),
(240,0,l),
(254,0,l),
(653,715,l),
(637,715,l),
(329,163,ls),
(289,91,o),
(250,22,o),
(250,22,c),
(250,22,o),
(236,91,o),
(221,162,cs)
);
}
);
width = 571;
}
);
note = V;
unicode = 86;
},
{
glyphname = W;
kernLeft = W;
kernRight = W;
layers = (
{
hints = (
{
horizontal = 1;
place = (0, 21);
target = up;
type = BottomGhost;
},
{
horizontal = 1;
place = (692, 23);
place = (692, 23);
type = Stem;
},
{
place = (94, 846);
place = (94, 846);
type = Stem;
}
);
layerId = m01;
shapes = (
{
closed = 1;
nodes = (
(523,715,l),
(506,715,l),
(270,195,ls),
(229,105,o),
(194,27,o),
(194,27,c),
(194,27,o),
(184,112,o),
(173,197,cs),
(108,715,l),
(94,715,l),
(183,0,l),
(196,0,l),
(465,591,ls),
(484,632,o),
(511,692,o),
(511,692,c),
(511,692,o),
(517,640,o),
(522,591,cs),
(585,0,l),
(600,0,l),
(940,715,l),
(924,715,l),
(676,193,ls),
(634,104,o),
(597,27,o),
(597,27,c),
(597,27,o),
(588,107,o),
(579,193,cs)
);
}
);
width = 865;
}
);
note = W;
unicode = 87;
},
{
glyphname = X;
kernLeft = X;
kernRight = X;
layers = (
{
hints = (
{
horizontal = 1;
place = (0, 21);
target = up;
type = BottomGhost;
},
{
horizontal = 1;
place = (715, -20);
target = down;
type = TopGhost;
},
{
place = (-38, 651);
place = (-38, 651);
type = Stem;
}
);
layerId = m01;
shapes = (
{
closed = 1;
nodes = (
(-38,0,l),
(-20,0,l),
(295,355,l),
(495,0,l),
(511,0,l),
(305,367,l),
(613,715,l),
(595,715,l),
(298,379,l),
(109,715,l),
(93,715,l),
(288,368,l)
);
}
);
width = 554;
}
);
note = X;
unicode = 88;
},
{
glyphname = Y;
kernLeft = Yacute;
kernRight = Yacute;
layers = (
{
hints = (
{
horizontal = 1;
place = (0, 21);
target = up;
type = BottomGhost;
},
{
horizontal = 1;
place = (715, -20);
target = down;
type = TopGhost;
},
{
place = (81, 563);
place = (81, 563);
type = Stem;
}
);
layerId = m01;
shapes = (
{
closed = 1;
nodes = (
(97,715,l),
(81,715,l),
(287,328,l),
(223,0,l),
(238,0,l),
(302,328,l),
(644,715,l),
(625,715,l),
(296,342,l)
);
}
);
width = 556;
}
);
note = Y;
unicode = 89;
},
{
glyphname = Z;
kernLeft = Zcaron;
kernRight = Zcaron;
layers = (
{
hints = (
{
horizontal = 1;
place = (0, 14);
place = (0, 14);
type = Stem;
},
{
horizontal = 1;
place = (701, 14);
place = (701, 14);
type = Stem;
},
{
place = (-20, 621);
place = (-20, 621);
type = Stem;
}
);
layerId = m01;
shapes = (
{
closed = 1;
nodes = (
(488,14,l),
(1,14,l),
(598,701,l),
(601,715,l),
(137,715,l),
(134,701,l),
(579,701,l),
(-17,14,l),
(-20,0,l),
(485,0,l)
);
}
);
width = 560;
}
);
note = Z;
unicode = 90;
},
{
glyphname = bracketleft;
kernRight = bracketleft;
layers = (
{
hints = (
{
horizontal = 1;
place = (-118, 14);
place = (-118, 14);
type = Stem;
},
{
horizontal = 1;
place = (740, 14);
place = (740, 14);
type = Stem;
},
{
place = (3, 292);
place = (3, 292);
type = Stem;
}
);
layerId = m01;
shapes = (
{
closed = 1;
nodes = (
(21,-104,l),
(186,740,l),
(292,740,l),
(295,754,l),
(173,754,l),
(3,-118,l),
(124,-118,l),
(127,-104,l)
);
}
);
width = 228;
}
);
note = bracketleft;
unicode = 91;
},
{
glyphname = backslash;
kernLeft = backslash;
kernRight = backslash;
layers = (
{
hints = (
{
horizontal = 1;
place = (0, 21);
target = up;
type = BottomGhost;
},
{
horizontal = 1;
place = (715, -20);
target = down;
type = TopGhost;
},
{
place = (94, 176);
place = (94, 176);
type = Stem;
}
);
layerId = m01;
shapes = (
{
closed = 1;
nodes = (
(94,715,l),
(256,0,l),
(270,0,l),
(108,715,l)
);
}
);
width = 326;
}
);
note = backslash;
unicode = 92;
},
{
glyphname = bracketright;
kernLeft = bracketright;
layers = (
{
hints = (
{
horizontal = 1;
place = (-118, 14);
place = (-118, 14);
type = Stem;
},
{
horizontal = 1;
place = (740, 14);
place = (740, 14);
type = Stem;
},
{
place = (-43, 293);
place = (-43, 293);
type = Stem;
}
);
layerId = m01;
shapes = (
{
closed = 1;
nodes = (
(232,740,l),
(67,-104,l),
(-40,-104,l),
(-43,-118,l),
(80,-118,l),
(250,754,l),
(128,754,l),
(125,740,l)
);
}
);
width = 230;
}
);
note = bracketright;
unicode = 93;
},
{
glyphname = asciicircum;
layers = (
{
hints = (
{
horizontal = 1;
place = (702, 13);
place = (702, 13);
type = Stem;
},
{
place = (41, 349);
place = (41, 349);
type = Stem;
}
);
layerId = m01;
shapes = (
{
closed = 1;
nodes = (
(375,440,l),
(390,440,l),
(266,715,l),
(249,715,l),
(41,440,l),
(58,440,l),
(257,702,l)
);
}
);
width = 371;
}
);
note = asciicircum;
unicode = 94;
},
{
glyphname = underscore;
layers = (
{
hints = (
{
horizontal = 1;
place = (-166, 14);
place = (-166, 14);
type = Stem;
},
{
place = (-84, 386);
place = (-84, 386);
type = Stem;
}
);
layerId = m01;
shapes = (
{
closed = 1;
nodes = (
(-84,-166,l),
(299,-166,l),
(302,-152,l),
(-81,-152,l)
);
}
);
width = 371;
}
);
note = underscore;
unicode = 95;
},
{
glyphname = grave;
layers = (
{
hints = (
{
horizontal = 1;
place = (598, 127);
place = (598, 127);
type = Stem;
},
{
place = (214, 64);
place = (214, 64);
type = Stem;
}
);
layerId = m01;
shapes = (
{
closed = 1;
nodes = (
(214,725,l),
(262,598,l),
(278,598,l),
(230,725,l)
);
}
);
width = 419;
}
);
note = grave;
unicode = 96;
},
{
glyphname = a;
kernLeft = a;
kernRight = a;
layers = (
{
hints = (
{
horizontal = 1;
place = (-7, 14);
place = (-7, 14);
type = Stem;
},
{
horizontal = 1;
place = (510, 14);
place = (510, 14);
type = Stem;
},
{
place = (9, 15);
place = (9, 15);
type = Stem;
},
{
place = (361, 14);
place = (361, 14);
type = Stem;
},
{
place = (424, 16);
place = (424, 16);
type = Stem;
},
{
horizontal = 1;
place = (0, 13);
place = (0, 13);
type = Stem;
}
);
layerId = m01;
shapes = (
{
closed = 1;
nodes = (
(65,276,o),
(9,224,o),
(9,136,cs),
(9,49,o),
(76,-7,o),
(171,-7,cs),
(268,-7,o),
(336,43,o),
(371,108,c),
(364,77,ls),
(353,29,o),
(368,0,o),
(405,0,cs),
(413,0,o),
(421,2,o),
(424,3,c),
(427,16,l),
(426,16,ls),
(423,15,o),
(415,13,o),
(407,13,cs),
(377,13,o),
(370,35,o),
(379,77,cs),
(435,351,ls),
(458,463,o),
(396,524,o),
(275,524,cs),
(143,524,o),
(84,452,o),
(69,374,c),
(83,374,l),
(99,446,o),
(149,510,o),
(275,510,cs),
(379,510,o),
(424,466,o),
(424,395,cs),
(424,310,o),
(389,289,o),
(215,282,cs)
);
},
{
closed = 1;
nodes = (
(81,7,o),
(24,59,o),
(24,136,cs),
(24,216,o),
(72,262,o),
(216,269,cs),
(341,275,o),
(390,288,o),
(414,318,c),
(386,179,ls),
(367,83,o),
(284,7,o),
(171,7,cs)
);
}
);
width = 479;
}
);
note = a;
unicode = 97;
},
{
glyphname = b;
kernLeft = b;
kernRight = thorn;
layers = (
{
hints = (
{
horizontal = 1;
place = (-8, 14);
place = (-8, 14);
type = Stem;
},
{
horizontal = 1;
place = (510, 14);
place = (510, 14);
type = Stem;
},
{
horizontal = 1;
place = (715, -20);
target = down;
type = TopGhost;
},
{
place = (52, 13);
place = (52, 13);
type = Stem;
},
{
place = (482, 15);
place = (482, 15);
type = Stem;
},
{
horizontal = 1;
place = (0, 21);
target = up;
type = BottomGhost;
}
);
layerId = m01;
shapes = (
{
closed = 1;
nodes = (
(497,432,o),
(430,524,o),
(315,524,cs),
(204,524,o),
(131,457,o),
(90,369,c),
(157,715,l),
(142,715,l),
(4,0,l),
(19,0,l),
(52,171,l),
(61,88,o),
(117,-8,o),
(244,-8,cs),
(413,-8,o),
(497,165,o),
(497,312,cs)
);
},
{
closed = 1;
nodes = (
(482,171,o),
(402,6,o),
(244,6,cs),
(114,6,o),
(65,116,o),
(65,197,cs),
(65,330,o),
(139,510,o),
(315,510,cs),
(422,510,o),
(482,424,o),
(482,312,cs)
);
}
);
width = 522;
}
);
note = b;
unicode = 98;
},
{
glyphname = c;
kernLeft = c;
kernRight = c;
layers = (
{
hints = (
{
horizontal = 1;
place = (-7, 14);
place = (-7, 14);
type = Stem;
},
{
horizontal = 1;
place = (510, 14);
place = (510, 14);
type = Stem;
},
{
place = (23, 15);
place = (23, 15);
type = Stem;
},
{
place = (459, 14);
place = (459, 14);
type = Stem;
}
);
layerId = m01;
shapes = (
{
closed = 1;
nodes = (
(473,359,l),
(462,449,o),
(400,524,o),
(287,524,cs),
(124,524,o),
(23,368,o),
(23,211,cs),
(23,68,o),
(106,-7,o),
(229,-7,cs),
(335,-7,o),
(419,64,o),
(450,173,c),
(436,173,l),
(405,72,o),
(327,7,o),
(229,7,cs),
(115,7,o),
(38,78,o),
(38,211,cs),
(38,360,o),
(132,510,o),
(287,510,cs),
(391,510,o),
(448,443,o),
(459,359,c)
);
}
);
width = 484;
}
);
note = c;
unicode = 99;
},
{
glyphname = d;
kernLeft = d;
layers = (
{
hints = (
{
horizontal = 1;
place = (-8, 14);
place = (-8, 14);
type = Stem;
},
{
horizontal = 1;
place = (510, 14);
place = (510, 14);
type = Stem;
},
{
horizontal = 1;
place = (715, -20);
target = down;
type = TopGhost;
},
{
place = (22, 15);
place = (22, 15);
type = Stem;
},
{
place = (462, 12);
place = (462, 12);
type = Stem;
},
{
horizontal = 1;
place = (0, 21);
target = up;
type = BottomGhost;
}
);
layerId = m01;
shapes = (
{
closed = 1;
nodes = (
(22,80,o),
(99,-8,o),
(215,-8,cs),
(323,-8,o),
(397,60,o),
(436,148,c),
(408,0,l),
(423,0,l),
(561,715,l),
(546,715,l),
(474,345,l),
(464,430,o),
(409,524,o),
(290,524,cs),
(113,524,o),
(22,346,o),
(22,201,cs)
);
},
{
closed = 1;
nodes = (
(37,340,o),
(123,510,o),
(290,510,cs),
(412,510,o),
(462,400,o),
(462,319,cs),
(462,186,o),
(384,6,o),
(215,6,cs),
(106,6,o),
(37,91,o),
(37,201,cs)
);
}
);
width = 527;
}
);
note = d;
unicode = 100;
},
{
glyphname = e;
kernLeft = c;
kernRight = e;
layers = (
{
hints = (
{
horizontal = 1;
place = (-8, 14);
place = (-8, 14);
type = Stem;
},
{
horizontal = 1;
place = (259, 14);
place = (259, 14);
type = Stem;
},
{
horizontal = 1;
place = (510, 14);
place = (510, 14);
type = Stem;
},
{
place = (23, 15);
place = (23, 15);
type = Stem;
},
{
place = (457, 19);
place = (457, 19);
type = Stem;
}
);
layerId = m01;
shapes = (
{
closed = 1;
nodes = (
(472,259,l),
(492,405,o),
(427,524,o),
(281,524,cs),
(130,524,o),
(23,376,o),
(23,214,cs),
(23,76,o),
(110,-8,o),
(231,-8,cs),
(348,-8,o),
(416,65,o),
(449,151,c),
(435,151,l),
(401,70,o),
(338,6,o),
(231,6,cs),
(118,6,o),
(38,85,o),
(38,214,cs),
(38,229,o),
(39,244,o),
(41,259,c)
);
},
{
closed = 1;
nodes = (
(420,510,o),
(471,398,o),
(457,273,c),
(43,273,l),
(65,402,o),
(157,510,o),
(281,510,cs)
);
}
);
width = 495;
}
);
note = e;
unicode = 101;
},
{
glyphname = f;
kernLeft = f;
kernRight = f;
layers = (
{
hints = (
{
horizontal = 1;
place = (0, 21);
target = up;
type = BottomGhost;
},
{
horizontal = 1;
place = (503, 14);
place = (503, 14);
type = Stem;
},
{
horizontal = 1;
place = (707, 14);
place = (707, 14);
type = Stem;
},
{
place = (42, 275);
place = (42, 275);
type = Stem;
}
);
layerId = m01;
shapes = (
{
closed = 1;
nodes = (
(317,719,l),
(307,720,o),
(290,721,o),
(276,721,cs),
(216,721,o),
(179,702,o),
(163,622,cs),
(142,517,l),
(73,517,l),
(70,503,l),
(140,503,l),
(42,0,l),
(57,0,l),
(155,503,l),
(274,503,l),
(277,517,l),
(157,517,l),
(178,621,ls),
(193,696,o),
(228,707,o),
(276,707,cs),
(288,707,o),
(304,706,o),
(314,705,c)
);
}
);
width = 255;
}
);
note = f;
unicode = 102;
},
{
glyphname = g;
kernLeft = g;
kernRight = g;
layers = (
{
hints = (
{
horizontal = 1;
place = (-173, 14);
place = (-173, 14);
type = Stem;
},
{
horizontal = 1;
place = (25, 14);
place = (25, 14);
type = Stem;
},
{
horizontal = 1;
place = (517, -20);
target = down;
type = TopGhost;
},
{
place = (8, 14);
place = (8, 14);
type = Stem;
},
{
place = (454, 12);
place = (454, 12);
type = Stem;
},
{
horizontal = 1;
place = (510, 14);
place = (510, 14);
type = Stem;
},
{
place = (25, 15);
place = (25, 15);
type = Stem;
}
);
layerId = m01;
shapes = (
{
closed = 1;
nodes = (
(8,-41,l),
(12,-122,o),
(81,-173,o),
(196,-173,cs),
(334,-173,o),
(395,-86,o),
(413,4,cs),
(513,517,l),
(498,517,l),
(466,352,l),
(456,449,o),
(391,524,o),
(280,524,cs),
(110,524,o),
(25,364,o),
(25,224,cs),
(25,113,o),
(89,25,o),
(215,25,cs),
(321,25,o),
(391,89,o),
(429,165,c),
(398,6,ls),
(380,-85,o),
(322,-159,o),
(196,-159,cs),
(90,-159,o),
(29,-116,o),
(22,-41,c)
);
},
{
closed = 1;
nodes = (
(40,358,o),
(120,510,o),
(280,510,cs),
(395,510,o),
(454,425,o),
(454,320,cs),
(454,199,o),
(376,39,o),
(215,39,cs),
(99,39,o),
(40,121,o),
(40,224,cs)
);
}
);
width = 518;
}
);
note = g;
unicode = 103;
},
{
glyphname = h;
kernLeft = b;
kernRight = h;
layers = (
{
hints = (
{
horizontal = 1;
place = (0, 21);
target = up;
type = BottomGhost;
},
{
horizontal = 1;
place = (509, 14);
place = (509, 14);
type = Stem;
},
{
horizontal = 1;
place = (715, -20);
target = down;
type = TopGhost;
},
{
place = (429, 15);
place = (429, 15);
type = Stem;
}
);
layerId = m01;
shapes = (
{
closed = 1;
nodes = (
(19,0,l),
(78,304,ls),
(96,397,o),
(205,509,o),
(329,509,cs),
(417,509,o),
(439,445,o),
(425,371,cs),
(353,0,l),
(368,0,l),
(440,370,ls),
(458,463,o),
(420,523,o),
(329,523,cs),
(224,523,o),
(132,449,o),
(92,373,c),
(91,373,l),
(158,715,l),
(143,715,l),
(4,0,l)
);
}
);
width = 471;
}
);
note = h;
unicode = 104;
},
{
glyphname = i;
kernLeft = b;
layers = (
{
hints = (
{
horizontal = 1;
place = (0, 21);
target = up;
type = BottomGhost;
},
{
horizontal = 1;
place = (517, -20);
target = down;
type = TopGhost;
},
{
horizontal = 1;
place = (650, 56);
place = (650, 56);
type = Stem;
},
{
place = (4, 152);
place = (4, 152);
type = Stem;
}
);
layerId = m01;
shapes = (
{
closed = 1;
nodes = (
(119,517,l),
(104,517,l),
(4,0,l),
(19,0,l)
);
},
{
closed = 1;
nodes = (
(156,706,l),
(141,706,l),
(130,650,l),
(145,650,l)
);
}
);
width = 122;
}
);
note = i;
unicode = 105;
},
{
glyphname = j;
kernLeft = j;
kernRight = j;
layers = (
{
hints = (
{
horizontal = 1;
place = (-147, 14);
place = (-147, 14);
type = Stem;
},
{
horizontal = 1;
place = (517, -20);
target = down;
type = TopGhost;
},
{
horizontal = 1;
place = (650, 56);
place = (650, 56);
type = Stem;
},
{
place = (-104, 284);
place = (-104, 284);
type = Stem;
}
);
layerId = m01;
shapes = (
{
closed = 1;
nodes = (
(129,517,l),
(15,-66,ls),
(6,-111,o),
(-9,-133,o),
(-59,-133,cs),
(-73,-133,o),
(-89,-130,o),
(-100,-126,c),
(-101,-126,l),
(-104,-140,l),
(-92,-144,o),
(-75,-147,o),
(-59,-147,cs),
(-8,-147,o),
(18,-128,o),
(29,-72,cs),
(144,517,l)
);
},
{
closed = 1;
nodes = (
(180,706,l),
(165,706,l),
(154,650,l),
(169,650,l)
);
}
);
width = 146;
}
);
note = j;
unicode = 106;
},
{
glyphname = k;
kernLeft = b;
kernRight = k;
layers = (
{
hints = (
{
horizontal = 1;
place = (0, 21);
target = up;
type = BottomGhost;
},
{
horizontal = 1;
place = (517, -20);
target = down;
type = TopGhost;
},
{
horizontal = 1;
place = (715, -20);
target = down;
type = TopGhost;
},
{
place = (4, 438);
place = (4, 438);
type = Stem;
}
);
layerId = m01;
shapes = (
{
closed = 1;
nodes = (
(442,517,l),
(420,517,l),
(62,223,l),
(158,715,l),
(143,715,l),
(4,0,l),
(19,0,l),
(58,202,l),
(195,315,l),
(358,0,l),
(374,0,l),
(207,324,l)
);
}
);
width = 414;
}
);
note = k;
unicode = 107;
},
{
glyphname = l;
kernLeft = b;
layers = (
{
hints = (
{
horizontal = 1;
place = (0, 21);
target = up;
type = BottomGhost;
},
{
horizontal = 1;
place = (715, -20);
target = down;
type = TopGhost;
},
{
place = (7, 154);
place = (7, 154);
type = Stem;
}
);
layerId = m01;
shapes = (
{
closed = 1;
nodes = (
(161,715,l),
(146,715,l),
(7,0,l),
(22,0,l)
);
}
);
width = 130;
}
);
note = l;
unicode = 108;
},
{
glyphname = m;
kernLeft = m;
kernRight = h;
layers = (
{
hints = (
{
horizontal = 1;
place = (0, 21);
target = up;
type = BottomGhost;
},
{
horizontal = 1;
place = (509, 14);
place = (509, 14);
type = Stem;
},
{
place = (385, 16);
place = (385, 16);
type = Stem;
},
{
place = (690, 16);
place = (690, 16);
type = Stem;
},
{
horizontal = 1;
place = (517, -20);
target = down;
type = TopGhost;
}
);
layerId = m01;
shapes = (
{
closed = 1;
nodes = (
(19,0,l),
(78,305,ls),
(95,392,o),
(194,509,o),
(307,509,cs),
(386,509,o),
(393,440,o),
(380,371,cs),
(308,0,l),
(323,0,l),
(381,299,ls),
(398,385,o),
(500,509,o),
(612,509,cs),
(690,509,o),
(699,447,o),
(685,372,cs),
(613,0,l),
(628,0,l),
(700,371,ls),
(717,461,o),
(698,523,o),
(612,523,cs),
(510,523,o),
(424,427,o),
(395,366,c),
(394,366,l),
(413,457,o),
(393,523,o),
(307,523,cs),
(206,523,o),
(127,440,o),
(92,374,c),
(91,374,l),
(120,517,l),
(105,517,l),
(4,0,l)
);
}
);
width = 733;
}
);
note = m;
unicode = 109;
},
{
glyphname = n;
kernLeft = m;
kernRight = h;
layers = (
{
hints = (
{
horizontal = 1;
place = (0, 21);
target = up;
type = BottomGhost;
},
{
horizontal = 1;
place = (509, 14);
place = (509, 14);
type = Stem;
},
{
place = (429, 15);
place = (429, 15);
type = Stem;
},
{
horizontal = 1;
place = (517, -20);
target = down;
type = TopGhost;
}
);
layerId = m01;
shapes = (
{
closed = 1;
nodes = (
(19,0,l),
(78,305,ls),
(97,400,o),
(205,509,o),
(329,509,cs),
(417,509,o),
(439,445,o),
(425,371,cs),
(353,0,l),
(368,0,l),
(440,370,ls),
(458,463,o),
(420,523,o),
(329,523,cs),
(224,523,o),
(132,449,o),
(92,373,c),
(91,373,l),
(120,517,l),
(105,517,l),
(4,0,l)
);
}
);
width = 471;
}
);
note = n;
unicode = 110;
},
{
glyphname = o;
kernLeft = c;
kernRight = o;
layers = (
{
hints = (
{
horizontal = 1;
place = (-8, 14);
place = (-8, 14);
type = Stem;
},
{
horizontal = 1;
place = (510, 14);
place = (510, 14);
type = Stem;
},
{
place = (23, 15);
place = (23, 15);
type = Stem;
},
{
place = (482, 15);
place = (482, 15);
type = Stem;
}
);
layerId = m01;
shapes = (
{
closed = 1;
nodes = (
(399,-8,o),
(497,140,o),
(497,300,cs),
(497,438,o),
(406,524,o),
(287,524,cs),
(125,524,o),
(23,378,o),
(23,214,cs),
(23,73,o),
(118,-8,o),
(234,-8,cs)
);
},
{
closed = 1;
nodes = (
(127,6,o),
(38,81,o),
(38,214,cs),
(38,370,o),
(134,510,o),
(287,510,cs),
(398,510,o),
(482,430,o),
(482,300,cs),
(482,148,o),
(390,6,o),
(234,6,cs)
);
}
);
width = 520;
}
);
note = o;
unicode = 111;
},
{
glyphname = p;
kernLeft = p;
kernRight = thorn;
layers = (
{
hints = (
{
horizontal = 1;
place = (-166, 21);
target = up;
type = BottomGhost;
},
{
horizontal = 1;
place = (-8, 14);
place = (-8, 14);
type = Stem;
},
{
horizontal = 1;
place = (510, 14);
place = (510, 14);
type = Stem;
},
{
place = (52, 13);
place = (52, 13);
type = Stem;
},
{
place = (482, 15);
place = (482, 15);
type = Stem;
},
{
horizontal = 1;
place = (517, -20);
target = down;
type = TopGhost;
}
);
layerId = m01;
shapes = (
{
closed = 1;
nodes = (
(497,432,o),
(430,524,o),
(315,524,cs),
(204,524,o),
(130,456,o),
(90,369,c),
(119,517,l),
(104,517,l),
(-28,-166,l),
(-13,-166,l),
(52,171,l),
(61,88,o),
(117,-8,o),
(244,-8,cs),
(413,-8,o),
(497,165,o),
(497,312,cs)
);
},
{
closed = 1;
nodes = (
(482,171,o),
(402,6,o),
(244,6,cs),
(114,6,o),
(65,116,o),
(65,197,cs),
(65,330,o),
(139,510,o),
(315,510,cs),
(422,510,o),
(482,424,o),
(482,312,cs)
);
}
);
width = 522;
}
);
note = p;
unicode = 112;
},
{
glyphname = q;
kernLeft = d;
kernRight = q;
layers = (
{
hints = (
{
horizontal = 1;
place = (-166, 21);
target = up;
type = BottomGhost;
},
{
horizontal = 1;
place = (-8, 14);
place = (-8, 14);
type = Stem;
},
{
horizontal = 1;
place = (510, 14);
place = (510, 14);
type = Stem;
},
{
place = (22, 15);
place = (22, 15);
type = Stem;
},
{
place = (462, 12);
place = (462, 12);
type = Stem;
},
{
horizontal = 1;
place = (517, -20);
target = down;
type = TopGhost;
}
);
layerId = m01;
shapes = (
{
closed = 1;
nodes = (
(22,80,o),
(96,-8,o),
(211,-8,cs),
(320,-8,o),
(394,59,o),
(436,148,c),
(375,-166,l),
(390,-166,l),
(523,517,l),
(508,517,l),
(474,345,l),
(464,430,o),
(409,524,o),
(290,524,cs),
(113,524,o),
(22,346,o),
(22,201,cs)
);
},
{
closed = 1;
nodes = (
(37,340,o),
(123,510,o),
(290,510,cs),
(412,510,o),
(462,400,o),
(462,319,cs),
(462,186,o),
(384,6,o),
(211,6,cs),
(103,6,o),
(37,91,o),
(37,201,cs)
);
}
);
width = 527;
}
);
note = q;
unicode = 113;
},
{
glyphname = r;
kernLeft = m;
kernRight = r;
layers = (
{
hints = (
{
horizontal = 1;
place = (0, 21);
target = up;
type = BottomGhost;
},
{
horizontal = 1;
place = (518, -20);
target = down;
type = TopGhost;
},
{
place = (4, 320);
place = (4, 320);
type = Stem;
},
{
horizontal = 1;
place = (510, 14);
place = (510, 14);
type = Stem;
},
{
horizontal = 1;
place = (517, -20);
target = down;
type = TopGhost;
}
);
layerId = m01;
shapes = (
{
closed = 1;
nodes = (
(324,518,l),
(313,522,o),
(299,524,o),
(281,524,cs),
(197,524,o),
(125,443,o),
(90,366,c),
(120,517,l),
(105,517,l),
(62,297,l),
(4,0,l),
(19,0,l),
(76,295,ls),
(92,376,o),
(180,510,o),
(280,510,cs),
(300,510,o),
(312,507,o),
(320,505,cs),
(321,505,l)
);
}
);
width = 292;
}
);
note = r;
unicode = 114;
},
{
glyphname = s;
kernLeft = scaron;
kernRight = scaron;
layers = (
{
hints = (
{
horizontal = 1;
place = (-8, 14);
place = (-8, 14);
type = Stem;
},
{
horizontal = 1;
place = (510, 14);
place = (510, 14);
type = Stem;
},
{
place = (3, 15);
place = (3, 15);
type = Stem;
},
{
place = (65, 15);
place = (65, 15);
type = Stem;
},
{
place = (370, 15);
place = (370, 15);
type = Stem;
},
{
place = (393, 14);
place = (393, 14);
type = Stem;
}
);
layerId = m01;
shapes = (
{
closed = 1;
nodes = (
(3,153,l),
(5,59,o),
(83,-8,o),
(197,-8,cs),
(300,-8,o),
(385,35,o),
(385,134,cs),
(385,209,o),
(337,236,o),
(226,277,cs),
(134,311,o),
(80,335,o),
(80,402,cs),
(80,476,o),
(147,510,o),
(229,510,cs),
(324,510,o),
(385,462,o),
(393,380,c),
(407,380,l),
(400,468,o),
(332,524,o),
(229,524,cs),
(141,524,o),
(65,483,o),
(65,402,cs),
(65,325,o),
(129,297,o),
(222,263,cs),
(322,226,o),
(370,203,o),
(370,134,cs),
(370,42,o),
(292,6,o),
(197,6,cs),
(88,6,o),
(21,68,o),
(18,153,c)
);
}
);
width = 432;
}
);
note = s;
unicode = 115;
},
{
glyphname = t;
kernLeft = t;
kernRight = t;
layers = (
{
hints = (
{
horizontal = 1;
place = (-2, 14);
place = (-2, 14);
type = Stem;
},
{
horizontal = 1;
place = (503, 14);
place = (503, 14);
type = Stem;
},
{
horizontal = 1;
place = (680, -20);
target = down;
type = TopGhost;
},
{
place = (59, 16);
place = (59, 16);
type = Stem;
}
);
layerId = m01;
shapes = (
{
closed = 1;
nodes = (
(72,503,l),
(142,503,l),
(62,93,ls),
(51,36,o),
(74,-2,o),
(137,-2,cs),
(163,-2,o),
(183,3,o),
(195,9,c),
(198,23,l),
(197,23,l),
(182,17,o),
(164,12,o),
(138,12,cs),
(84,12,o),
(67,41,o),
(78,97,cs),
(157,503,l),
(283,503,l),
(286,517,l),
(159,517,l),
(191,680,l),
(176,680,l),
(144,517,l),
(75,517,l)
);
}
);
width = 270;
}
);
note = t;
unicode = 116;
},
{
glyphname = u;
kernLeft = u;
kernRight = u;
layers = (
{
hints = (
{
horizontal = 1;
place = (-6, 14);
place = (-6, 14);
type = Stem;
},
{
horizontal = 1;
place = (517, -20);
target = down;
type = TopGhost;
},
{
place = (24, 15);
place = (24, 15);
type = Stem;
},
{
horizontal = 1;
place = (0, 21);
target = up;
type = BottomGhost;
}
);
layerId = m01;
shapes = (
{
closed = 1;
nodes = (
(441,517,l),
(382,212,ls),
(363,117,o),
(255,8,o),
(135,8,cs),
(51,8,o),
(28,70,o),
(43,146,cs),
(115,517,l),
(100,517,l),
(28,147,ls),
(10,53,o),
(49,-6,o),
(135,-6,cs),
(236,-6,o),
(328,68,o),
(368,144,c),
(369,144,l),
(340,0,l),
(355,0,l),
(456,517,l)
);
}
);
width = 464;
}
);
note = u;
unicode = 117;
},
{
glyphname = v;
kernLeft = v;
kernRight = v;
layers = (
{
hints = (
{
horizontal = 1;
place = (0, 21);
target = up;
type = BottomGhost;
},
{
horizontal = 1;
place = (517, -20);
target = down;
type = TopGhost;
},
{
place = (49, 415);
place = (49, 415);
type = Stem;
}
);
layerId = m01;
shapes = (
{
closed = 1;
nodes = (
(64,517,l),
(49,517,l),
(154,0,l),
(170,0,l),
(464,517,l),
(448,517,l),
(275,213,ls),
(232,137,o),
(165,19,o),
(165,19,c),
(165,19,o),
(141,138,o),
(125,215,cs)
);
}
);
width = 419;
}
);
note = v;
unicode = 118;
},
{
glyphname = w;
kernLeft = w;
kernRight = w;
layers = (
{
hints = (
{
horizontal = 1;
place = (0, 21);
target = up;
type = BottomGhost;
},
{
horizontal = 1;
place = (493, 24);
place = (493, 24);
type = Stem;
},
{
place = (52, 689);
place = (52, 689);
type = Stem;
}
);
layerId = m01;
shapes = (
{
closed = 1;
nodes = (
(68,517,l),
(52,517,l),
(130,0,l),
(146,0,l),
(331,378,ls),
(351,419,o),
(387,493,o),
(387,493,c),
(387,493,o),
(397,427,o),
(404,381,cs),
(461,0,l),
(477,0,l),
(741,517,l),
(725,517,l),
(551,175,ls),
(514,103,o),
(473,22,o),
(473,22,c),
(473,22,o),
(461,100,o),
(450,176,cs),
(399,517,l),
(383,517,l),
(215,174,ls),
(181,104,o),
(142,25,o),
(142,25,c),
(142,25,o),
(131,101,o),
(119,179,cs)
);
}
);
width = 697;
}
);
note = w;
unicode = 119;
},
{
glyphname = x;
kernLeft = x;
kernRight = x;
layers = (
{
hints = (
{
horizontal = 1;
place = (0, 21);
target = up;
type = BottomGhost;
},
{
horizontal = 1;
place = (517, -20);
target = down;
type = TopGhost;
},
{
place = (-48, 495);
place = (-48, 495);
type = Stem;
}
);
layerId = m01;
shapes = (
{
closed = 1;
nodes = (
(-48,0,l),
(-28,0,l),
(214,264,l),
(357,0,l),
(373,0,l),
(224,274,l),
(447,517,l),
(428,517,l),
(217,288,l),
(93,517,l),
(76,517,l),
(206,277,l)
);
}
);
width = 429;
}
);
note = x;
unicode = 120;
},
{
glyphname = y;
kernLeft = yacute;
kernRight = yacute;
layers = (
{
hints = (
{
horizontal = 1;
place = (-168, 14);
place = (-168, 14);
type = Stem;
},
{
horizontal = 1;
place = (517, -20);
target = down;
type = TopGhost;
},
{
place = (-25, 501);
place = (-25, 501);
type = Stem;
},
{
horizontal = 1;
place = (-157, 21);
target = up;
type = BottomGhost;
}
);
layerId = m01;
shapes = (
{
closed = 1;
nodes = (
(476,517,l),
(460,517,l),
(256,159,ls),
(215,86,o),
(188,39,o),
(188,39,c),
(188,39,o),
(174,93,o),
(157,162,cs),
(68,517,l),
(52,517,l),
(178,20,l),
(132,-60,ls),
(87,-138,o),
(65,-154,o),
(24,-154,cs),
(6,-154,o),
(-10,-148,o),
(-20,-143,c),
(-22,-143,l),
(-25,-157,l),
(-14,-162,o),
(3,-168,o),
(24,-168,cs),
(72,-168,o),
(98,-148,o),
(145,-66,cs)
);
}
);
width = 431;
}
);
note = y;
unicode = 121;
},
{
glyphname = z;
kernLeft = zcaron;
kernRight = zcaron;
layers = (
{
hints = (
{
horizontal = 1;
place = (0, 14);
place = (0, 14);
type = Stem;
},
{
horizontal = 1;
place = (503, 14);
place = (503, 14);
type = Stem;
},
{
place = (-17, 453);
place = (-17, 453);
type = Stem;
}
);
layerId = m01;
shapes = (
{
closed = 1;
nodes = (
(-17,0,l),
(351,0,l),
(354,14,l),
(6,14,l),
(6,15,l),
(434,505,l),
(436,517,l),
(96,517,l),
(93,503,l),
(412,503,l),
(412,502,l),
(-15,13,l)
);
}
);
width = 425;
}
);
note = z;
unicode = 122;
},
{
glyphname = braceleft;
kernRight = bracketleft;
layers = (
{
hints = (
{
horizontal = 1;
place = (-118, 14);
place = (-118, 14);
type = Stem;
},
{
horizontal = 1;
place = (317, 14);
place = (317, 14);
type = Stem;
},
{
horizontal = 1;
place = (740, 14);
place = (740, 14);
type = Stem;
},
{
place = (30, 14);
place = (30, 14);
type = Stem;
}
);
layerId = m01;
shapes = (
{
closed = 1;
nodes = (
(288,754,l),
(279,754,ls),
(204,754,o),
(176,728,o),
(157,623,cs),
(115,392,ls),
(108,353,o),
(95,331,o),
(56,331,cs),
(41,331,l),
(38,317,l),
(57,317,ls),
(83,317,o),
(98,299,o),
(90,258,cs),
(36,0,ls),
(19,-80,o),
(33,-116,o),
(117,-118,c),
(120,-104,l),
(44,-104,o),
(35,-74,o),
(51,0,cs),
(105,256,ls),
(112,287,o),
(106,310,o),
(87,322,c),
(114,334,o),
(124,357,o),
(130,390,cs),
(172,616,ls),
(191,718,o),
(212,740,o),
(279,740,cs),
(285,740,l)
);
}
);
width = 221;
}
);
note = braceleft;
unicode = 123;
},
{
glyphname = bar;
layers = (
{
hints = (
{
horizontal = 1;
place = (-118, 872);
place = (-118, 872);
type = Stem;
},
{
place = (95, 15);
place = (95, 15);
type = Stem;
}
);
layerId = m01;
shapes = (
{
closed = 1;
nodes = (
(95,-118,l),
(110,-118,l),
(110,754,l),
(95,754,l)
);
}
);
width = 165;
}
);
note = bar;
unicode = 124;
},
{
glyphname = braceright;
kernLeft = bracketright;
layers = (
{
hints = (
{
horizontal = 1;
place = (-118, 14);
place = (-118, 14);
type = Stem;
},
{
horizontal = 1;
place = (305, 14);
place = (305, 14);
type = Stem;
},
{
horizontal = 1;
place = (740, 14);
place = (740, 14);
type = Stem;
},
{
place = (201, 14);
place = (201, 14);
type = Stem;
}
);
layerId = m01;
shapes = (
{
closed = 1;
nodes = (
(-43,-118,l),
(-34,-118,ls),
(41,-118,o),
(69,-91,o),
(88,13,cs),
(130,244,ls),
(137,284,o),
(150,305,o),
(189,305,cs),
(204,305,l),
(207,319,l),
(188,319,ls),
(162,319,o),
(147,337,o),
(155,378,cs),
(209,636,ls),
(226,715,o),
(212,752,o),
(128,754,c),
(125,740,l),
(201,740,o),
(210,708,o),
(194,634,cs),
(140,380,ls),
(133,349,o),
(139,326,o),
(158,314,c),
(131,302,o),
(121,279,o),
(115,246,cs),
(73,20,ls),
(54,-81,o),
(33,-104,o),
(-34,-104,cs),
(-40,-104,l)
);
}
);
width = 221;
}
);
note = braceright;
unicode = 125;
},
{
glyphname = asciitilde;
layers = (
{
hints = (
{
horizontal = 1;
place = (289, 14);
place = (289, 14);
type = Stem;
},
{
horizontal = 1;
place = (363, 14);
place = (363, 14);
type = Stem;
},
{
place = (40, 15);
place = (40, 15);
type = Stem;
},
{
place = (347, 15);
place = (347, 15);
type = Stem;
}
);
layerId = m01;
shapes = (
{
closed = 1;
nodes = (
(227,305,o),
(246,289,o),
(283,289,cs),
(330,289,o),
(357,324,o),
(362,372,c),
(347,372,l),
(342,329,o),
(320,303,o),
(285,303,cs),
(252,303,o),
(234,318,o),
(207,338,cs),
(175,361,o),
(156,377,o),
(119,377,cs),
(72,377,o),
(45,342,o),
(40,294,c),
(55,294,l),
(60,337,o),
(82,363,o),
(117,363,cs),
(150,363,o),
(168,348,o),
(195,328,cs)
);
}
);
width = 380;
}
);
note = asciitilde;
unicode = 126;
},
{
glyphname = Adieresis;
kernLeft = A;
kernRight = A;
layers = (
{
hints = (
{
horizontal = 1;
place = (0, 21);
target = up;
type = BottomGhost;
},
{
horizontal = 1;
place = (256, 14);
place = (256, 14);
type = Stem;
},
{
horizontal = 1;
place = (695, 20);
place = (695, 20);
type = Stem;
},
{
horizontal = 1;
place = (782, 54);
place = (782, 54);
type = Stem;
},
{
place = (-39, 565);
place = (-39, 565);
type = Stem;
}
);
layerId = m01;
shapes = (
{
closed = 1;
nodes = (
(512,0,l),
(526,0,l),
(374,715,l),
(360,715,l),
(-39,0,l),
(-24,0,l),
(119,256,l),
(457,256,l)
);
},
{
closed = 1;
nodes = (
(306,591,ls),
(330,634,o),
(364,695,o),
(364,695,c),
(364,695,o),
(380,621,o),
(386,593,cs),
(454,270,l),
(127,270,l)
);
},
{
closed = 1;
nodes = (
(317,836,l),
(302,836,l),
(291,782,l),
(306,782,l)
);
},
{
closed = 1;
nodes = (
(462,836,l),
(447,836,l),
(436,782,l),
(451,782,l)
);
}
);
width = 586;
}
);
note = Adieresis;
unicode = 196;
},
{
glyphname = Aring;
kernLeft = A;
kernRight = A;
layers = (
{
hints = (
{
horizontal = 1;
place = (0, 21);
target = up;
type = BottomGhost;
},
{
horizontal = 1;
place = (256, 14);
place = (256, 14);
type = Stem;
},
{
horizontal = 1;
place = (695, 20);
place = (695, 20);
type = Stem;
},
{
horizontal = 1;
place = (754, 13);
place = (754, 13);
type = Stem;
},
{
horizontal = 1;
place = (896, 13);
place = (896, 13);
type = Stem;
},
{
place = (301, 14);
place = (301, 14);
type = Stem;
},
{
place = (440, 14);
place = (440, 14);
type = Stem;
}
);
layerId = m01;
shapes = (
{
closed = 1;
nodes = (
(512,0,l),
(526,0,l),
(374,715,l),
(360,715,l),
(-39,0,l),
(-24,0,l),
(119,256,l),
(457,256,l)
);
},
{
closed = 1;
nodes = (
(306,591,ls),
(330,634,o),
(364,695,o),
(364,695,c),
(364,695,o),
(380,621,o),
(386,593,cs),
(454,270,l),
(127,270,l)
);
},
{
closed = 1;
nodes = (
(423,754,o),
(454,785,o),
(454,832,cs),
(454,878,o),
(423,909,o),
(378,909,cs),
(333,909,o),
(301,878,o),
(301,832,cs),
(301,785,o),
(333,754,o),
(378,754,cs)
);
},
{
closed = 1;
nodes = (
(340,767,o),
(315,794,o),
(315,832,cs),
(315,870,o),
(340,896,o),
(378,896,cs),
(416,896,o),
(440,870,o),
(440,832,cs),
(440,794,o),
(416,767,o),
(378,767,cs)
);
}
);
width = 586;
}
);
note = Aring;
unicode = 197;
},
{
glyphname = Ccedilla;
kernLeft = C;
kernRight = C;
layers = (
{
hints = (
{
horizontal = 1;
place = (-187, 14);
place = (-187, 14);
type = Stem;
},
{
horizontal = 1;
place = (-69, 14);
place = (-69, 14);
type = Stem;
},
{
horizontal = 1;
place = (-7, 14);
place = (-7, 14);
type = Stem;
},
{
horizontal = 1;
place = (708, 14);
place = (708, 14);
type = Stem;
},
{
place = (50, 15);
place = (50, 15);
type = Stem;
},
{
place = (360, 15);
place = (360, 15);
type = Stem;
},
{
horizontal = 1;
place = (-6, 13);
place = (-6, 13);
type = Stem;
},
{
horizontal = 1;
place = (-158, 21);
target = up;
type = BottomGhost;
}
);
layerId = m01;
shapes = (
{
closed = 1;
nodes = (
(660,516,l),
(644,641,o),
(555,722,o),
(413,722,cs),
(183,722,o),
(50,510,o),
(50,304,cs),
(50,129,o),
(140,2,o),
(318,-6,c),
(240,-70,l),
(246,-81,l),
(260,-75,o),
(282,-69,o),
(304,-69,cs),
(341,-69,o),
(360,-88,o),
(360,-117,cs),
(360,-163,o),
(312,-173,o),
(272,-173,cs),
(239,-173,o),
(207,-162,o),
(186,-146,c),
(178,-158,l),
(201,-176,o),
(241,-187,o),
(272,-187,cs),
(314,-187,o),
(375,-175,o),
(375,-117,cs),
(375,-81,o),
(351,-55,o),
(304,-55,cs),
(292,-55,o),
(281,-57,o),
(272,-60,c),
(337,-7,l),
(503,-7,o),
(605,113,o),
(636,249,c),
(621,249,l),
(591,120,o),
(496,7,o),
(338,7,cs),
(157,7,o),
(65,131,o),
(65,304,cs),
(65,504,o),
(191,708,o),
(413,708,cs),
(555,708,o),
(628,631,o),
(645,516,c)
);
}
);
width = 660;
}
);
note = Ccedilla;
unicode = 199;
},
{
glyphname = Eacute;
kernRight = E;
layers = (
{
hints = (
{
horizontal = 1;
place = (0, 14);
place = (0, 14);
type = Stem;
},
{
horizontal = 1;
place = (364, 14);
place = (364, 14);
type = Stem;
},
{
horizontal = 1;
place = (701, 14);
place = (701, 14);
type = Stem;
},
{
place = (16, 566);
place = (16, 566);
type = Stem;
}
);
layerId = m01;
shapes = (
{
closed = 1;
nodes = (
(16,0,l),
(466,0,l),
(469,14,l),
(34,14,l),
(101,364,l),
(481,364,l),
(484,378,l),
(104,378,l),
(166,701,l),
(579,701,l),
(582,715,l),
(153,715,l)
);
},
{
closed = 1;
nodes = (
(380,756,l),
(445,871,l),
(429,871,l),
(364,756,l)
);
}
);
width = 553;
}
);
note = Eacute;
unicode = 201;
},
{
glyphname = Ntilde;
layers = (
{
hints = (
{
horizontal = 1;
place = (0, 25);
place = (0, 25);
type = Stem;
},
{
horizontal = 1;
place = (692, 23);
place = (692, 23);
type = Stem;
},
{
horizontal = 1;
place = (770, 14);
place = (770, 14);
type = Stem;
},
{
horizontal = 1;
place = (830, 14);
place = (830, 14);
type = Stem;
},
{
place = (293, 14);
place = (293, 14);
type = Stem;
},
{
place = (553, 14);
place = (553, 14);
type = Stem;
}
);
layerId = m01;
shapes = (
{
closed = 1;
nodes = (
(671,715,l),
(656,715,l),
(522,25,l),
(519,31,o),
(489,88,o),
(465,137,cs),
(171,715,l),
(154,715,l),
(16,0,l),
(31,0,l),
(165,692,l),
(165,692,o),
(207,610,o),
(231,563,cs),
(517,0,l),
(532,0,l)
);
},
{
closed = 1;
nodes = (
(325,844,o),
(298,814,o),
(293,769,c),
(307,769,l),
(313,811,o),
(333,830,o),
(359,830,cs),
(410,830,o),
(444,770,o),
(502,770,cs),
(536,770,o),
(560,796,o),
(567,845,c),
(553,845,l),
(547,803,o),
(528,784,o),
(502,784,cs),
(449,784,o),
(419,844,o),
(360,844,cs)
);
}
);
width = 649;
}
);
note = Ntilde;
unicode = 209;
},
{
glyphname = Odieresis;
kernLeft = C;
kernRight = O;
layers = (
{
hints = (
{
horizontal = 1;
place = (-8, 14);
place = (-8, 14);
type = Stem;
},
{
horizontal = 1;
place = (709, 14);
place = (709, 14);
type = Stem;
},
{
horizontal = 1;
place = (782, 54);
place = (782, 54);
type = Stem;
},
{
place = (50, 15);
place = (50, 15);
type = Stem;
},
{
place = (704, 15);
place = (704, 15);
type = Stem;
}
);
layerId = m01;
shapes = (
{
closed = 1;
nodes = (
(579,-8,o),
(719,175,o),
(719,400,cs),
(719,606,o),
(583,723,o),
(412,723,cs),
(199,723,o),
(50,536,o),
(50,314,cs),
(50,109,o),
(189,-8,o),
(360,-8,cs)
);
},
{
closed = 1;
nodes = (
(197,6,o),
(65,117,o),
(65,314,cs),
(65,528,o),
(207,709,o),
(412,709,cs),
(575,709,o),
(704,598,o),
(704,400,cs),
(704,183,o),
(571,6,o),
(360,6,cs)
);
},
{
closed = 1;
nodes = (
(384,836,l),
(369,836,l),
(358,782,l),
(373,782,l)
);
},
{
closed = 1;
nodes = (
(529,836,l),
(514,836,l),
(503,782,l),
(518,782,l)
);
}
);
width = 732;
}
);
note = Odieresis;
unicode = 214;
},
{
glyphname = Udieresis;
kernLeft = U;
kernRight = U;
layers = (
{
hints = (
{
horizontal = 1;
place = (-7, 14);
place = (-7, 14);
type = Stem;
},
{
horizontal = 1;
place = (715, -20);
target = down;
type = TopGhost;
},
{
horizontal = 1;
place = (782, 54);
place = (782, 54);
type = Stem;
},
{
place = (46, 16);
place = (46, 16);
type = Stem;
}
);
layerId = m01;
shapes = (
{
closed = 1;
nodes = (
(142,715,l),
(53,260,ls),
(19,86,o),
(120,-7,o),
(288,-7,cs),
(430,-7,o),
(530,72,o),
(557,209,cs),
(657,715,l),
(642,715,l),
(542,211,ls),
(516,81,o),
(423,7,o),
(288,7,cs),
(117,7,o),
(38,104,o),
(68,258,cs),
(157,715,l)
);
},
{
closed = 1;
nodes = (
(357,836,l),
(342,836,l),
(331,782,l),
(346,782,l)
);
},
{
closed = 1;
nodes = (
(502,836,l),
(487,836,l),
(476,782,l),
(491,782,l)
);
}
);
width = 623;
}
);
note = Udieresis;
unicode = 220;
},
{
glyphname = aacute;
kernLeft = a;
kernRight = a;
layers = (
{
hints = (
{
horizontal = 1;
place = (-7, 14);
place = (-7, 14);
type = Stem;
},
{
horizontal = 1;
place = (510, 14);
place = (510, 14);
type = Stem;
},
{
place = (9, 15);
place = (9, 15);
type = Stem;
},
{
place = (361, 14);
place = (361, 14);
type = Stem;
},
{
place = (424, 16);
place = (424, 16);
type = Stem;
},
{
horizontal = 1;
place = (0, 13);
place = (0, 13);
type = Stem;
}
);
layerId = m01;
shapes = (
{
closed = 1;
nodes = (
(65,276,o),
(9,224,o),
(9,136,cs),
(9,49,o),
(76,-7,o),
(171,-7,cs),
(268,-7,o),
(336,43,o),
(371,108,c),
(364,77,ls),
(353,29,o),
(368,0,o),
(405,0,cs),
(413,0,o),
(421,2,o),
(424,3,c),
(427,16,l),
(426,16,ls),
(423,15,o),
(415,13,o),
(407,13,cs),
(377,13,o),
(370,35,o),
(379,77,cs),
(435,351,ls),
(458,463,o),
(396,524,o),
(275,524,cs),
(143,524,o),
(84,452,o),
(69,374,c),
(83,374,l),
(99,446,o),
(149,510,o),
(275,510,cs),
(379,510,o),
(424,466,o),
(424,395,cs),
(424,310,o),
(389,289,o),
(215,282,cs)
);
},
{
closed = 1;
nodes = (
(81,7,o),
(24,59,o),
(24,136,cs),
(24,216,o),
(72,262,o),
(216,269,cs),
(341,275,o),
(390,288,o),
(414,318,c),
(386,179,ls),
(367,83,o),
(284,7,o),
(171,7,cs)
);
},
{
closed = 1;
nodes = (
(295,598,l),
(366,725,l),
(350,725,l),
(279,598,l)
);
}
);
width = 479;
}
);
note = aacute;
unicode = 225;
},
{
glyphname = agrave;
kernLeft = a;
kernRight = a;
layers = (
{
hints = (
{
horizontal = 1;
place = (-7, 14);
place = (-7, 14);
type = Stem;
},
{
horizontal = 1;
place = (510, 14);
place = (510, 14);
type = Stem;
},
{
place = (9, 15);
place = (9, 15);
type = Stem;
},
{
place = (361, 14);
place = (361, 14);
type = Stem;
},
{
place = (424, 16);
place = (424, 16);
type = Stem;
},
{
horizontal = 1;
place = (0, 13);
place = (0, 13);
type = Stem;
}
);
layerId = m01;
shapes = (
{
closed = 1;
nodes = (
(65,276,o),
(9,224,o),
(9,136,cs),
(9,49,o),
(76,-7,o),
(171,-7,cs),
(268,-7,o),
(336,43,o),
(371,108,c),
(364,77,ls),
(353,29,o),
(368,0,o),
(405,0,cs),
(413,0,o),
(421,2,o),
(424,3,c),
(427,16,l),
(426,16,ls),
(423,15,o),
(415,13,o),
(407,13,cs),
(377,13,o),
(370,35,o),
(379,77,cs),
(435,351,ls),
(458,463,o),
(396,524,o),
(275,524,cs),
(143,524,o),
(84,452,o),
(69,374,c),
(83,374,l),
(99,446,o),
(149,510,o),
(275,510,cs),
(379,510,o),
(424,466,o),
(424,395,cs),
(424,310,o),
(389,289,o),
(215,282,cs)
);
},
{
closed = 1;
nodes = (
(81,7,o),
(24,59,o),
(24,136,cs),
(24,216,o),
(72,262,o),
(216,269,cs),
(341,275,o),
(390,288,o),
(414,318,c),
(386,179,ls),
(367,83,o),
(284,7,o),
(171,7,cs)
);
},
{
closed = 1;
nodes = (
(238,725,l),
(286,598,l),
(302,598,l),
(254,725,l)
);
}
);
width = 479;
}
);
note = agrave;
unicode = 224;
},
{
glyphname = acircumflex;
kernLeft = a;
kernRight = a;
layers = (
{
hints = (
{
horizontal = 1;
place = (-7, 14);
place = (-7, 14);
type = Stem;
},
{
horizontal = 1;
place = (510, 14);
place = (510, 14);
type = Stem;
},
{
place = (9, 15);
place = (9, 15);
type = Stem;
},
{
place = (361, 14);
place = (361, 14);
type = Stem;
},
{
place = (424, 16);
place = (424, 16);
type = Stem;
},
{
horizontal = 1;
place = (0, 13);
place = (0, 13);
type = Stem;
},
{
horizontal = 1;
place = (696, 12);
place = (696, 12);
type = Stem;
}
);
layerId = m01;
shapes = (
{
closed = 1;
nodes = (
(65,276,o),
(9,224,o),
(9,136,cs),
(9,49,o),
(76,-7,o),
(171,-7,cs),
(268,-7,o),
(336,43,o),
(371,108,c),
(364,77,ls),
(353,29,o),
(368,0,o),
(405,0,cs),
(413,0,o),
(421,2,o),
(424,3,c),
(427,16,l),
(426,16,ls),
(423,15,o),
(415,13,o),
(407,13,cs),
(377,13,o),
(370,35,o),
(379,77,cs),
(435,351,ls),
(458,463,o),
(396,524,o),
(275,524,cs),
(143,524,o),
(84,452,o),
(69,374,c),
(83,374,l),
(99,446,o),
(149,510,o),
(275,510,cs),
(379,510,o),
(424,466,o),
(424,395,cs),
(424,310,o),
(389,289,o),
(215,282,cs)
);
},
{
closed = 1;
nodes = (
(81,7,o),
(24,59,o),
(24,136,cs),
(24,216,o),
(72,262,o),
(216,269,cs),
(341,275,o),
(390,288,o),
(414,318,c),
(386,179,ls),
(367,83,o),
(284,7,o),
(171,7,cs)
);
},
{
closed = 1;
nodes = (
(317,708,l),
(301,708,l),
(193,604,l),
(212,604,l),
(309,696,l),
(381,604,l),
(397,604,l)
);
}
);
width = 479;
}
);
note = acircumflex;
unicode = 226;
},
{
glyphname = adieresis;
kernLeft = a;
kernRight = a;
layers = (
{
hints = (
{
horizontal = 1;
place = (-7, 14);
place = (-7, 14);
type = Stem;
},
{
horizontal = 1;
place = (510, 14);
place = (510, 14);
type = Stem;
},
{
place = (9, 15);
place = (9, 15);
type = Stem;
},
{
place = (361, 14);
place = (361, 14);
type = Stem;
},
{
place = (424, 16);
place = (424, 16);
type = Stem;
},
{
horizontal = 1;
place = (0, 13);
place = (0, 13);
type = Stem;
},
{
horizontal = 1;
place = (651, 54);
place = (651, 54);
type = Stem;
}
);
layerId = m01;
shapes = (
{
closed = 1;
nodes = (
(65,276,o),
(9,224,o),
(9,136,cs),
(9,49,o),
(76,-7,o),
(171,-7,cs),
(268,-7,o),
(336,43,o),
(371,108,c),
(364,77,ls),
(353,29,o),
(368,0,o),
(405,0,cs),
(413,0,o),
(421,2,o),
(424,3,c),
(427,16,l),
(426,16,ls),
(423,15,o),
(415,13,o),
(407,13,cs),
(377,13,o),
(370,35,o),
(379,77,cs),
(435,351,ls),
(458,463,o),
(396,524,o),
(275,524,cs),
(143,524,o),
(84,452,o),
(69,374,c),
(83,374,l),
(99,446,o),
(149,510,o),
(275,510,cs),
(379,510,o),
(424,466,o),
(424,395,cs),
(424,310,o),
(389,289,o),
(215,282,cs)
);
},
{
closed = 1;
nodes = (
(81,7,o),
(24,59,o),
(24,136,cs),
(24,216,o),
(72,262,o),
(216,269,cs),
(341,275,o),
(390,288,o),
(414,318,c),
(386,179,ls),
(367,83,o),
(284,7,o),
(171,7,cs)
);
},
{
closed = 1;
nodes = (
(231,705,l),
(216,705,l),
(205,651,l),
(220,651,l)
);
},
{
closed = 1;
nodes = (
(376,705,l),
(361,705,l),
(350,651,l),
(365,651,l)
);
}
);
width = 479;
}
);
note = adieresis;
unicode = 228;
},
{
glyphname = atilde;
kernLeft = a;
kernRight = a;
layers = (
{
hints = (
{
horizontal = 1;
place = (-7, 14);
place = (-7, 14);
type = Stem;
},
{
horizontal = 1;
place = (510, 14);
place = (510, 14);
type = Stem;
},
{
horizontal = 1;
place = (612, 14);
place = (612, 14);
type = Stem;
},
{
horizontal = 1;
place = (672, 14);
place = (672, 14);
type = Stem;
},
{
place = (9, 15);
place = (9, 15);
type = Stem;
},
{
place = (170, 14);
place = (170, 14);
type = Stem;
},
{
place = (361, 14);
place = (361, 14);
type = Stem;
},
{
place = (424, 16);
place = (424, 16);
type = Stem;
},
{
horizontal = 1;
place = (0, 13);
place = (0, 13);
type = Stem;
},
{
place = (430, 14);
place = (430, 14);
type = Stem;
}
);
layerId = m01;
shapes = (
{
closed = 1;
nodes = (
(65,276,o),
(9,224,o),
(9,136,cs),
(9,49,o),
(76,-7,o),
(171,-7,cs),
(268,-7,o),
(336,43,o),
(371,108,c),
(364,77,ls),
(353,29,o),
(368,0,o),
(405,0,cs),
(413,0,o),
(421,2,o),
(424,3,c),
(427,16,l),
(426,16,ls),
(423,15,o),
(415,13,o),
(407,13,cs),
(377,13,o),
(370,35,o),
(379,77,cs),
(435,351,ls),
(458,463,o),
(396,524,o),
(275,524,cs),
(143,524,o),
(84,452,o),
(69,374,c),
(83,374,l),
(99,446,o),
(149,510,o),
(275,510,cs),
(379,510,o),
(424,466,o),
(424,395,cs),
(424,310,o),
(389,289,o),
(215,282,cs)
);
},
{
closed = 1;
nodes = (
(81,7,o),
(24,59,o),
(24,136,cs),
(24,216,o),
(72,262,o),
(216,269,cs),
(341,275,o),
(390,288,o),
(414,318,c),
(386,179,ls),
(367,83,o),
(284,7,o),
(171,7,cs)
);
},
{
closed = 1;
nodes = (
(202,686,o),
(175,656,o),
(170,611,c),
(184,611,l),
(190,653,o),
(210,672,o),
(236,672,cs),
(287,672,o),
(321,612,o),
(379,612,cs),
(413,612,o),
(437,638,o),
(444,687,c),
(430,687,l),
(424,645,o),
(405,626,o),
(379,626,cs),
(326,626,o),
(296,686,o),
(237,686,cs)
);
}
);
width = 479;
}
);
note = atilde;
unicode = 227;
},
{
glyphname = aring;
kernLeft = a;
kernRight = a;
layers = (
{
hints = (
{
horizontal = 1;
place = (-7, 14);
place = (-7, 14);
type = Stem;
},
{
horizontal = 1;
place = (510, 14);
place = (510, 14);
type = Stem;
},
{
horizontal = 1;
place = (567, 13);
place = (567, 13);
type = Stem;
},
{
horizontal = 1;
place = (707, 13);
place = (707, 13);
type = Stem;
},
{
place = (9, 15);
place = (9, 15);
type = Stem;
},
{
place = (232, 14);
place = (232, 14);
type = Stem;
},
{
place = (361, 14);
place = (361, 14);
type = Stem;
},
{
place = (424, 16);
place = (424, 16);
type = Stem;
},
{
horizontal = 1;
place = (0, 13);
place = (0, 13);
type = Stem;
},
{
place = (370, 14);
place = (370, 14);
type = Stem;
}
);
layerId = m01;
shapes = (
{
closed = 1;
nodes = (
(65,276,o),
(9,224,o),
(9,136,cs),
(9,49,o),
(76,-7,o),
(171,-7,cs),
(268,-7,o),
(336,43,o),
(371,108,c),
(364,77,ls),
(353,29,o),
(368,0,o),
(405,0,cs),
(413,0,o),
(421,2,o),
(424,3,c),
(427,16,l),
(426,16,ls),
(423,15,o),
(415,13,o),
(407,13,cs),
(377,13,o),
(370,35,o),
(379,77,cs),
(435,351,ls),
(458,463,o),
(396,524,o),
(275,524,cs),
(143,524,o),
(84,452,o),
(69,374,c),
(83,374,l),
(99,446,o),
(149,510,o),
(275,510,cs),
(379,510,o),
(424,466,o),
(424,395,cs),
(424,310,o),
(389,289,o),
(215,282,cs)
);
},
{
closed = 1;
nodes = (
(81,7,o),
(24,59,o),
(24,136,cs),
(24,216,o),
(72,262,o),
(216,269,cs),
(341,275,o),
(390,288,o),
(414,318,c),
(386,179,ls),
(367,83,o),
(284,7,o),
(171,7,cs)
);
},
{
closed = 1;
nodes = (
(353,567,o),
(384,598,o),
(384,644,cs),
(384,689,o),
(353,720,o),
(308,720,cs),
(263,720,o),
(232,689,o),
(232,644,cs),
(232,598,o),
(263,567,o),
(308,567,cs)
);
},
{
closed = 1;
nodes = (
(270,580,o),
(246,607,o),
(246,644,cs),
(246,681,o),
(270,707,o),
(308,707,cs),
(346,707,o),
(370,681,o),
(370,644,cs),
(370,607,o),
(346,580,o),
(308,580,cs)
);
}
);
width = 479;
}
);
note = aring;
unicode = 229;
},
{
glyphname = ccedilla;
kernLeft = c;
kernRight = c;
layers = (
{
hints = (
{
horizontal = 1;
place = (-187, 14);
place = (-187, 14);
type = Stem;
},
{
horizontal = 1;
place = (-69, 14);
place = (-69, 14);
type = Stem;
},
{
horizontal = 1;
place = (-7, 14);
place = (-7, 14);
type = Stem;
},
{
horizontal = 1;
place = (510, 14);
place = (510, 14);
type = Stem;
},
{
place = (23, 15);
place = (23, 15);
type = Stem;
},
{
place = (267, 15);
place = (267, 15);
type = Stem;
},
{
place = (459, 14);
place = (459, 14);
type = Stem;
},
{
horizontal = 1;
place = (-158, 21);
target = up;
type = BottomGhost;
}
);
layerId = m01;
shapes = (
{
closed = 1;
nodes = (
(473,359,l),
(462,449,o),
(400,524,o),
(287,524,cs),
(124,524,o),
(23,368,o),
(23,211,cs),
(23,70,o),
(104,-5,o),
(224,-7,c),
(147,-70,l),
(153,-81,l),
(167,-75,o),
(189,-69,o),
(211,-69,cs),
(248,-69,o),
(267,-88,o),
(267,-117,cs),
(267,-163,o),
(219,-173,o),
(179,-173,cs),
(146,-173,o),
(114,-162,o),
(93,-146,c),
(85,-158,l),
(108,-176,o),
(148,-187,o),
(179,-187,cs),
(221,-187,o),
(282,-175,o),
(282,-117,cs),
(282,-81,o),
(258,-55,o),
(211,-55,cs),
(199,-55,o),
(188,-57,o),
(179,-60,c),
(244,-7,l),
(343,0,o),
(420,69,o),
(450,173,c),
(436,173,l),
(405,72,o),
(327,7,o),
(229,7,cs),
(115,7,o),
(38,78,o),
(38,211,cs),
(38,360,o),
(132,510,o),
(287,510,cs),
(391,510,o),
(448,443,o),
(459,359,c)
);
}
);
width = 484;
}
);
note = ccedilla;
unicode = 231;
},
{
glyphname = eacute;
kernLeft = c;
kernRight = e;
layers = (
{
hints = (
{
horizontal = 1;
place = (-8, 14);
place = (-8, 14);
type = Stem;
},
{
horizontal = 1;
place = (259, 14);
place = (259, 14);
type = Stem;
},
{
horizontal = 1;
place = (510, 14);
place = (510, 14);
type = Stem;
},
{
place = (23, 15);
place = (23, 15);
type = Stem;
},
{
place = (457, 19);
place = (457, 19);
type = Stem;
}
);
layerId = m01;
shapes = (
{
closed = 1;
nodes = (
(472,259,l),
(492,405,o),
(427,524,o),
(281,524,cs),
(130,524,o),
(23,376,o),
(23,214,cs),
(23,76,o),
(110,-8,o),
(231,-8,cs),
(348,-8,o),
(416,65,o),
(449,151,c),
(435,151,l),
(401,70,o),
(338,6,o),
(231,6,cs),
(118,6,o),
(38,85,o),
(38,214,cs),
(38,229,o),
(39,244,o),
(41,259,c)
);
},
{
closed = 1;
nodes = (
(420,510,o),
(471,398,o),
(457,273,c),
(43,273,l),
(65,402,o),
(157,510,o),
(281,510,cs)
);
},
{
closed = 1;
nodes = (
(297,598,l),
(368,725,l),
(352,725,l),
(281,598,l)
);
}
);
width = 495;
}
);
note = eacute;
unicode = 233;
},
{
glyphname = egrave;
kernLeft = c;
kernRight = e;
layers = (
{
hints = (
{
horizontal = 1;
place = (-8, 14);
place = (-8, 14);
type = Stem;
},
{
horizontal = 1;
place = (259, 14);
place = (259, 14);
type = Stem;
},
{
horizontal = 1;
place = (510, 14);
place = (510, 14);
type = Stem;
},
{
place = (23, 15);
place = (23, 15);
type = Stem;
},
{
place = (457, 19);
place = (457, 19);
type = Stem;
}
);
layerId = m01;
shapes = (
{
closed = 1;
nodes = (
(472,259,l),
(492,405,o),
(427,524,o),
(281,524,cs),
(130,524,o),
(23,376,o),
(23,214,cs),
(23,76,o),
(110,-8,o),
(231,-8,cs),
(348,-8,o),
(416,65,o),
(449,151,c),
(435,151,l),
(401,70,o),
(338,6,o),
(231,6,cs),
(118,6,o),
(38,85,o),
(38,214,cs),
(38,229,o),
(39,244,o),
(41,259,c)
);
},
{
closed = 1;
nodes = (
(420,510,o),
(471,398,o),
(457,273,c),
(43,273,l),
(65,402,o),
(157,510,o),
(281,510,cs)
);
},
{
closed = 1;
nodes = (
(240,725,l),
(288,598,l),
(304,598,l),
(256,725,l)
);
}
);
width = 495;
}
);
note = egrave;
unicode = 232;
},
{
glyphname = ecircumflex;
kernLeft = c;
kernRight = e;
layers = (
{
hints = (
{
horizontal = 1;
place = (-8, 14);
place = (-8, 14);
type = Stem;
},
{
horizontal = 1;
place = (259, 14);
place = (259, 14);
type = Stem;
},
{
horizontal = 1;
place = (510, 14);
place = (510, 14);
type = Stem;
},
{
horizontal = 1;
place = (696, 12);
place = (696, 12);
type = Stem;
},
{
place = (23, 15);
place = (23, 15);
type = Stem;
},
{
place = (457, 19);
place = (457, 19);
type = Stem;
}
);
layerId = m01;
shapes = (
{
closed = 1;
nodes = (
(472,259,l),
(492,405,o),
(427,524,o),
(281,524,cs),
(130,524,o),
(23,376,o),
(23,214,cs),
(23,76,o),
(110,-8,o),
(231,-8,cs),
(348,-8,o),
(416,65,o),
(449,151,c),
(435,151,l),
(401,70,o),
(338,6,o),
(231,6,cs),
(118,6,o),
(38,85,o),
(38,214,cs),
(38,229,o),
(39,244,o),
(41,259,c)
);
},
{
closed = 1;
nodes = (
(420,510,o),
(471,398,o),
(457,273,c),
(43,273,l),
(65,402,o),
(157,510,o),
(281,510,cs)
);
},
{
closed = 1;
nodes = (
(319,708,l),
(303,708,l),
(195,604,l),
(214,604,l),
(311,696,l),
(383,604,l),
(399,604,l)
);
}
);
width = 495;
}
);
note = ecircumflex;
unicode = 234;
},
{
glyphname = edieresis;
kernLeft = c;
kernRight = e;
layers = (
{
hints = (
{
horizontal = 1;
place = (-8, 14);
place = (-8, 14);
type = Stem;
},
{
horizontal = 1;
place = (259, 14);
place = (259, 14);
type = Stem;
},
{
horizontal = 1;
place = (510, 14);
place = (510, 14);
type = Stem;
},
{
horizontal = 1;
place = (651, 54);
place = (651, 54);
type = Stem;
},
{
place = (23, 15);
place = (23, 15);
type = Stem;
},
{
place = (457, 19);
place = (457, 19);
type = Stem;
}
);
layerId = m01;
shapes = (
{
closed = 1;
nodes = (
(472,259,l),
(492,405,o),
(427,524,o),
(281,524,cs),
(130,524,o),
(23,376,o),
(23,214,cs),
(23,76,o),
(110,-8,o),
(231,-8,cs),
(348,-8,o),
(416,65,o),
(449,151,c),
(435,151,l),
(401,70,o),
(338,6,o),
(231,6,cs),
(118,6,o),
(38,85,o),
(38,214,cs),
(38,229,o),
(39,244,o),
(41,259,c)
);
},
{
closed = 1;
nodes = (
(420,510,o),
(471,398,o),
(457,273,c),
(43,273,l),
(65,402,o),
(157,510,o),
(281,510,cs)
);
},
{
closed = 1;
nodes = (
(258,705,l),
(243,705,l),
(232,651,l),
(247,651,l)
);
},
{
closed = 1;
nodes = (
(403,705,l),
(388,705,l),
(377,651,l),
(392,651,l)
);
}
);
width = 495;
}
);
note = edieresis;
unicode = 235;
},
{
glyphname = iacute;
kernLeft = b;
layers = (
{
hints = (
{
horizontal = 1;
place = (0, 21);
target = up;
type = BottomGhost;
},
{
horizontal = 1;
place = (517, -20);
target = down;
type = TopGhost;
},
{
place = (4, 204);
place = (4, 204);
type = Stem;
}
);
layerId = m01;
shapes = (
{
closed = 1;
nodes = (
(137,598,l),
(208,725,l),
(192,725,l),
(121,598,l)
);
},
{
closed = 1;
nodes = (
(119,517,l),
(104,517,l),
(4,0,l),
(19,0,l)
);
}
);
width = 122;
}
);
note = iacute;
unicode = 237;
},
{
glyphname = igrave;
kernLeft = b;
layers = (
{
hints = (
{
horizontal = 1;
place = (0, 21);
target = up;
type = BottomGhost;
},
{
horizontal = 1;
place = (517, -20);
target = down;
type = TopGhost;
},
{
place = (4, 119);
place = (4, 119);
type = Stem;
}
);
layerId = m01;
shapes = (
{
closed = 1;
nodes = (
(63,725,l),
(107,598,l),
(123,598,l),
(79,725,l)
);
},
{
closed = 1;
nodes = (
(119,517,l),
(104,517,l),
(4,0,l),
(19,0,l)
);
}
);
width = 122;
}
);
note = igrave;
unicode = 236;
},
{
glyphname = icircumflex;
kernLeft = b;
layers = (
{
hints = (
{
horizontal = 1;
place = (0, 21);
target = up;
type = BottomGhost;
},
{
horizontal = 1;
place = (517, -20);
target = down;
type = TopGhost;
},
{
horizontal = 1;
place = (697, 11);
place = (697, 11);
type = Stem;
},
{
place = (4, 213);
place = (4, 213);
type = Stem;
}
);
layerId = m01;
shapes = (
{
closed = 1;
nodes = (
(151,708,l),
(134,708,l),
(37,604,l),
(54,604,l),
(142,697,l),
(202,604,l),
(217,604,l)
);
},
{
closed = 1;
nodes = (
(119,517,l),
(104,517,l),
(4,0,l),
(19,0,l)
);
}
);
width = 122;
}
);
note = icircumflex;
unicode = 238;
},
{
glyphname = idieresis;
kernLeft = b;
layers = (
{
hints = (
{
horizontal = 1;
place = (0, 21);
target = up;
type = BottomGhost;
},
{
horizontal = 1;
place = (517, -20);
target = down;
type = TopGhost;
},
{
horizontal = 1;
place = (651, 54);
place = (651, 54);
type = Stem;
},
{
place = (4, 204);
place = (4, 204);
type = Stem;
}
);
layerId = m01;
shapes = (
{
closed = 1;
nodes = (
(102,705,l),
(87,705,l),
(76,651,l),
(91,651,l)
);
},
{
closed = 1;
nodes = (
(208,705,l),
(193,705,l),
(182,651,l),
(197,651,l)
);
},
{
closed = 1;
nodes = (
(119,517,l),
(104,517,l),
(4,0,l),
(19,0,l)
);
}
);
width = 122;
}
);
note = idieresis;
unicode = 239;
},
{
glyphname = ntilde;
kernLeft = m;
kernRight = h;
layers = (
{
hints = (
{
horizontal = 1;
place = (0, 21);
target = up;
type = BottomGhost;
},
{
horizontal = 1;
place = (509, 14);
place = (509, 14);
type = Stem;
},
{
horizontal = 1;
place = (612, 14);
place = (612, 14);
type = Stem;
},
{
horizontal = 1;
place = (672, 14);
place = (672, 14);
type = Stem;
},
{
place = (166, 14);
place = (166, 14);
type = Stem;
},
{
place = (429, 15);
place = (429, 15);
type = Stem;
},
{
horizontal = 1;
place = (517, -20);
target = down;
type = TopGhost;
},
{
place = (426, 14);
place = (426, 14);
type = Stem;
}
);
layerId = m01;
shapes = (
{
closed = 1;
nodes = (
(19,0,l),
(78,305,ls),
(97,400,o),
(205,509,o),
(329,509,cs),
(417,509,o),
(439,445,o),
(425,371,cs),
(353,0,l),
(368,0,l),
(440,370,ls),
(458,463,o),
(420,523,o),
(329,523,cs),
(224,523,o),
(132,449,o),
(92,373,c),
(91,373,l),
(120,517,l),
(105,517,l),
(4,0,l)
);
},
{
closed = 1;
nodes = (
(198,686,o),
(171,656,o),
(166,611,c),
(180,611,l),
(186,653,o),
(206,672,o),
(232,672,cs),
(283,672,o),
(317,612,o),
(375,612,cs),
(409,612,o),
(433,638,o),
(440,687,c),
(426,687,l),
(420,645,o),
(401,626,o),
(375,626,cs),
(322,626,o),
(292,686,o),
(233,686,cs)
);
}
);
width = 471;
}
);
note = ntilde;
unicode = 241;
},
{
glyphname = oacute;
kernLeft = c;
kernRight = o;
layers = (
{
hints = (
{
horizontal = 1;
place = (-8, 14);
place = (-8, 14);
type = Stem;
},
{
horizontal = 1;
place = (510, 14);
place = (510, 14);
type = Stem;
},
{
place = (23, 15);
place = (23, 15);
type = Stem;
},
{
place = (482, 15);
place = (482, 15);
type = Stem;
}
);
layerId = m01;
shapes = (
{
closed = 1;
nodes = (
(399,-8,o),
(497,140,o),
(497,300,cs),
(497,438,o),
(406,524,o),
(287,524,cs),
(125,524,o),
(23,378,o),
(23,214,cs),
(23,73,o),
(118,-8,o),
(234,-8,cs)
);
},
{
closed = 1;
nodes = (
(127,6,o),
(38,81,o),
(38,214,cs),
(38,370,o),
(134,510,o),
(287,510,cs),
(398,510,o),
(482,430,o),
(482,300,cs),
(482,148,o),
(390,6,o),
(234,6,cs)
);
},
{
closed = 1;
nodes = (
(310,598,l),
(381,725,l),
(365,725,l),
(294,598,l)
);
}
);
width = 520;
}
);
note = oacute;
unicode = 243;
},
{
glyphname = ograve;
kernLeft = c;
kernRight = o;
layers = (
{
hints = (
{
horizontal = 1;
place = (-8, 14);
place = (-8, 14);
type = Stem;
},
{
horizontal = 1;
place = (510, 14);
place = (510, 14);
type = Stem;
},
{
place = (23, 15);
place = (23, 15);
type = Stem;
},
{
place = (482, 15);
place = (482, 15);
type = Stem;
}
);
layerId = m01;
shapes = (
{
closed = 1;
nodes = (
(399,-8,o),
(497,140,o),
(497,300,cs),
(497,438,o),
(406,524,o),
(287,524,cs),
(125,524,o),
(23,378,o),
(23,214,cs),
(23,73,o),
(118,-8,o),
(234,-8,cs)
);
},
{
closed = 1;
nodes = (
(127,6,o),
(38,81,o),
(38,214,cs),
(38,370,o),
(134,510,o),
(287,510,cs),
(398,510,o),
(482,430,o),
(482,300,cs),
(482,148,o),
(390,6,o),
(234,6,cs)
);
},
{
closed = 1;
nodes = (
(253,725,l),
(301,598,l),
(317,598,l),
(269,725,l)
);
}
);
width = 520;
}
);
note = ograve;
unicode = 242;
},
{
glyphname = ocircumflex;
kernLeft = c;
kernRight = o;
layers = (
{
hints = (
{
horizontal = 1;
place = (-8, 14);
place = (-8, 14);
type = Stem;
},
{
horizontal = 1;
place = (510, 14);
place = (510, 14);
type = Stem;
},
{
horizontal = 1;
place = (696, 12);
place = (696, 12);
type = Stem;
},
{
place = (23, 15);
place = (23, 15);
type = Stem;
},
{
place = (482, 15);
place = (482, 15);
type = Stem;
}
);
layerId = m01;
shapes = (
{
closed = 1;
nodes = (
(399,-8,o),
(497,140,o),
(497,300,cs),
(497,438,o),
(406,524,o),
(287,524,cs),
(125,524,o),
(23,378,o),
(23,214,cs),
(23,73,o),
(118,-8,o),
(234,-8,cs)
);
},
{
closed = 1;
nodes = (
(127,6,o),
(38,81,o),
(38,214,cs),
(38,370,o),
(134,510,o),
(287,510,cs),
(398,510,o),
(482,430,o),
(482,300,cs),
(482,148,o),
(390,6,o),
(234,6,cs)
);
},
{
closed = 1;
nodes = (
(332,708,l),
(316,708,l),
(208,604,l),
(227,604,l),
(324,696,l),
(396,604,l),
(412,604,l)
);
}
);
width = 520;
}
);
note = ocircumflex;
unicode = 244;
},
{
glyphname = odieresis;
kernLeft = c;
kernRight = o;
layers = (
{
hints = (
{
horizontal = 1;
place = (-8, 14);
place = (-8, 14);
type = Stem;
},
{
horizontal = 1;
place = (510, 14);
place = (510, 14);
type = Stem;
},
{
horizontal = 1;
place = (651, 54);
place = (651, 54);
type = Stem;
},
{
place = (23, 15);
place = (23, 15);
type = Stem;
},
{
place = (482, 15);
place = (482, 15);
type = Stem;
}
);
layerId = m01;
shapes = (
{
closed = 1;
nodes = (
(399,-8,o),
(497,140,o),
(497,300,cs),
(497,438,o),
(406,524,o),
(287,524,cs),
(125,524,o),
(23,378,o),
(23,214,cs),
(23,73,o),
(118,-8,o),
(234,-8,cs)
);
},
{
closed = 1;
nodes = (
(127,6,o),
(38,81,o),
(38,214,cs),
(38,370,o),
(134,510,o),
(287,510,cs),
(398,510,o),
(482,430,o),
(482,300,cs),
(482,148,o),
(390,6,o),
(234,6,cs)
);
},
{
closed = 1;
nodes = (
(271,705,l),
(256,705,l),
(245,651,l),
(260,651,l)
);
},
{
closed = 1;
nodes = (
(416,705,l),
(401,705,l),
(390,651,l),
(405,651,l)
);
}
);
width = 520;
}
);
note = odieresis;
unicode = 246;
},
{
glyphname = otilde;
kernLeft = c;
kernRight = o;
layers = (
{
hints = (
{
horizontal = 1;
place = (-8, 14);
place = (-8, 14);
type = Stem;
},
{
horizontal = 1;
place = (510, 14);
place = (510, 14);
type = Stem;
},
{
horizontal = 1;
place = (612, 14);
place = (612, 14);
type = Stem;
},
{
horizontal = 1;
place = (672, 14);
place = (672, 14);
type = Stem;
},
{
place = (23, 15);
place = (23, 15);
type = Stem;
},
{
place = (185, 14);
place = (185, 14);
type = Stem;
},
{
place = (482, 15);
place = (482, 15);
type = Stem;
},
{
place = (445, 14);
place = (445, 14);
type = Stem;
}
);
layerId = m01;
shapes = (
{
closed = 1;
nodes = (
(399,-8,o),
(497,140,o),
(497,300,cs),
(497,438,o),
(406,524,o),
(287,524,cs),
(125,524,o),
(23,378,o),
(23,214,cs),
(23,73,o),
(118,-8,o),
(234,-8,cs)
);
},
{
closed = 1;
nodes = (
(127,6,o),
(38,81,o),
(38,214,cs),
(38,370,o),
(134,510,o),
(287,510,cs),
(398,510,o),
(482,430,o),
(482,300,cs),
(482,148,o),
(390,6,o),
(234,6,cs)
);
},
{
closed = 1;
nodes = (
(217,686,o),
(190,656,o),
(185,611,c),
(199,611,l),
(205,653,o),
(225,672,o),
(251,672,cs),
(302,672,o),
(336,612,o),
(394,612,cs),
(428,612,o),
(452,638,o),
(459,687,c),
(445,687,l),
(439,645,o),
(420,626,o),
(394,626,cs),
(341,626,o),
(311,686,o),
(252,686,cs)
);
}
);
width = 520;
}
);
note = otilde;
unicode = 245;
},
{
glyphname = uacute;
kernLeft = u;
kernRight = u;
layers = (
{
hints = (
{
horizontal = 1;
place = (-6, 14);
place = (-6, 14);
type = Stem;
},
{
horizontal = 1;
place = (517, -20);
target = down;
type = TopGhost;
},
{
place = (24, 15);
place = (24, 15);
type = Stem;
},
{
horizontal = 1;
place = (0, 21);
target = up;
type = BottomGhost;
}
);
layerId = m01;
shapes = (
{
closed = 1;
nodes = (
(441,517,l),
(382,212,ls),
(363,117,o),
(255,8,o),
(135,8,cs),
(51,8,o),
(28,70,o),
(43,146,cs),
(115,517,l),
(100,517,l),
(28,147,ls),
(10,53,o),
(49,-6,o),
(135,-6,cs),
(236,-6,o),
(328,68,o),
(368,144,c),
(369,144,l),
(340,0,l),
(355,0,l),
(456,517,l)
);
},
{
closed = 1;
nodes = (
(293,598,l),
(364,725,l),
(348,725,l),
(277,598,l)
);
}
);
width = 464;
}
);
note = uacute;
unicode = 250;
},
{
glyphname = ugrave;
kernLeft = u;
kernRight = u;
layers = (
{
hints = (
{
horizontal = 1;
place = (-6, 14);
place = (-6, 14);
type = Stem;
},
{
horizontal = 1;
place = (517, -20);
target = down;
type = TopGhost;
},
{
place = (24, 15);
place = (24, 15);
type = Stem;
},
{
horizontal = 1;
place = (0, 21);
target = up;
type = BottomGhost;
}
);
layerId = m01;
shapes = (
{
closed = 1;
nodes = (
(441,517,l),
(382,212,ls),
(363,117,o),
(255,8,o),
(135,8,cs),
(51,8,o),
(28,70,o),
(43,146,cs),
(115,517,l),
(100,517,l),
(28,147,ls),
(10,53,o),
(49,-6,o),
(135,-6,cs),
(236,-6,o),
(328,68,o),
(368,144,c),
(369,144,l),
(340,0,l),
(355,0,l),
(456,517,l)
);
},
{
closed = 1;
nodes = (
(236,725,l),
(284,598,l),
(300,598,l),
(252,725,l)
);
}
);
width = 464;
}
);
note = ugrave;
unicode = 249;
},
{
glyphname = ucircumflex;
kernLeft = u;
kernRight = u;
layers = (
{
hints = (
{
horizontal = 1;
place = (-6, 14);
place = (-6, 14);
type = Stem;
},
{
horizontal = 1;
place = (517, -20);
target = down;
type = TopGhost;
},
{
horizontal = 1;
place = (696, 12);
place = (696, 12);
type = Stem;
},
{
place = (24, 15);
place = (24, 15);
type = Stem;
},
{
horizontal = 1;
place = (0, 21);
target = up;
type = BottomGhost;
}
);
layerId = m01;
shapes = (
{
closed = 1;
nodes = (
(441,517,l),
(382,212,ls),
(363,117,o),
(255,8,o),
(135,8,cs),
(51,8,o),
(28,70,o),
(43,146,cs),
(115,517,l),
(100,517,l),
(28,147,ls),
(10,53,o),
(49,-6,o),
(135,-6,cs),
(236,-6,o),
(328,68,o),
(368,144,c),
(369,144,l),
(340,0,l),
(355,0,l),
(456,517,l)
);
},
{
closed = 1;
nodes = (
(315,708,l),
(299,708,l),
(191,604,l),
(210,604,l),
(307,696,l),
(379,604,l),
(395,604,l)
);
}
);
width = 464;
}
);
note = ucircumflex;
unicode = 251;
},
{
glyphname = udieresis;
kernLeft = u;
kernRight = u;
layers = (
{
hints = (
{
horizontal = 1;
place = (-6, 14);
place = (-6, 14);
type = Stem;
},
{
horizontal = 1;
place = (517, -20);
target = down;
type = TopGhost;
},
{
horizontal = 1;
place = (651, 54);
place = (651, 54);
type = Stem;
},
{
place = (24, 15);
place = (24, 15);
type = Stem;
},
{
horizontal = 1;
place = (0, 21);
target = up;
type = BottomGhost;
}
);
layerId = m01;
shapes = (
{
closed = 1;
nodes = (
(441,517,l),
(382,212,ls),
(363,117,o),
(255,8,o),
(135,8,cs),
(51,8,o),
(28,70,o),
(43,146,cs),
(115,517,l),
(100,517,l),
(28,147,ls),
(10,53,o),
(49,-6,o),
(135,-6,cs),
(236,-6,o),
(328,68,o),
(368,144,c),
(369,144,l),
(340,0,l),
(355,0,l),
(456,517,l)
);
},
{
closed = 1;
nodes = (
(253,705,l),
(238,705,l),
(227,651,l),
(242,651,l)
);
},
{
closed = 1;
nodes = (
(398,705,l),
(383,705,l),
(372,651,l),
(387,651,l)
);
}
);
width = 464;
}
);
note = udieresis;
unicode = 252;
},
{
glyphname = dagger;
layers = (
{
hints = (
{
horizontal = 1;
place = (485, 15);
place = (485, 15);
type = Stem;
},
{
horizontal = 1;
place = (715, -20);
target = down;
type = TopGhost;
},
{
place = (71, 451);
place = (71, 451);
type = Stem;
}
);
layerId = m01;
shapes = (
{
closed = 1;
nodes = (
(71,485,l),
(288,485,l),
(174,-104,l),
(189,-104,l),
(303,485,l),
(519,485,l),
(522,500,l),
(306,500,l),
(348,715,l),
(333,715,l),
(291,500,l),
(74,500,l)
);
}
);
width = 503;
}
);
note = dagger;
unicode = 8224;
},
{
glyphname = degree;
layers = (
{
hints = (
{
horizontal = 1;
place = (462, 14);
place = (462, 14);
type = Stem;
},
{
horizontal = 1;
place = (680, 14);
place = (680, 14);
type = Stem;
},
{
place = (93, 15);
place = (93, 15);
type = Stem;
},
{
place = (311, 15);
place = (311, 15);
type = Stem;
}
);
layerId = m01;
shapes = (
{
closed = 1;
nodes = (
(277,462,o),
(326,513,o),
(326,578,cs),
(326,643,o),
(277,694,o),
(210,694,cs),
(144,694,o),
(93,643,o),
(93,578,cs),
(93,513,o),
(144,462,o),
(210,462,cs)
);
},
{
closed = 1;
nodes = (
(152,476,o),
(108,521,o),
(108,578,cs),
(108,636,o),
(152,680,o),
(210,680,cs),
(269,680,o),
(311,635,o),
(311,578,cs),
(311,520,o),
(269,476,o),
(210,476,cs)
);
}
);
width = 296;
}
);
note = degree;
unicode = 176;
},
{
glyphname = cent;
layers = (
{
hints = (
{
horizontal = 1;
place = (-7, 14);
place = (-7, 14);
type = Stem;
},
{
horizontal = 1;
place = (510, 14);
place = (510, 14);
type = Stem;
},
{
place = (23, 15);
place = (23, 15);
type = Stem;
},
{
place = (459, 14);
place = (459, 14);
type = Stem;
},
{
horizontal = 1;
place = (510, 12);
place = (510, 12);
type = Stem;
},
{
horizontal = 1;
place = (-5, 12);
place = (-5, 12);
type = Stem;
}
);
layerId = m01;
shapes = (
{
closed = 1;
nodes = (
(183,-85,l),
(197,-85,l),
(212,-6,l),
(217,-7,o),
(223,-7,o),
(229,-7,cs),
(335,-7,o),
(419,64,o),
(450,173,c),
(436,173,l),
(405,72,o),
(327,7,o),
(229,7,cs),
(214,7,l),
(312,508,l),
(400,498,o),
(449,436,o),
(459,359,c),
(473,359,l),
(463,441,o),
(410,511,o),
(314,522,c),
(328,591,l),
(314,591,l),
(300,523,l),
(296,523,o),
(291,524,o),
(287,524,cs),
(124,524,o),
(23,368,o),
(23,211,cs),
(23,80,o),
(92,6,o),
(198,-5,c)
);
},
{
closed = 1;
nodes = (
(38,360,o),
(132,510,o),
(287,510,cs),
(298,510,l),
(201,8,l),
(102,19,o),
(38,89,o),
(38,211,cs)
);
}
);
width = 484;
}
);
note = cent;
unicode = 162;
},
{
glyphname = sterling;
layers = (
{
hints = (
{
horizontal = 1;
place = (-7, 14);
place = (-7, 14);
type = Stem;
},
{
horizontal = 1;
place = (47, 14);
place = (47, 14);
type = Stem;
},
{
horizontal = 1;
place = (327, 14);
place = (327, 14);
type = Stem;
},
{
horizontal = 1;
place = (680, 14);
place = (680, 14);
type = Stem;
},
{
place = (113, 15);
place = (113, 15);
type = Stem;
},
{
place = (505, 14);
place = (505, 14);
type = Stem;
},
{
horizontal = 1;
place = (-1, 21);
target = up;
type = BottomGhost;
},
{
place = (147, 15);
place = (147, 15);
type = Stem;
}
);
layerId = m01;
shapes = (
{
closed = 1;
nodes = (
(321,341,l),
(150,341,l),
(140,385,o),
(128,427,o),
(128,473,cs),
(128,589,o),
(195,680,o),
(330,680,cs),
(453,680,o),
(508,591,o),
(505,482,c),
(519,482,l),
(522,599,o),
(463,694,o),
(330,694,cs),
(185,694,o),
(113,597,o),
(113,473,cs),
(113,425,o),
(125,385,o),
(135,341,c),
(55,341,l),
(53,327,l),
(138,327,l),
(143,303,o),
(147,278,o),
(147,250,cs),
(147,142,o),
(87,85,o),
(-7,10,c),
(1,-1,l),
(53,37,o),
(89,47,o),
(144,47,cs),
(223,47,o),
(267,-7,o),
(350,-7,cs),
(406,-7,o),
(458,27,o),
(497,62,c),
(487,72,l),
(450,39,o),
(402,7,o),
(350,7,cs),
(270,7,o),
(226,61,o),
(144,61,cs),
(111,61,o),
(86,58,o),
(59,48,c),
(122,105,o),
(162,162,o),
(162,250,cs),
(162,277,o),
(158,303,o),
(153,327,c),
(319,327,l)
);
}
);
width = 514;
}
);
note = sterling;
unicode = 163;
},
{
glyphname = section;
layers = (
{
hints = (
{
horizontal = 1;
place = (-173, 14);
place = (-173, 14);
type = Stem;
},
{
horizontal = 1;
place = (677, 14);
place = (677, 14);
type = Stem;
},
{
place = (26, 15);
place = (26, 15);
type = Stem;
},
{
place = (160, 15);
place = (160, 15);
type = Stem;
},
{
place = (374, 15);
place = (374, 15);
type = Stem;
},
{
place = (488, 15);
place = (488, 15);
type = Stem;
},
{
place = (40, 15);
place = (40, 15);
type = Stem;
},
{
place = (483, 15);
place = (483, 15);
type = Stem;
}
);
layerId = m01;
shapes = (
{
closed = 1;
nodes = (
(26,-3,l),
(25,-87,o),
(84,-173,o),
(222,-173,cs),
(318,-173,o),
(389,-124,o),
(389,-46,cs),
(389,-7,o),
(376,20,o),
(349,49,c),
(430,66,o),
(503,101,o),
(503,191,cs),
(503,274,o),
(437,321,o),
(346,381,cs),
(220,464,o),
(175,491,o),
(175,560,cs),
(175,635,o),
(243,677,o),
(330,677,cs),
(428,677,o),
(478,619,o),
(483,531,c),
(498,531,l),
(493,627,o),
(437,691,o),
(330,691,cs),
(235,691,o),
(160,643,o),
(160,560,cs),
(160,523,o),
(171,497,o),
(199,470,c),
(105,453,o),
(40,408,o),
(40,330,cs),
(40,245,o),
(102,208,o),
(210,136,cs),
(322,62,o),
(374,25,o),
(374,-46,cs),
(374,-116,o),
(310,-159,o),
(222,-159,cs),
(94,-159,o),
(40,-81,o),
(41,-3,c)
);
},
{
closed = 1;
nodes = (
(426,311,o),
(488,266,o),
(488,191,cs),
(488,106,o),
(415,75,o),
(338,60,c),
(310,86,o),
(270,112,o),
(218,148,cs),
(119,214,o),
(55,249,o),
(55,330,cs),
(55,404,o),
(120,445,o),
(212,458,c),
(240,433,o),
(281,406,o),
(338,369,cs)
);
}
);
width = 540;
}
);
note = section;
unicode = 167;
},
{
glyphname = bullet;
layers = (
{
hints = (
{
horizontal = 1;
place = (258, 135);
place = (258, 135);
type = Stem;
},
{
place = (45, 135);
place = (45, 135);
type = Stem;
}
);
layerId = m01;
shapes = (
{
closed = 1;
nodes = (
(150,258,o),
(180,286,o),
(180,325,cs),
(180,365,o),
(150,393,o),
(113,393,cs),
(75,393,o),
(45,364,o),
(45,325,cs),
(45,287,o),
(75,258,o),
(113,258,cs)
);
}
);
width = 198;
}
);
note = bullet;
unicode = 8226;
},
{
glyphname = paragraph;
layers = (
{
hints = (
{
horizontal = 1;
place = (0, 21);
target = up;
type = BottomGhost;
},
{
horizontal = 1;
place = (701, 14);
place = (701, 14);
type = Stem;
},
{
place = (80, 368);
place = (80, 368);
type = Stem;
}
);
layerId = m01;
shapes = (
{
closed = 1;
nodes = (
(277,385,l),
(202,0,l),
(217,0,l),
(353,701,l),
(430,701,l),
(294,0,l),
(309,0,l),
(448,715,l),
(278,715,ls),
(219,715,o),
(175,700,o),
(142,672,cs),
(102,638,o),
(80,589,o),
(80,534,cs),
(81,444,o),
(140,385,o),
(248,385,cs)
);
}
);
width = 426;
}
);
note = paragraph;
unicode = 182;
},
{
glyphname = germandbls;
kernLeft = germandbls;
kernRight = germandbls;
layers = (
{
hints = (
{
horizontal = 1;
place = (-7, 14);
place = (-7, 14);
type = Stem;
},
{
horizontal = 1;
place = (398, 14);
place = (398, 14);
type = Stem;
},
{
horizontal = 1;
place = (708, 14);
place = (708, 14);
type = Stem;
},
{
place = (423, 14);
place = (423, 14);
type = Stem;
},
{
horizontal = 1;
place = (1, 21);
target = up;
type = BottomGhost;
},
{
place = (433, 14);
place = (433, 14);
type = Stem;
}
);
layerId = m01;
shapes = (
{
closed = 1;
nodes = (
(130,4,l),
(152,-3,o),
(180,-7,o),
(208,-7,cs),
(346,-7,o),
(437,77,o),
(437,223,cs),
(437,294,o),
(398,379,o),
(314,404,c),
(402,425,o),
(447,492,o),
(447,566,cs),
(447,668,o),
(379,722,o),
(296,722,cs),
(179,722,o),
(127,640,o),
(109,544,cs),
(4,1,l),
(18,-1,l),
(123,542,ls),
(141,631,o),
(190,708,o),
(296,708,cs),
(371,708,o),
(433,658,o),
(433,566,cs),
(433,487,o),
(374,414,o),
(261,412,cs),
(224,412,l),
(221,398,l),
(261,398,ls),
(372,398,o),
(423,302,o),
(423,223,cs),
(423,85,o),
(338,7,o),
(208,7,cs),
(182,7,o),
(155,11,o),
(133,18,c)
);
}
);
width = 459;
}
);
note = germandbls;
unicode = 223;
},
{
glyphname = registered;
layers = (
{
hints = (
{
horizontal = 1;
place = (249, 14);
place = (249, 14);
type = Stem;
},
{
horizontal = 1;
place = (477, 13);
place = (477, 13);
type = Stem;
},
{
horizontal = 1;
place = (604, 13);
place = (604, 13);
type = Stem;
},
{
horizontal = 1;
place = (709, 14);
place = (709, 14);
type = Stem;
},
{
place = (67, 15);
place = (67, 15);
type = Stem;
},
{
place = (212, 14);
place = (212, 14);
type = Stem;
},
{
place = (381, 14);
place = (381, 14);
type = Stem;
},
{
place = (518, 15);
place = (518, 15);
type = Stem;
},
{
place = (385, 14);
place = (385, 14);
type = Stem;
}
);
layerId = m01;
shapes = (
{
closed = 1;
nodes = (
(428,249,o),
(533,349,o),
(533,486,cs),
(533,622,o),
(428,723,o),
(300,723,cs),
(172,723,o),
(67,622,o),
(67,486,cs),
(67,349,o),
(172,249,o),
(300,249,cs)
);
},
{
closed = 1;
nodes = (
(180,263,o),
(82,357,o),
(82,486,cs),
(82,614,o),
(180,709,o),
(300,709,cs),
(420,709,o),
(518,614,o),
(518,486,cs),
(518,357,o),
(420,263,o),
(300,263,cs)
);
},
{
closed = 1;
nodes = (
(226,477,l),
(306,477,ls),
(345,477,o),
(372,470,o),
(375,422,cs),
(378,376,o),
(381,365,o),
(385,361,c),
(399,361,l),
(399,364,l),
(394,369,o),
(391,375,o),
(388,423,cs),
(386,454,o),
(378,475,o),
(346,484,c),
(380,493,o),
(395,515,o),
(395,547,cs),
(395,593,o),
(362,617,o),
(313,617,cs),
(212,617,l),
(212,361,l),
(226,361,l)
);
},
{
closed = 1;
nodes = (
(226,604,l),
(312,604,ls),
(354,604,o),
(381,585,o),
(381,547,cs),
(381,510,o),
(358,490,o),
(310,490,cs),
(226,490,l)
);
}
);
width = 510;
}
);
note = registered;
unicode = 174;
},
{
glyphname = copyright;
kernLeft = copyright;
kernRight = copyright;
layers = (
{
hints = (
{
horizontal = 1;
place = (-11, 14);
place = (-11, 14);
type = Stem;
},
{
horizontal = 1;
place = (127, 14);
place = (127, 14);
type = Stem;
},
{
horizontal = 1;
place = (574, 14);
place = (574, 14);
type = Stem;
},
{
horizontal = 1;
place = (708, 14);
place = (708, 14);
type = Stem;
},
{
place = (52, 14);
place = (52, 14);
type = Stem;
},
{
place = (215, 15);
place = (215, 15);
type = Stem;
},
{
place = (581, 15);
place = (581, 15);
type = Stem;
},
{
place = (758, 14);
place = (758, 14);
type = Stem;
}
);
layerId = m01;
shapes = (
{
closed = 1;
nodes = (
(615,-11,o),
(772,149,o),
(772,355,cs),
(772,561,o),
(615,722,o),
(412,722,cs),
(209,722,o),
(52,561,o),
(52,355,cs),
(52,149,o),
(209,-11,o),
(412,-11,cs)
);
},
{
closed = 1;
nodes = (
(217,3,o),
(66,157,o),
(66,355,cs),
(66,554,o),
(217,708,o),
(412,708,cs),
(607,708,o),
(758,554,o),
(758,355,cs),
(758,157,o),
(607,3,o),
(412,3,cs)
);
},
{
closed = 1;
nodes = (
(594,450,l),
(583,521,o),
(526,588,o),
(421,588,cs),
(292,588,o),
(215,489,o),
(215,358,cs),
(215,215,o),
(305,127,o),
(419,127,cs),
(530,127,o),
(588,198,o),
(596,281,c),
(581,281,l),
(572,202,o),
(519,141,o),
(419,141,cs),
(310,141,o),
(230,226,o),
(230,358,cs),
(230,485,o),
(300,574,o),
(421,574,cs),
(516,574,o),
(568,513,o),
(579,450,c)
);
}
);
width = 787;
}
);
note = copyright;
unicode = 169;
},
{
glyphname = trademark;
layers = (
{
hints = (
{
horizontal = 1;
place = (429, 17);
place = (429, 17);
type = Stem;
},
{
horizontal = 1;
place = (701, 14);
place = (701, 14);
type = Stem;
},
{
place = (105, 539);
place = (105, 539);
type = Stem;
}
);
layerId = m01;
shapes = (
{
closed = 1;
nodes = (
(628,715,l),
(454,446,l),
(392,715,l),
(376,715,l),
(321,429,l),
(335,429,l),
(384,684,l),
(384,684,o),
(393,646,o),
(401,611,cs),
(443,429,l),
(459,429,l),
(573,604,ls),
(592,633,o),
(623,682,o),
(623,682,c),
(624,682,l),
(575,429,l),
(589,429,l),
(644,715,l)
);
},
{
closed = 1;
nodes = (
(170,429,l),
(223,701,l),
(327,701,l),
(329,715,l),
(107,715,l),
(105,701,l),
(208,701,l),
(155,429,l)
);
}
);
width = 598;
}
);
note = trademark;
unicode = 8482;
},
{
glyphname = acute;
layers = (
{
hints = (
{
horizontal = 1;
place = (598, 127);
place = (598, 127);
type = Stem;
},
{
place = (273, 87);
place = (273, 87);
type = Stem;
}
);
layerId = m01;
shapes = (
{
closed = 1;
nodes = (
(289,598,l),
(360,725,l),
(344,725,l),
(273,598,l)
);
}
);
width = 418;
}
);
note = acute;
unicode = 180;
},
{
glyphname = dieresis;
layers = (
{
hints = (
{
horizontal = 1;
place = (651, 54);
place = (651, 54);
type = Stem;
},
{
place = (196, 171);
place = (196, 171);
type = Stem;
}
);
layerId = m01;
shapes = (
{
closed = 1;
nodes = (
(222,705,l),
(207,705,l),
(196,651,l),
(211,651,l)
);
},
{
closed = 1;
nodes = (
(367,705,l),
(352,705,l),
(341,651,l),
(356,651,l)
);
}
);
width = 406;
}
);
note = dieresis;
unicode = 168;
},
{
glyphname = notequal;
layers = (
{
hints = (
{
horizontal = 1;
place = (239, 14);
place = (239, 14);
type = Stem;
},
{
horizontal = 1;
place = (374, 14);
place = (374, 14);
type = Stem;
},
{
place = (39, 455);
place = (39, 455);
type = Stem;
}
);
layerId = m01;
shapes = (
{
closed = 1;
nodes = (
(66,374,l),
(296,374,l),
(218,253,l),
(42,253,l),
(39,239,l),
(209,239,l),
(127,111,l),
(143,111,l),
(225,239,l),
(465,239,l),
(468,253,l),
(234,253,l),
(312,374,l),
(492,374,l),
(494,388,l),
(321,388,l),
(395,502,l),
(379,502,l),
(305,388,l),
(68,388,l)
);
}
);
width = 512;
}
);
note = notequal;
unicode = 8800;
},
{
glyphname = AE;
kernLeft = AE;
kernRight = E;
layers = (
{
hints = (
{
horizontal = 1;
place = (0, 14);
place = (0, 14);
type = Stem;
},
{
horizontal = 1;
place = (256, 14);
place = (256, 14);
type = Stem;
},
{
horizontal = 1;
place = (364, 14);
place = (364, 14);
type = Stem;
},
{
horizontal = 1;
place = (701, 14);
place = (701, 14);
type = Stem;
},
{
place = (-36, 972);
place = (-36, 972);
type = Stem;
}
);
layerId = m01;
shapes = (
{
closed = 1;
nodes = (
(936,715,l),
(384,715,l),
(-36,0,l),
(-19,0,l),
(131,256,l),
(444,256,l),
(395,0,l),
(820,0,l),
(823,14,l),
(413,14,l),
(480,364,l),
(835,364,l),
(838,378,l),
(483,378,l),
(545,701,l),
(933,701,l)
);
},
{
closed = 1;
nodes = (
(393,701,l),
(530,701,l),
(447,270,l),
(139,270,l)
);
}
);
width = 907;
}
);
note = AE;
unicode = 198;
},
{
glyphname = Oslash;
kernLeft = C;
kernRight = O;
layers = (
{
hints = (
{
horizontal = 1;
place = (-8, 14);
place = (-8, 14);
type = Stem;
},
{
horizontal = 1;
place = (709, 14);
place = (709, 14);
type = Stem;
},
{
place = (42, 15);
place = (42, 15);
type = Stem;
},
{
place = (696, 15);
place = (696, 15);
type = Stem;
},
{
horizontal = 1;
place = (718, -20);
target = down;
type = TopGhost;
},
{
horizontal = 1;
place = (-3, 21);
target = up;
type = BottomGhost;
}
);
layerId = m01;
shapes = (
{
closed = 1;
nodes = (
(53,-13,l),
(134,75,l),
(190,21,o),
(267,-8,o),
(352,-8,cs),
(571,-8,o),
(711,175,o),
(711,400,cs),
(711,492,o),
(683,566,o),
(638,620,c),
(720,708,l),
(710,718,l),
(629,631,l),
(573,691,o),
(493,723,o),
(404,723,cs),
(191,723,o),
(42,536,o),
(42,314,cs),
(42,217,o),
(73,139,o),
(124,85,c),
(43,-3,l)
);
},
{
closed = 1;
nodes = (
(57,528,o),
(199,709,o),
(404,709,cs),
(490,709,o),
(566,678,o),
(619,620,c),
(134,96,l),
(86,148,o),
(57,221,o),
(57,314,cs)
);
},
{
closed = 1;
nodes = (
(271,6,o),
(197,33,o),
(144,85,c),
(629,609,l),
(671,558,o),
(696,487,o),
(696,400,cs),
(696,183,o),
(563,6,o),
(352,6,cs)
);
}
);
width = 732;
}
);
note = Oslash;
unicode = 216;
},
{
glyphname = infinity;
layers = (
{
hints = (
{
horizontal = 1;
place = (139, 14);
place = (139, 14);
type = Stem;
},
{
horizontal = 1;
place = (454, 14);
place = (454, 14);
type = Stem;
},
{
place = (37, 15);
place = (37, 15);
type = Stem;
},
{
place = (652, 15);
place = (652, 15);
type = Stem;
}
);
layerId = m01;
shapes = (
{
closed = 1;
nodes = (
(37,229,o),
(77,139,o),
(181,139,cs),
(260,139,o),
(302,188,o),
(357,288,c),
(398,210,o),
(450,139,o),
(528,139,cs),
(629,139,o),
(667,226,o),
(667,304,cs),
(667,386,o),
(628,468,o),
(525,468,cs),
(447,468,o),
(405,407,o),
(358,319,c),
(316,399,o),
(260,468,o),
(179,468,cs),
(76,468,o),
(37,379,o),
(37,304,cs)
);
},
{
closed = 1;
nodes = (
(52,373,o),
(85,454,o),
(179,454,cs),
(252,454,o),
(305,390,o),
(350,303,c),
(296,202,o),
(253,153,o),
(181,153,cs),
(87,153,o),
(52,235,o),
(52,304,cs)
);
},
{
closed = 1;
nodes = (
(618,454,o),
(652,381,o),
(652,304,cs),
(652,235,o),
(619,153,o),
(528,153,cs),
(458,153,o),
(409,216,o),
(365,304,c),
(415,397,o),
(454,454,o),
(525,454,cs)
);
}
);
width = 700;
}
);
note = infinity;
unicode = 8734;
},
{
glyphname = plusminus;
layers = (
{
hints = (
{
horizontal = 1;
place = (0, 14);
place = (0, 14);
type = Stem;
},
{
horizontal = 1;
place = (341, 14);
place = (341, 14);
type = Stem;
},
{
place = (2, 498);
place = (2, 498);
type = Stem;
}
);
layerId = m01;
shapes = (
{
closed = 1;
nodes = (
(67,341,l),
(274,341,l),
(236,144,l),
(251,144,l),
(289,341,l),
(497,341,l),
(500,355,l),
(292,355,l),
(330,548,l),
(315,548,l),
(277,355,l),
(70,355,l)
);
},
{
closed = 1;
nodes = (
(2,0,l),
(431,0,l),
(434,14,l),
(5,14,l)
);
}
);
width = 529;
}
);
note = plusminus;
unicode = 177;
},
{
glyphname = lessequal;
layers = (
{
hints = (
{
horizontal = 1;
place = (0, 14);
place = (0, 14);
type = Stem;
},
{
place = (61, 19);
place = (61, 19);
type = Stem;
}
);
layerId = m01;
shapes = (
{
closed = 1;
nodes = (
(-1,0,l),
(386,0,l),
(389,14,l),
(2,14,l)
);
},
{
closed = 1;
nodes = (
(416,153,l),
(80,317,l),
(479,481,l),
(482,497,l),
(62,324,l),
(60,312,l),
(413,139,l)
);
}
);
width = 483;
}
);
note = lessequal;
unicode = 8804;
},
{
glyphname = greaterequal;
layers = (
{
hints = (
{
horizontal = 1;
place = (0, 14);
place = (0, 14);
type = Stem;
},
{
place = (432, 19);
place = (432, 19);
type = Stem;
}
);
layerId = m01;
shapes = (
{
closed = 1;
nodes = (
(392,14,l),
(6,14,l),
(3,0,l),
(389,0,l)
);
},
{
closed = 1;
nodes = (
(96,483,l),
(432,319,l),
(33,155,l),
(30,139,l),
(450,312,l),
(452,324,l),
(99,497,l)
);
}
);
width = 482;
}
);
note = greaterequal;
unicode = 8805;
},
{
glyphname = yen;
layers = (
{
hints = (
{
horizontal = 1;
place = (0, 21);
target = up;
type = BottomGhost;
},
{
horizontal = 1;
place = (206, 14);
place = (206, 14);
type = Stem;
},
{
horizontal = 1;
place = (328, 14);
place = (328, 14);
type = Stem;
},
{
horizontal = 1;
place = (685, -20);
target = down;
type = TopGhost;
},
{
place = (38, 545);
place = (38, 545);
type = Stem;
}
);
layerId = m01;
shapes = (
{
closed = 1;
nodes = (
(457,220,l),
(256,220,l),
(277,328,l),
(478,328,l),
(480,342,l),
(289,342,l),
(583,685,l),
(565,685,l),
(271,342,l),
(93,685,l),
(75,685,l),
(254,342,l),
(64,342,l),
(62,328,l),
(262,328,l),
(241,220,l),
(41,220,l),
(38,206,l),
(239,206,l),
(199,0,l),
(214,0,l),
(254,206,l),
(454,206,l)
);
}
);
width = 511;
}
);
note = yen;
unicode = 165;
},
{
glyphname = mu;
layers = (
{
hints = (
{
horizontal = 1;
place = (-166, 21);
target = up;
type = BottomGhost;
},
{
horizontal = 1;
place = (-6, 14);
place = (-6, 14);
type = Stem;
},
{
horizontal = 1;
place = (517, -20);
target = down;
type = TopGhost;
},
{
place = (32, 10);
place = (32, 10);
type = Stem;
},
{
horizontal = 1;
place = (0, 21);
target = up;
type = BottomGhost;
}
);
layerId = m01;
shapes = (
{
closed = 1;
nodes = (
(444,517,l),
(385,212,ls),
(366,117,o),
(258,8,o),
(138,8,cs),
(54,8,o),
(31,70,o),
(46,146,cs),
(118,517,l),
(103,517,l),
(-30,-166,l),
(-15,-166,l),
(32,72,l),
(40,25,o),
(79,-6,o),
(138,-6,cs),
(239,-6,o),
(331,68,o),
(371,144,c),
(372,144,l),
(343,0,l),
(358,0,l),
(459,517,l)
);
}
);
width = 467;
}
);
note = mu;
unicode = 181;
},
{
glyphname = partialdiff;
layers = (
{
hints = (
{
horizontal = 1;
place = (-8, 14);
place = (-8, 14);
type = Stem;
},
{
horizontal = 1;
place = (439, 14);
place = (439, 14);
type = Stem;
},
{
horizontal = 1;
place = (719, -20);
target = down;
type = TopGhost;
},
{
place = (41, 15);
place = (41, 15);
type = Stem;
},
{
place = (450, 14);
place = (450, 14);
type = Stem;
}
);
layerId = m01;
shapes = (
{
closed = 1;
nodes = (
(131,453,o),
(41,339,o),
(41,198,cs),
(41,80,o),
(119,-8,o),
(232,-8,cs),
(384,-8,o),
(464,137,o),
(464,286,cs),
(464,503,o),
(397,660,o),
(149,719,c),
(149,704,l),
(380,649,o),
(447,502,o),
(450,299,c),
(429,385,o),
(364,453,o),
(261,453,cs)
);
},
{
closed = 1;
nodes = (
(127,6,o),
(56,88,o),
(56,198,cs),
(56,331,o),
(138,439,o),
(261,439,cs),
(381,439,o),
(444,340,o),
(444,242,cs),
(444,170,o),
(391,6,o),
(232,6,cs)
);
}
);
width = 511;
}
);
note = partialdiff;
unicode = 8706;
},
{
glyphname = summation;
layers = (
{
hints = (
{
horizontal = 1;
place = (-100, 14);
place = (-100, 14);
type = Stem;
},
{
horizontal = 1;
place = (701, 14);
place = (701, 14);
type = Stem;
},
{
place = (63, 20);
place = (63, 20);
type = Stem;
},
{
place = (372, 16);
place = (372, 16);
type = Stem;
}
);
layerId = m01;
shapes = (
{
closed = 1;
nodes = (
(566,715,l),
(64,715,l),
(64,701,l),
(372,322,l),
(63,-86,l),
(63,-100,l),
(576,-100,l),
(576,-86,l),
(83,-86,l),
(388,317,l),
(388,327,l),
(84,701,l),
(566,701,l)
);
}
);
width = 591;
}
);
note = summation;
unicode = 8721;
},
{
glyphname = product;
layers = (
{
hints = (
{
horizontal = 1;
place = (701, 14);
place = (701, 14);
type = Stem;
},
{
place = (91, 15);
place = (91, 15);
type = Stem;
},
{
place = (607, 15);
place = (607, 15);
type = Stem;
}
);
layerId = m01;
shapes = (
{
closed = 1;
nodes = (
(622,-100,l),
(622,715,l),
(91,715,l),
(91,-100,l),
(106,-100,l),
(106,701,l),
(607,701,l),
(607,-100,l)
);
}
);
width = 673;
}
);
note = product;
unicode = 8719;
},
{
glyphname = pi;
layers = (
{
hints = (
{
horizontal = 1;
place = (-3, 14);
place = (-3, 14);
type = Stem;
},
{
horizontal = 1;
place = (503, 14);
place = (503, 14);
type = Stem;
},
{
place = (383, 14);
place = (383, 14);
type = Stem;
},
{
horizontal = 1;
place = (0, 20);
place = (0, 20);
type = Stem;
}
);
layerId = m01;
shapes = (
{
closed = 1;
nodes = (
(591,517,l),
(54,517,l),
(51,503,l),
(147,503,l),
(50,0,l),
(65,0,l),
(162,503,l),
(465,503,l),
(386,98,ls),
(374,38,o),
(395,-3,o),
(454,-3,cs),
(469,-3,o),
(482,2,o),
(488,6,c),
(491,20,l),
(489,20,l),
(482,16,o),
(469,11,o),
(454,11,cs),
(402,11,o),
(391,47,o),
(400,96,cs),
(479,503,l),
(588,503,l)
);
}
);
width = 571;
}
);
note = pi;
unicode = 960;
},
{
glyphname = integral;
layers = (
{
hints = (
{
horizontal = 1;
place = (-162, 21);
target = up;
type = BottomGhost;
},
{
horizontal = 1;
place = (724, 14);
place = (724, 14);
type = Stem;
},
{
place = (151, 14);
place = (151, 14);
type = Stem;
},
{
horizontal = 1;
place = (-173, 14);
place = (-173, 14);
type = Stem;
}
);
layerId = m01;
shapes = (
{
closed = 1;
nodes = (
(-2,-162,l),
(18,-170,o),
(38,-173,o),
(66,-173,cs),
(144,-173,o),
(165,-136,o),
(165,-52,cs),
(165,616,ls),
(165,695,o),
(187,724,o),
(252,724,cs),
(275,724,o),
(295,722,o),
(315,714,c),
(317,714,l),
(317,728,l),
(298,735,o),
(279,738,o),
(252,738,cs),
(180,738,o),
(151,706,o),
(151,618,cs),
(151,-52,ls),
(151,-126,o),
(136,-159,o),
(66,-159,cs),
(38,-159,o),
(19,-156,o),
(-1,-147,c),
(-2,-147,l)
);
}
);
width = 321;
}
);
note = integral;
unicode = 8747;
},
{
glyphname = ordfeminine;
layers = (
{
hints = (
{
horizontal = 1;
place = (228, 14);
place = (228, 14);
type = Stem;
},
{
horizontal = 1;
place = (687, 14);
place = (687, 14);
type = Stem;
},
{
place = (55, 15);
place = (55, 15);
type = Stem;
},
{
place = (366, 15);
place = (366, 15);
type = Stem;
},
{
place = (423, 15);
place = (423, 15);
type = Stem;
},
{
horizontal = 1;
place = (234, 14);
place = (234, 14);
type = Stem;
}
);
layerId = m01;
shapes = (
{
closed = 1;
nodes = (
(103,482,o),
(55,435,o),
(55,356,cs),
(55,278,o),
(115,228,o),
(200,228,cs),
(286,228,o),
(343,271,o),
(375,328,c),
(369,303,ls),
(359,259,o),
(374,234,o),
(407,234,cs),
(415,234,o),
(422,236,o),
(424,237,c),
(427,251,l),
(426,251,l),
(424,250,o),
(416,248,o),
(409,248,cs),
(382,248,o),
(376,267,o),
(384,305,cs),
(434,547,ls),
(455,647,o),
(399,701,o),
(291,701,cs),
(175,701,o),
(122,637,o),
(109,567,c),
(123,567,l),
(137,631,o),
(180,687,o),
(291,687,cs),
(384,687,o),
(423,649,o),
(423,586,cs),
(423,515,o),
(393,493,o),
(239,487,cs)
);
},
{
closed = 1;
nodes = (
(119,242,o),
(70,288,o),
(70,356,cs),
(70,427,o),
(111,469,o),
(239,474,cs),
(349,478,o),
(392,490,o),
(414,517,c),
(389,394,ls),
(372,309,o),
(299,242,o),
(200,242,cs)
);
}
);
width = 452;
}
);
note = ordfeminine;
unicode = 170;
},
{
glyphname = ordmasculine;
layers = (
{
hints = (
{
horizontal = 1;
place = (223, 14);
place = (223, 14);
type = Stem;
},
{
horizontal = 1;
place = (687, 14);
place = (687, 14);
type = Stem;
},
{
place = (68, 15);
place = (68, 15);
type = Stem;
},
{
place = (479, 15);
place = (479, 15);
type = Stem;
}
);
layerId = m01;
shapes = (
{
closed = 1;
nodes = (
(406,223,o),
(494,356,o),
(494,499,cs),
(494,624,o),
(412,701,o),
(306,701,cs),
(160,701,o),
(68,570,o),
(68,423,cs),
(68,296,o),
(154,223,o),
(258,223,cs)
);
},
{
closed = 1;
nodes = (
(162,237,o),
(83,304,o),
(83,423,cs),
(83,561,o),
(168,687,o),
(306,687,cs),
(405,687,o),
(479,615,o),
(479,499,cs),
(479,364,o),
(398,237,o),
(258,237,cs)
);
}
);
width = 496;
}
);
note = ordmasculine;
unicode = 186;
},
{
glyphname = Omega;
layers = (
{
hints = (
{
horizontal = 1;
place = (0, 14);
place = (0, 14);
type = Stem;
},
{
horizontal = 1;
place = (709, 14);
place = (709, 14);
type = Stem;
},
{
place = (48, 15);
place = (48, 15);
type = Stem;
},
{
place = (667, 15);
place = (667, 15);
type = Stem;
}
);
layerId = m01;
shapes = (
{
closed = 1;
nodes = (
(-1,0,l),
(244,0,l),
(247,14,l),
(144,50,o),
(63,157,o),
(63,307,cs),
(63,509,o),
(181,709,o),
(397,709,cs),
(556,709,o),
(667,607,o),
(667,424,cs),
(667,202,o),
(551,47,o),
(355,14,c),
(352,0,l),
(605,0,l),
(608,14,l),
(411,14,l),
(585,67,o),
(682,218,o),
(682,424,cs),
(682,616,o),
(564,723,o),
(397,723,cs),
(172,723,o),
(48,516,o),
(48,307,cs),
(48,165,o),
(118,61,o),
(210,14,c),
(2,14,l)
);
}
);
width = 698;
}
);
note = Omega;
unicode = 8486;
},
{
glyphname = ae;
kernLeft = a;
kernRight = e;
layers = (
{
hints = (
{
horizontal = 1;
place = (-8, 14);
place = (-8, 14);
type = Stem;
},
{
horizontal = 1;
place = (259, 14);
place = (259, 14);
type = Stem;
},
{
horizontal = 1;
place = (510, 14);
place = (510, 14);
type = Stem;
},
{
place = (9, 15);
place = (9, 15);
type = Stem;
},
{
place = (388, 15);
place = (388, 15);
type = Stem;
},
{
place = (791, 16);
place = (791, 16);
type = Stem;
},
{
horizontal = 1;
place = (-7, 14);
place = (-7, 14);
type = Stem;
},
{
horizontal = 1;
place = (262, 13);
place = (262, 13);
type = Stem;
},
{
place = (412, 14);
place = (412, 14);
type = Stem;
}
);
layerId = m01;
shapes = (
{
closed = 1;
nodes = (
(803,259,l),
(823,405,o),
(769,524,o),
(628,524,cs),
(538,524,o),
(467,467,o),
(426,386,c),
(431,475,o),
(374,524,o),
(268,524,cs),
(137,524,o),
(84,452,o),
(69,374,c),
(83,374,l),
(99,446,o),
(146,510,o),
(268,510,cs),
(369,510,o),
(412,466,o),
(412,395,cs),
(412,310,o),
(385,277,o),
(217,275,cs),
(76,273,o),
(9,223,o),
(9,130,cs),
(9,45,o),
(73,-7,o),
(166,-7,cs),
(259,-7,o),
(351,30,o),
(388,189,c),
(396,66,o),
(466,-8,o),
(575,-8,cs),
(691,-8,o),
(749,65,o),
(782,151,c),
(768,151,l),
(734,70,o),
(682,6,o),
(575,6,cs),
(465,6,o),
(403,85,o),
(403,214,cs),
(403,229,o),
(404,244,o),
(405,259,c)
);
},
{
closed = 1;
nodes = (
(79,7,o),
(24,55,o),
(24,130,cs),
(24,216,o),
(86,260,o),
(218,262,cs),
(339,264,o),
(378,280,o),
(398,307,c),
(379,209,ls),
(351,65,o),
(280,7,o),
(166,7,cs)
);
},
{
closed = 1;
nodes = (
(761,510,o),
(802,398,o),
(788,273,c),
(407,273,l),
(426,402,o),
(508,510,o),
(628,510,cs)
);
}
);
width = 827;
}
);
note = ae;
unicode = 230;
},
{
glyphname = oslash;
kernLeft = c;
kernRight = o;
layers = (
{
hints = (
{
horizontal = 1;
place = (-8, 14);
place = (-8, 14);
type = Stem;
},
{
horizontal = 1;
place = (510, 14);
place = (510, 14);
type = Stem;
},
{
place = (17, 15);
place = (17, 15);
type = Stem;
},
{
place = (476, 15);
place = (476, 15);
type = Stem;
},
{
horizontal = 1;
place = (519, -20);
target = down;
type = TopGhost;
}
);
layerId = m01;
shapes = (
{
closed = 1;
nodes = (
(11,-6,l),
(71,58,l),
(110,15,o),
(166,-8,o),
(228,-8,cs),
(393,-8,o),
(491,140,o),
(491,300,cs),
(491,362,o),
(472,413,o),
(441,451,c),
(496,509,l),
(486,519,l),
(432,462,l),
(394,502,o),
(341,524,o),
(281,524,cs),
(119,524,o),
(17,378,o),
(17,214,cs),
(17,154,o),
(34,105,o),
(62,69,c),
(1,4,l)
);
},
{
closed = 1;
nodes = (
(170,6,o),
(117,27,o),
(81,68,c),
(431,440,l),
(459,405,o),
(476,357,o),
(476,300,cs),
(476,148,o),
(384,6,o),
(228,6,cs)
);
},
{
closed = 1;
nodes = (
(32,370,o),
(128,510,o),
(281,510,cs),
(337,510,o),
(387,489,o),
(422,451,c),
(72,80,l),
(47,114,o),
(32,159,o),
(32,214,cs)
);
}
);
width = 520;
}
);
note = oslash;
unicode = 248;
},
{
glyphname = questiondown;
kernRight = questiondown;
layers = (
{
hints = (
{
horizontal = 1;
place = (-135, 14);
place = (-135, 14);
type = Stem;
},
{
horizontal = 1;
place = (533, 55);
place = (533, 55);
type = Stem;
},
{
place = (-10, 15);
place = (-10, 15);
type = Stem;
}
);
layerId = m01;
shapes = (
{
closed = 1;
nodes = (
(289,533,l),
(306,533,l),
(317,588,l),
(300,588,l)
);
},
{
closed = 1;
nodes = (
(266,410,l),
(245,302,o),
(206,267,o),
(114,207,cs),
(54,168,o),
(-10,126,o),
(-10,31,cs),
(-10,-70,o),
(68,-135,o),
(180,-135,cs),
(313,-135,o),
(393,-45,o),
(419,70,c),
(405,70,l),
(376,-40,o),
(306,-121,o),
(180,-121,cs),
(76,-121,o),
(5,-63,o),
(5,31,cs),
(5,120,o),
(63,156,o),
(122,195,cs),
(226,264,o),
(259,301,o),
(281,410,c)
);
}
);
width = 470;
}
);
note = questiondown;
unicode = 191;
},
{
glyphname = exclamdown;
kernRight = exclamdown;
layers = (
{
hints = (
{
horizontal = 1;
place = (533, 55);
place = (533, 55);
type = Stem;
},
{
place = (-3, 155);
place = (-3, 155);
type = Stem;
}
);
layerId = m01;
shapes = (
{
closed = 1;
nodes = (
(51,152,l),
(-3,-127,l),
(12,-127,l),
(66,152,l),
(115,411,l),
(104,411,l)
);
},
{
closed = 1;
nodes = (
(124,533,l),
(141,533,l),
(152,588,l),
(135,588,l)
);
}
);
width = 157;
}
);
note = exclamdown;
unicode = 161;
},
{
glyphname = logicalnot;
layers = (
{
hints = (
{
horizontal = 1;
place = (378, 14);
place = (378, 14);
type = Stem;
},
{
place = (76, 389);
place = (76, 389);
type = Stem;
}
);
layerId = m01;
shapes = (
{
closed = 1;
nodes = (
(419,157,l),
(465,392,l),
(79,392,l),
(76,378,l),
(448,378,l),
(404,157,l)
);
}
);
width = 520;
}
);
note = logicalnot;
unicode = 172;
},
{
glyphname = radical;
layers = (
{
hints = (
{
horizontal = 1;
place = (-100, 22);
place = (-100, 22);
type = Stem;
},
{
horizontal = 1;
place = (280, 14);
place = (280, 14);
type = Stem;
},
{
horizontal = 1;
place = (715, -20);
target = down;
type = TopGhost;
},
{
place = (32, 526);
place = (32, 526);
type = Stem;
}
);
layerId = m01;
shapes = (
{
closed = 1;
nodes = (
(32,280,l),
(114,280,l),
(265,-100,l),
(280,-100,l),
(558,715,l),
(542,715,l),
(272,-78,l),
(126,294,l),
(32,294,l)
);
}
);
width = 530;
}
);
note = radical;
unicode = 8730;
},
{
glyphname = florin;
layers = (
{
hints = (
{
horizontal = 1;
place = (-152, 14);
place = (-152, 14);
type = Stem;
},
{
horizontal = 1;
place = (368, 14);
place = (368, 14);
type = Stem;
},
{
horizontal = 1;
place = (679, 14);
place = (679, 14);
type = Stem;
},
{
place = (-48, 420);
place = (-48, 420);
type = Stem;
},
{
horizontal = 1;
place = (689, -20);
target = down;
type = TopGhost;
},
{
horizontal = 1;
place = (-149, 21);
target = up;
type = BottomGhost;
}
);
layerId = m01;
shapes = (
{
closed = 1;
nodes = (
(284,382,l),
(185,382,l),
(229,571,ls),
(247,651,o),
(272,679,o),
(325,679,cs),
(341,679,o),
(360,677,o),
(371,675,c),
(372,689,l),
(362,691,o),
(343,693,o),
(326,693,cs),
(266,693,o),
(235,663,o),
(214,573,cs),
(170,382,l),
(85,382,l),
(82,368,l),
(167,368,l),
(77,-25,ls),
(57,-109,o),
(38,-138,o),
(-9,-138,cs),
(-21,-138,o),
(-33,-137,o),
(-47,-135,c),
(-48,-149,l),
(-34,-151,o),
(-24,-152,o),
(-10,-152,cs),
(47,-152,o),
(71,-119,o),
(92,-27,cs),
(182,368,l),
(281,368,l)
);
}
);
width = 327;
}
);
note = florin;
unicode = 402;
},
{
glyphname = approxequal;
layers = (
{
hints = (
{
horizontal = 1;
place = (201, 14);
place = (201, 14);
type = Stem;
},
{
horizontal = 1;
place = (278, 14);
place = (278, 14);
type = Stem;
},
{
horizontal = 1;
place = (333, 14);
place = (333, 14);
type = Stem;
},
{
horizontal = 1;
place = (410, 14);
place = (410, 14);
type = Stem;
},
{
place = (26, 481);
place = (26, 481);
type = Stem;
}
);
layerId = m01;
shapes = (
{
closed = 1;
nodes = (
(441,201,o),
(473,234,o),
(482,290,c),
(468,290,l),
(459,243,o),
(435,215,o),
(386,215,cs),
(355,215,o),
(338,219,o),
(258,252,cs),
(179,285,o),
(157,292,o),
(122,292,cs),
(66,292,o),
(36,259,o),
(26,203,c),
(40,203,l),
(49,251,o),
(73,278,o),
(122,278,cs),
(150,278,o),
(170,272,o),
(251,240,cs),
(315,214,o),
(344,201,o),
(386,201,cs)
);
},
{
closed = 1;
nodes = (
(466,333,o),
(498,366,o),
(507,422,c),
(493,422,l),
(484,375,o),
(460,347,o),
(411,347,cs),
(380,347,o),
(363,351,o),
(283,384,cs),
(204,417,o),
(182,424,o),
(147,424,cs),
(91,424,o),
(61,391,o),
(51,335,c),
(65,335,l),
(74,383,o),
(98,410,o),
(147,410,cs),
(175,410,o),
(195,404,o),
(276,372,cs),
(340,346,o),
(369,333,o),
(411,333,cs)
);
}
);
width = 531;
}
);
note = approxequal;
unicode = 8776;
},
{
glyphname = Delta;
layers = (
{
hints = (
{
horizontal = 1;
place = (0, 14);
place = (0, 14);
type = Stem;
},
{
horizontal = 1;
place = (693, 22);
place = (693, 22);
type = Stem;
},
{
place = (-31, 630);
place = (-31, 630);
type = Stem;
}
);
layerId = m01;
shapes = (
{
closed = 1;
nodes = (
(-10,14,l),
(408,693,l),
(584,14,l)
);
},
{
closed = 1;
nodes = (
(-28,14,l),
(-31,0,l),
(596,0,l),
(599,14,l),
(418,715,l),
(404,715,l)
);
}
);
width = 654;
}
);
note = Delta;
unicode = 8710;
},
{
glyphname = guillemotleft;
kernLeft = guillemotleft;
kernRight = guillemotleft;
layers = (
{
hints = (
{
horizontal = 1;
place = (137, 270);
place = (137, 270);
type = Stem;
},
{
place = (45, 14);
place = (45, 14);
type = Stem;
},
{
place = (171, 14);
place = (171, 14);
type = Stem;
}
);
layerId = m01;
shapes = (
{
closed = 1;
nodes = (
(163,155,l),
(59,275,l),
(208,386,l),
(212,407,l),
(46,283,l),
(44,270,l),
(160,137,l)
);
},
{
closed = 1;
nodes = (
(289,155,l),
(185,275,l),
(334,386,l),
(338,407,l),
(172,283,l),
(170,270,l),
(286,137,l)
);
}
);
width = 354;
}
);
note = guillemotleft;
unicode = 171;
},
{
glyphname = guillemotright;
kernLeft = guillemotright;
kernRight = guillemotright;
layers = (
{
hints = (
{
horizontal = 1;
place = (137, 270);
place = (137, 270);
type = Stem;
},
{
place = (174, 14);
place = (174, 14);
type = Stem;
},
{
place = (300, 14);
place = (300, 14);
type = Stem;
}
);
layerId = m01;
shapes = (
{
closed = 1;
nodes = (
(70,389,l),
(174,269,l),
(25,157,l),
(21,137,l),
(187,261,l),
(189,274,l),
(73,407,l)
);
},
{
closed = 1;
nodes = (
(196,389,l),
(300,269,l),
(151,157,l),
(147,137,l),
(313,261,l),
(315,274,l),
(199,407,l)
);
}
);
width = 354;
}
);
note = guillemotright;
unicode = 187;
},
{
glyphname = ellipsis;
kernLeft = comma;
kernRight = comma;
layers = (
{
hints = (
{
horizontal = 1;
place = (0, 55);
place = (0, 55);
type = Stem;
},
{
place = (-7, 28);
place = (-7, 28);
type = Stem;
},
{
place = (116, 28);
place = (116, 28);
type = Stem;
},
{
place = (239, 28);
place = (239, 28);
type = Stem;
}
);
layerId = m01;
shapes = (
{
closed = 1;
nodes = (
(21,55,l),
(4,55,l),
(-7,0,l),
(10,0,l)
);
},
{
closed = 1;
nodes = (
(144,55,l),
(127,55,l),
(116,0,l),
(133,0,l)
);
},
{
closed = 1;
nodes = (
(267,55,l),
(250,55,l),
(239,0,l),
(256,0,l)
);
}
);
width = 341;
}
);
note = ellipsis;
unicode = 8230;
},
{
glyphname = Agrave;
kernLeft = A;
kernRight = A;
layers = (
{
hints = (
{
horizontal = 1;
place = (0, 21);
target = up;
type = BottomGhost;
},
{
horizontal = 1;
place = (256, 14);
place = (256, 14);
type = Stem;
},
{
horizontal = 1;
place = (695, 20);
place = (695, 20);
type = Stem;
},
{
horizontal = 1;
place = (756, 115);
place = (756, 115);
type = Stem;
},
{
place = (-39, 565);
place = (-39, 565);
type = Stem;
}
);
layerId = m01;
shapes = (
{
closed = 1;
nodes = (
(512,0,l),
(526,0,l),
(374,715,l),
(360,715,l),
(-39,0,l),
(-24,0,l),
(119,256,l),
(457,256,l)
);
},
{
closed = 1;
nodes = (
(306,591,ls),
(330,634,o),
(364,695,o),
(364,695,c),
(364,695,o),
(380,621,o),
(386,593,cs),
(454,270,l),
(127,270,l)
);
},
{
closed = 1;
nodes = (
(319,871,l),
(362,756,l),
(378,756,l),
(335,871,l)
);
}
);
width = 586;
}
);
note = Agrave;
unicode = 192;
},
{
glyphname = Atilde;
kernLeft = A;
kernRight = A;
layers = (
{
hints = (
{
horizontal = 1;
place = (0, 21);
target = up;
type = BottomGhost;
},
{
horizontal = 1;
place = (256, 14);
place = (256, 14);
type = Stem;
},
{
horizontal = 1;
place = (695, 20);
place = (695, 20);
type = Stem;
},
{
horizontal = 1;
place = (770, 14);
place = (770, 14);
type = Stem;
},
{
horizontal = 1;
place = (830, 14);
place = (830, 14);
type = Stem;
},
{
place = (237, 14);
place = (237, 14);
type = Stem;
},
{
place = (497, 14);
place = (497, 14);
type = Stem;
}
);
layerId = m01;
shapes = (
{
closed = 1;
nodes = (
(512,0,l),
(526,0,l),
(374,715,l),
(360,715,l),
(-39,0,l),
(-24,0,l),
(119,256,l),
(457,256,l)
);
},
{
closed = 1;
nodes = (
(306,591,ls),
(330,634,o),
(364,695,o),
(364,695,c),
(364,695,o),
(380,621,o),
(386,593,cs),
(454,270,l),
(127,270,l)
);
},
{
closed = 1;
nodes = (
(269,844,o),
(242,814,o),
(237,769,c),
(251,769,l),
(257,811,o),
(277,830,o),
(303,830,cs),
(354,830,o),
(388,770,o),
(446,770,cs),
(480,770,o),
(504,796,o),
(511,845,c),
(497,845,l),
(491,803,o),
(472,784,o),
(446,784,cs),
(393,784,o),
(363,844,o),
(304,844,cs)
);
}
);
width = 586;
}
);
note = Atilde;
unicode = 195;
},
{
glyphname = Otilde;
kernLeft = C;
kernRight = O;
layers = (
{
hints = (
{
horizontal = 1;
place = (-8, 14);
place = (-8, 14);
type = Stem;
},
{
horizontal = 1;
place = (709, 14);
place = (709, 14);
type = Stem;
},
{
horizontal = 1;
place = (770, 14);
place = (770, 14);
type = Stem;
},
{
horizontal = 1;
place = (830, 14);
place = (830, 14);
type = Stem;
},
{
place = (50, 15);
place = (50, 15);
type = Stem;
},
{
place = (306, 14);
place = (306, 14);
type = Stem;
},
{
place = (566, 14);
place = (566, 14);
type = Stem;
},
{
place = (704, 15);
place = (704, 15);
type = Stem;
}
);
layerId = m01;
shapes = (
{
closed = 1;
nodes = (
(579,-8,o),
(719,175,o),
(719,400,cs),
(719,606,o),
(583,723,o),
(412,723,cs),
(199,723,o),
(50,536,o),
(50,314,cs),
(50,109,o),
(189,-8,o),
(360,-8,cs)
);
},
{
closed = 1;
nodes = (
(197,6,o),
(65,117,o),
(65,314,cs),
(65,528,o),
(207,709,o),
(412,709,cs),
(575,709,o),
(704,598,o),
(704,400,cs),
(704,183,o),
(571,6,o),
(360,6,cs)
);
},
{
closed = 1;
nodes = (
(338,844,o),
(311,814,o),
(306,769,c),
(320,769,l),
(326,811,o),
(346,830,o),
(372,830,cs),
(423,830,o),
(457,770,o),
(515,770,cs),
(549,770,o),
(573,796,o),
(580,845,c),
(566,845,l),
(560,803,o),
(541,784,o),
(515,784,cs),
(462,784,o),
(432,844,o),
(373,844,cs)
);
}
);
width = 732;
}
);
note = Otilde;
unicode = 213;
},
{
glyphname = OE;
kernLeft = C;
kernRight = E;
layers = (
{
hints = (
{
horizontal = 1;
place = (0, 14);
place = (0, 14);
type = Stem;
},
{
horizontal = 1;
place = (364, 14);
place = (364, 14);
type = Stem;
},
{
horizontal = 1;
place = (709, 14);
place = (709, 14);
type = Stem;
},
{
place = (51, 15);
place = (51, 15);
type = Stem;
},
{
horizontal = 1;
place = (701, 14);
place = (701, 14);
type = Stem;
},
{
horizontal = 1;
place = (-8, 14);
place = (-8, 14);
type = Stem;
}
);
layerId = m01;
shapes = (
{
closed = 1;
nodes = (
(519,0,l),
(954,0,l),
(957,14,l),
(537,14,l),
(604,364,l),
(969,364,l),
(972,378,l),
(607,378,l),
(669,701,l),
(1067,701,l),
(1070,715,l),
(657,715,l),
(633,590,l),
(617,660,o),
(534,723,o),
(418,723,cs),
(192,723,o),
(51,519,o),
(51,298,cs),
(51,103,o),
(155,-8,o),
(309,-8,cs),
(426,-8,o),
(510,46,o),
(537,92,c)
);
},
{
closed = 1;
nodes = (
(165,6,o),
(66,113,o),
(66,298,cs),
(66,507,o),
(196,709,o),
(418,709,cs),
(546,709,o),
(640,627,o),
(622,533,cs),
(547,145,ls),
(533,71,o),
(434,6,o),
(309,6,cs)
);
}
);
width = 1041;
}
);
note = OE;
unicode = 338;
},
{
glyphname = oe;
kernLeft = c;
kernRight = e;
layers = (
{
hints = (
{
horizontal = 1;
place = (-8, 14);
place = (-8, 14);
type = Stem;
},
{
horizontal = 1;
place = (259, 14);
place = (259, 14);
type = Stem;
},
{
horizontal = 1;
place = (510, 14);
place = (510, 14);
type = Stem;
},
{
place = (23, 15);
place = (23, 15);
type = Stem;
},
{
place = (434, 11);
place = (434, 11);
type = Stem;
},
{
place = (833, 16);
place = (833, 16);
type = Stem;
}
);
layerId = m01;
shapes = (
{
closed = 1;
nodes = (
(320,-8,o),
(398,73,o),
(431,181,c),
(442,63,o),
(510,-8,o),
(615,-8,cs),
(728,-8,o),
(791,65,o),
(824,151,c),
(810,151,l),
(776,70,o),
(717,6,o),
(615,6,cs),
(509,6,o),
(445,86,o),
(445,214,cs),
(445,229,o),
(446,244,o),
(447,259,c),
(845,259,l),
(865,405,o),
(812,524,o),
(670,524,cs),
(562,524,o),
(481,442,o),
(447,333,c),
(437,451,o),
(373,524,o),
(271,524,cs),
(122,524,o),
(23,378,o),
(23,214,cs),
(23,71,o),
(101,-8,o),
(207,-8,cs)
);
},
{
closed = 1;
nodes = (
(108,6,o),
(38,82,o),
(38,214,cs),
(38,370,o),
(130,510,o),
(271,510,cs),
(374,510,o),
(434,430,o),
(434,300,cs),
(434,148,o),
(350,6,o),
(207,6,cs)
);
},
{
closed = 1;
nodes = (
(804,510,o),
(844,398,o),
(830,273,c),
(449,273,l),
(469,402,o),
(551,510,o),
(670,510,cs)
);
}
);
width = 868;
}
);
note = oe;
unicode = 339;
},
{
glyphname = endash;
kernLeft = hyphen;
kernRight = hyphen;
layers = (
{
hints = (
{
horizontal = 1;
place = (248, 15);
place = (248, 15);
type = Stem;
},
{
place = (39, 399);
place = (39, 399);
type = Stem;
}
);
layerId = m01;
shapes = (
{
closed = 1;
nodes = (
(39,248,l),
(435,248,l),
(438,263,l),
(42,263,l)
);
}
);
width = 480;
}
);
note = endash;
unicode = 8211;
},
{
glyphname = emdash;
kernLeft = hyphen;
kernRight = hyphen;
layers = (
{
hints = (
{
horizontal = 1;
place = (248, 15);
place = (248, 15);
type = Stem;
},
{
place = (39, 675);
place = (39, 675);
type = Stem;
}
);
layerId = m01;
shapes = (
{
closed = 1;
nodes = (
(39,248,l),
(711,248,l),
(714,263,l),
(42,263,l)
);
}
);
width = 755;
}
);
note = emdash;
unicode = 8212;
},
{
glyphname = quotedblleft;
kernLeft = quotedblleft;
kernRight = quotedblleft;
layers = (
{
hints = (
{
horizontal = 1;
place = (715, -20);
target = down;
type = TopGhost;
},
{
place = (89, 168);
place = (89, 168);
type = Stem;
}
);
layerId = m01;
shapes = (
{
closed = 1;
nodes = (
(171,715,l),
(144,708,o),
(119,696,o),
(104,620,cs),
(89,544,l),
(104,544,l),
(118,615,ls),
(131,681,o),
(148,694,o),
(168,700,c)
);
},
{
closed = 1;
nodes = (
(257,715,l),
(230,708,o),
(205,696,o),
(190,620,cs),
(175,544,l),
(190,544,l),
(204,615,ls),
(217,681,o),
(234,694,o),
(254,700,c)
);
}
);
width = 195;
}
);
note = quotedblleft;
unicode = 8220;
},
{
glyphname = quotedblright;
kernLeft = quotedblright;
kernRight = quotedblright;
layers = (
{
hints = (
{
horizontal = 1;
place = (715, -20);
target = down;
type = TopGhost;
},
{
place = (74, 168);
place = (74, 168);
type = Stem;
}
);
layerId = m01;
shapes = (
{
closed = 1;
nodes = (
(74,544,l),
(101,551,o),
(126,563,o),
(141,639,cs),
(156,715,l),
(141,715,l),
(127,644,ls),
(114,578,o),
(97,565,o),
(77,559,c)
);
},
{
closed = 1;
nodes = (
(160,544,l),
(187,551,o),
(212,563,o),
(227,639,cs),
(242,715,l),
(227,715,l),
(213,644,ls),
(200,578,o),
(183,565,o),
(163,559,c)
);
}
);
width = 195;
}
);
note = quotedblright;
unicode = 8221;
},
{
glyphname = quoteleft;
kernLeft = quotedblleft;
kernRight = quotedblleft;
layers = (
{
hints = (
{
horizontal = 1;
place = (715, -20);
target = down;
type = TopGhost;
},
{
place = (89, 82);
place = (89, 82);
type = Stem;
}
);
layerId = m01;
shapes = (
{
closed = 1;
nodes = (
(171,715,l),
(144,708,o),
(119,696,o),
(104,620,cs),
(89,544,l),
(104,544,l),
(118,615,ls),
(131,681,o),
(148,694,o),
(168,700,c)
);
}
);
width = 109;
}
);
note = quoteleft;
unicode = 8216;
},
{
glyphname = quoteright;
kernLeft = quotedblright;
kernRight = quotedblright;
layers = (
{
hints = (
{
horizontal = 1;
place = (715, -20);
target = down;
type = TopGhost;
},
{
place = (74, 82);
place = (74, 82);
type = Stem;
}
);
layerId = m01;
shapes = (
{
closed = 1;
nodes = (
(74,544,l),
(101,551,o),
(126,563,o),
(141,639,cs),
(156,715,l),
(141,715,l),
(127,644,ls),
(114,578,o),
(97,565,o),
(77,559,c)
);
}
);
width = 109;
}
);
note = quoteright;
unicode = 8217;
},
{
glyphname = divide;
kernLeft = minus;
kernRight = minus;
layers = (
{
hints = (
{
horizontal = 1;
place = (147, 52);
place = (147, 52);
type = Stem;
},
{
horizontal = 1;
place = (320, 14);
place = (320, 14);
type = Stem;
},
{
horizontal = 1;
place = (454, 52);
place = (454, 52);
type = Stem;
},
{
place = (59, 431);
place = (59, 431);
type = Stem;
}
);
layerId = m01;
shapes = (
{
closed = 1;
nodes = (
(59,320,l),
(487,320,l),
(490,334,l),
(62,334,l)
);
},
{
closed = 1;
nodes = (
(318,506,l),
(301,506,l),
(291,454,l),
(308,454,l)
);
},
{
closed = 1;
nodes = (
(259,199,l),
(242,199,l),
(232,147,l),
(249,147,l)
);
}
);
width = 523;
}
);
note = divide;
unicode = 247;
},
{
glyphname = lozenge;
layers = (
{
hints = (
{
horizontal = 1;
place = (0, 15);
place = (0, 15);
type = Stem;
},
{
horizontal = 1;
place = (700, 15);
place = (700, 15);
type = Stem;
},
{
place = (41, 432);
place = (41, 432);
type = Stem;
}
);
layerId = m01;
shapes = (
{
closed = 1;
nodes = (
(257,700,l),
(455,360,l),
(259,15,l),
(59,360,l)
);
},
{
closed = 1;
nodes = (
(41,360,l),
(252,0,l),
(266,0,l),
(473,360,l),
(264,715,l),
(250,715,l)
);
}
);
width = 484;
}
);
note = lozenge;
unicode = 9674;
},
{
glyphname = ydieresis;
kernLeft = yacute;
kernRight = yacute;
layers = (
{
hints = (
{
horizontal = 1;
place = (-168, 14);
place = (-168, 14);
type = Stem;
},
{
horizontal = 1;
place = (517, -20);
target = down;
type = TopGhost;
},
{
horizontal = 1;
place = (651, 54);
place = (651, 54);
type = Stem;
},
{
place = (-25, 501);
place = (-25, 501);
type = Stem;
},
{
horizontal = 1;
place = (-157, 21);
target = up;
type = BottomGhost;
}
);
layerId = m01;
shapes = (
{
closed = 1;
nodes = (
(476,517,l),
(460,517,l),
(256,159,ls),
(215,86,o),
(188,39,o),
(188,39,c),
(188,39,o),
(174,93,o),
(157,162,cs),
(68,517,l),
(52,517,l),
(178,20,l),
(132,-60,ls),
(87,-138,o),
(65,-154,o),
(24,-154,cs),
(6,-154,o),
(-10,-148,o),
(-20,-143,c),
(-22,-143,l),
(-25,-157,l),
(-14,-162,o),
(3,-168,o),
(24,-168,cs),
(72,-168,o),
(98,-148,o),
(145,-66,cs)
);
},
{
closed = 1;
nodes = (
(231,705,l),
(216,705,l),
(205,651,l),
(220,651,l)
);
},
{
closed = 1;
nodes = (
(376,705,l),
(361,705,l),
(350,651,l),
(365,651,l)
);
}
);
width = 431;
}
);
note = ydieresis;
unicode = 255;
},
{
glyphname = Ydieresis;
kernLeft = Yacute;
kernRight = Yacute;
layers = (
{
hints = (
{
horizontal = 1;
place = (0, 21);
target = up;
type = BottomGhost;
},
{
horizontal = 1;
place = (715, -20);
target = down;
type = TopGhost;
},
{
horizontal = 1;
place = (782, 54);
place = (782, 54);
type = Stem;
},
{
place = (81, 563);
place = (81, 563);
type = Stem;
}
);
layerId = m01;
shapes = (
{
closed = 1;
nodes = (
(97,715,l),
(81,715,l),
(287,328,l),
(223,0,l),
(238,0,l),
(302,328,l),
(644,715,l),
(625,715,l),
(296,342,l)
);
},
{
closed = 1;
nodes = (
(330,836,l),
(315,836,l),
(304,782,l),
(319,782,l)
);
},
{
closed = 1;
nodes = (
(475,836,l),
(460,836,l),
(449,782,l),
(464,782,l)
);
}
);
width = 556;
}
);
note = Ydieresis;
unicode = 376;
},
{
glyphname = fraction;
layers = (
{
hints = (
{
horizontal = 1;
place = (0, 21);
target = up;
type = BottomGhost;
},
{
horizontal = 1;
place = (715, -20);
target = down;
type = TopGhost;
},
{
place = (-216, 616);
place = (-216, 616);
type = Stem;
}
);
layerId = m01;
shapes = (
{
closed = 1;
nodes = (
(382,715,l),
(-216,0,l),
(-198,0,l),
(400,715,l)
);
}
);
width = 146;
}
);
note = fraction;
unicode = 8260;
},
{
glyphname = Euro;
layers = (
{
hints = (
{
horizontal = 1;
place = (-7, 14);
place = (-7, 14);
type = Stem;
},
{
horizontal = 1;
place = (276, 14);
place = (276, 14);
type = Stem;
},
{
horizontal = 1;
place = (393, 14);
place = (393, 14);
type = Stem;
},
{
horizontal = 1;
place = (679, 14);
place = (679, 14);
type = Stem;
},
{
place = (82, 15);
place = (82, 15);
type = Stem;
},
{
place = (577, 14);
place = (577, 14);
type = Stem;
}
);
layerId = m01;
shapes = (
{
closed = 1;
nodes = (
(21,276,l),
(82,276,l),
(82,259,ls),
(82,113,o),
(153,-7,o),
(306,-7,cs),
(416,-7,o),
(520,77,o),
(556,218,c),
(542,218,l),
(505,84,o),
(410,7,o),
(306,7,cs),
(163,7,o),
(97,121,o),
(97,259,cs),
(97,276,l),
(341,276,l),
(344,290,l),
(98,290,l),
(100,323,o),
(105,358,o),
(114,393,c),
(363,393,l),
(366,407,l),
(118,407,l),
(158,548,o),
(252,679,o),
(396,679,cs),
(504,679,o),
(573,613,o),
(577,504,c),
(591,504,l),
(586,623,o),
(512,693,o),
(396,693,cs),
(243,693,o),
(143,554,o),
(102,407,c),
(47,407,l),
(44,393,l),
(99,393,l),
(90,358,o),
(85,323,o),
(83,290,c),
(24,290,l)
);
}
);
width = 578;
}
);
note = Euro;
unicode = 8364;
},
{
glyphname = guilsinglleft;
kernLeft = guillemotleft;
kernRight = guillemotleft;
layers = (
{
hints = (
{
horizontal = 1;
place = (137, 270);
place = (137, 270);
type = Stem;
},
{
place = (45, 14);
place = (45, 14);
type = Stem;
}
);
layerId = m01;
shapes = (
{
closed = 1;
nodes = (
(163,155,l),
(59,275,l),
(208,386,l),
(212,407,l),
(46,283,l),
(44,270,l),
(160,137,l)
);
}
);
width = 228;
}
);
note = guilsinglleft;
unicode = 8249;
},
{
glyphname = guilsinglright;
kernLeft = guillemotright;
kernRight = guillemotright;
layers = (
{
hints = (
{
horizontal = 1;
place = (137, 270);
place = (137, 270);
type = Stem;
},
{
place = (173, 14);
place = (173, 14);
type = Stem;
}
);
layerId = m01;
shapes = (
{
closed = 1;
nodes = (
(69,389,l),
(173,269,l),
(24,157,l),
(20,137,l),
(186,261,l),
(188,274,l),
(72,407,l)
);
}
);
width = 228;
}
);
note = guilsinglright;
unicode = 8250;
},
{
glyphname = fi;
kernLeft = f;
layers = (
{
hints = (
{
horizontal = 1;
place = (0, 21);
target = up;
type = BottomGhost;
},
{
horizontal = 1;
place = (503, 14);
place = (503, 14);
type = Stem;
},
{
horizontal = 1;
place = (707, 14);
place = (707, 14);
type = Stem;
},
{
place = (42, 369);
place = (42, 369);
type = Stem;
},
{
horizontal = 1;
place = (650, 56);
place = (650, 56);
type = Stem;
}
);
layerId = m01;
shapes = (
{
closed = 1;
nodes = (
(317,719,l),
(307,720,o),
(290,721,o),
(276,721,cs),
(216,721,o),
(179,702,o),
(163,622,cs),
(142,517,l),
(73,517,l),
(70,503,l),
(140,503,l),
(42,0,l),
(57,0,l),
(155,503,l),
(274,503,l),
(277,517,l),
(157,517,l),
(178,621,ls),
(193,696,o),
(228,707,o),
(276,707,cs),
(288,707,o),
(304,706,o),
(314,705,c)
);
},
{
closed = 1;
nodes = (
(374,517,l),
(359,517,l),
(259,0,l),
(274,0,l)
);
},
{
closed = 1;
nodes = (
(411,706,l),
(396,706,l),
(385,650,l),
(400,650,l)
);
}
);
width = 377;
}
);
note = fi;
unicode = 64257;
},
{
glyphname = fl;
kernLeft = f;
layers = (
{
hints = (
{
horizontal = 1;
place = (0, 21);
target = up;
type = BottomGhost;
},
{
horizontal = 1;
place = (503, 14);
place = (503, 14);
type = Stem;
},
{
horizontal = 1;
place = (707, 14);
place = (707, 14);
type = Stem;
},
{
place = (42, 374);
place = (42, 374);
type = Stem;
},
{
horizontal = 1;
place = (715, -20);
target = down;
type = TopGhost;
}
);
layerId = m01;
shapes = (
{
closed = 1;
nodes = (
(317,719,l),
(307,720,o),
(290,721,o),
(276,721,cs),
(216,721,o),
(179,702,o),
(163,622,cs),
(142,517,l),
(73,517,l),
(70,503,l),
(140,503,l),
(42,0,l),
(57,0,l),
(155,503,l),
(274,503,l),
(277,517,l),
(157,517,l),
(178,621,ls),
(193,696,o),
(228,707,o),
(276,707,cs),
(288,707,o),
(304,706,o),
(314,705,c)
);
},
{
closed = 1;
nodes = (
(416,715,l),
(401,715,l),
(262,0,l),
(277,0,l)
);
}
);
width = 385;
}
);
note = fl;
unicode = 64258;
},
{
glyphname = daggerdbl;
layers = (
{
hints = (
{
horizontal = 1;
place = (111, 15);
place = (111, 15);
type = Stem;
},
{
horizontal = 1;
place = (485, 15);
place = (485, 15);
type = Stem;
},
{
horizontal = 1;
place = (715, -20);
target = down;
type = TopGhost;
},
{
place = (-2, 522);
place = (-2, 522);
type = Stem;
}
);
layerId = m01;
shapes = (
{
closed = 1;
nodes = (
(69,485,l),
(286,485,l),
(216,126,l),
(1,126,l),
(-2,111,l),
(213,111,l),
(172,-104,l),
(187,-104,l),
(228,111,l),
(446,111,l),
(449,126,l),
(231,126,l),
(301,485,l),
(517,485,l),
(520,500,l),
(304,500,l),
(346,715,l),
(331,715,l),
(289,500,l),
(72,500,l)
);
}
);
width = 501;
}
);
note = daggerdbl;
unicode = 8225;
},
{
glyphname = periodcentered;
layers = (
{
hints = (
{
horizontal = 1;
place = (286, 55);
place = (286, 55);
type = Stem;
},
{
place = (41, 28);
place = (41, 28);
type = Stem;
}
);
layerId = m01;
shapes = (
{
closed = 1;
nodes = (
(69,341,l),
(52,341,l),
(41,286,l),
(58,286,l)
);
}
);
width = 84;
}
);
note = periodcentered;
unicode = 183;
},
{
glyphname = quotesinglbase;
kernRight = quotesinglbase;
layers = (
{
hints = (
{
horizontal = 1;
place = (-108, 171);
place = (-108, 171);
type = Stem;
},
{
place = (-29, 82);
place = (-29, 82);
type = Stem;
}
);
layerId = m01;
shapes = (
{
closed = 1;
nodes = (
(-29,-108,l),
(-2,-101,o),
(23,-89,o),
(38,-13,cs),
(53,63,l),
(38,63,l),
(24,-8,ls),
(11,-74,o),
(-6,-87,o),
(-26,-93,c)
);
}
);
width = 125;
}
);
note = quotesinglbase;
unicode = 8218;
},
{
glyphname = quotedblbase;
kernRight = quotesinglbase;
layers = (
{
hints = (
{
horizontal = 1;
place = (-108, 171);
place = (-108, 171);
type = Stem;
},
{
place = (-29, 168);
place = (-29, 168);
type = Stem;
}
);
layerId = m01;
shapes = (
{
closed = 1;
nodes = (
(-29,-108,l),
(-2,-101,o),
(23,-89,o),
(38,-13,cs),
(53,63,l),
(38,63,l),
(24,-8,ls),
(11,-74,o),
(-6,-87,o),
(-26,-93,c)
);
},
{
closed = 1;
nodes = (
(57,-108,l),
(84,-101,o),
(109,-89,o),
(124,-13,cs),
(139,63,l),
(124,63,l),
(110,-8,ls),
(97,-74,o),
(80,-87,o),
(60,-93,c)
);
}
);
width = 211;
}
);
note = quotedblbase;
unicode = 8222;
},
{
glyphname = perthousand;
kernLeft = percent;
layers = (
{
hints = (
{
horizontal = 1;
place = (0, 21);
target = up;
type = BottomGhost;
},
{
horizontal = 1;
place = (685, -20);
target = down;
type = TopGhost;
},
{
place = (68, 15);
place = (68, 15);
type = Stem;
},
{
horizontal = 1;
place = (-8, 14);
place = (-8, 14);
type = Stem;
},
{
horizontal = 1;
place = (332, 14);
place = (332, 14);
type = Stem;
},
{
place = (363, 15);
place = (363, 15);
type = Stem;
},
{
place = (612, 15);
place = (612, 15);
type = Stem;
},
{
horizontal = 1;
place = (327, 14);
place = (327, 14);
type = Stem;
},
{
horizontal = 1;
place = (667, 14);
place = (667, 14);
type = Stem;
},
{
place = (317, 15);
place = (317, 15);
type = Stem;
},
{
place = (669, 15);
place = (669, 15);
type = Stem;
},
{
place = (918, 15);
place = (918, 15);
type = Stem;
}
);
layerId = m01;
shapes = (
{
closed = 1;
nodes = (
(71,0,l),
(89,0,l),
(634,685,l),
(616,685,l)
);
},
{
closed = 1;
nodes = (
(585,-8,o),
(627,120,o),
(627,215,cs),
(627,292,o),
(586,346,o),
(516,346,cs),
(410,346,o),
(363,218,o),
(363,124,cs),
(363,45,o),
(407,-8,o),
(476,-8,cs)
);
},
{
closed = 1;
nodes = (
(415,6,o),
(378,53,o),
(378,126,cs),
(378,210,o),
(419,332,o),
(516,332,cs),
(578,332,o),
(612,284,o),
(612,213,cs),
(612,126,o),
(575,6,o),
(476,6,cs)
);
},
{
closed = 1;
nodes = (
(287,327,o),
(332,455,o),
(332,550,cs),
(332,627,o),
(291,681,o),
(221,681,cs),
(116,681,o),
(68,553,o),
(68,459,cs),
(68,380,o),
(111,327,o),
(181,327,cs)
);
},
{
closed = 1;
nodes = (
(120,341,o),
(83,388,o),
(83,461,cs),
(83,545,o),
(127,667,o),
(221,667,cs),
(283,667,o),
(317,619,o),
(317,548,cs),
(317,461,o),
(277,341,o),
(181,341,cs)
);
},
{
closed = 1;
nodes = (
(891,-8,o),
(933,120,o),
(933,215,cs),
(933,292,o),
(892,346,o),
(822,346,cs),
(716,346,o),
(669,218,o),
(669,124,cs),
(669,45,o),
(713,-8,o),
(782,-8,cs)
);
},
{
closed = 1;
nodes = (
(721,6,o),
(684,53,o),
(684,126,cs),
(684,210,o),
(725,332,o),
(822,332,cs),
(884,332,o),
(918,284,o),
(918,213,cs),
(918,126,o),
(881,6,o),
(782,6,cs)
);
}
);
width = 971;
}
);
note = perthousand;
unicode = 8240;
},
{
glyphname = Acircumflex;
kernLeft = A;
kernRight = A;
layers = (
{
hints = (
{
horizontal = 1;
place = (0, 21);
target = up;
type = BottomGhost;
},
{
horizontal = 1;
place = (256, 14);
place = (256, 14);
type = Stem;
},
{
horizontal = 1;
place = (695, 20);
place = (695, 20);
type = Stem;
},
{
horizontal = 1;
place = (850, 12);
place = (850, 12);
type = Stem;
},
{
place = (-39, 565);
place = (-39, 565);
type = Stem;
}
);
layerId = m01;
shapes = (
{
closed = 1;
nodes = (
(512,0,l),
(526,0,l),
(374,715,l),
(360,715,l),
(-39,0,l),
(-24,0,l),
(119,256,l),
(457,256,l)
);
},
{
closed = 1;
nodes = (
(306,591,ls),
(330,634,o),
(364,695,o),
(364,695,c),
(364,695,o),
(380,621,o),
(386,593,cs),
(454,270,l),
(127,270,l)
);
},
{
closed = 1;
nodes = (
(389,862,l),
(373,862,l),
(265,758,l),
(284,758,l),
(381,850,l),
(453,758,l),
(469,758,l)
);
}
);
width = 586;
}
);
note = Acircumflex;
unicode = 194;
},
{
glyphname = Ecircumflex;
kernRight = E;
layers = (
{
hints = (
{
horizontal = 1;
place = (0, 14);
place = (0, 14);
type = Stem;
},
{
horizontal = 1;
place = (364, 14);
place = (364, 14);
type = Stem;
},
{
horizontal = 1;
place = (701, 14);
place = (701, 14);
type = Stem;
},
{
horizontal = 1;
place = (850, 12);
place = (850, 12);
type = Stem;
},
{
place = (16, 566);
place = (16, 566);
type = Stem;
}
);
layerId = m01;
shapes = (
{
closed = 1;
nodes = (
(16,0,l),
(466,0,l),
(469,14,l),
(34,14,l),
(101,364,l),
(481,364,l),
(484,378,l),
(104,378,l),
(166,701,l),
(579,701,l),
(582,715,l),
(153,715,l)
);
},
{
closed = 1;
nodes = (
(392,862,l),
(376,862,l),
(268,758,l),
(287,758,l),
(384,850,l),
(456,758,l),
(472,758,l)
);
}
);
width = 553;
}
);
note = Ecircumflex;
unicode = 202;
},
{
glyphname = Aacute;
kernLeft = A;
kernRight = A;
layers = (
{
hints = (
{
horizontal = 1;
place = (0, 21);
target = up;
type = BottomGhost;
},
{
horizontal = 1;
place = (256, 14);
place = (256, 14);
type = Stem;
},
{
horizontal = 1;
place = (695, 20);
place = (695, 20);
type = Stem;
},
{
place = (-39, 565);
place = (-39, 565);
type = Stem;
}
);
layerId = m01;
shapes = (
{
closed = 1;
nodes = (
(512,0,l),
(526,0,l),
(374,715,l),
(360,715,l),
(-39,0,l),
(-24,0,l),
(119,256,l),
(457,256,l)
);
},
{
closed = 1;
nodes = (
(306,591,ls),
(330,634,o),
(364,695,o),
(364,695,c),
(364,695,o),
(380,621,o),
(386,593,cs),
(454,270,l),
(127,270,l)
);
},
{
closed = 1;
nodes = (
(384,756,l),
(449,871,l),
(433,871,l),
(368,756,l)
);
}
);
width = 586;
}
);
note = Aacute;
unicode = 193;
},
{
glyphname = Edieresis;
kernRight = E;
layers = (
{
hints = (
{
horizontal = 1;
place = (0, 14);
place = (0, 14);
type = Stem;
},
{
horizontal = 1;
place = (364, 14);
place = (364, 14);
type = Stem;
},
{
horizontal = 1;
place = (701, 14);
place = (701, 14);
type = Stem;
},
{
place = (16, 566);
place = (16, 566);
type = Stem;
},
{
horizontal = 1;
place = (701, 135);
place = (701, 135);
type = Stem;
}
);
layerId = m01;
shapes = (
{
closed = 1;
nodes = (
(16,0,l),
(466,0,l),
(469,14,l),
(34,14,l),
(101,364,l),
(481,364,l),
(484,378,l),
(104,378,l),
(166,701,l),
(579,701,l),
(582,715,l),
(153,715,l)
);
},
{
closed = 1;
nodes = (
(325,836,l),
(310,836,l),
(299,782,l),
(314,782,l)
);
},
{
closed = 1;
nodes = (
(470,836,l),
(455,836,l),
(444,782,l),
(459,782,l)
);
}
);
width = 553;
}
);
note = Edieresis;
unicode = 203;
},
{
glyphname = Egrave;
kernRight = E;
layers = (
{
hints = (
{
horizontal = 1;
place = (0, 14);
place = (0, 14);
type = Stem;
},
{
horizontal = 1;
place = (364, 14);
place = (364, 14);
type = Stem;
},
{
horizontal = 1;
place = (701, 14);
place = (701, 14);
type = Stem;
},
{
horizontal = 1;
place = (756, 115);
place = (756, 115);
type = Stem;
},
{
place = (16, 566);
place = (16, 566);
type = Stem;
}
);
layerId = m01;
shapes = (
{
closed = 1;
nodes = (
(16,0,l),
(466,0,l),
(469,14,l),
(34,14,l),
(101,364,l),
(481,364,l),
(484,378,l),
(104,378,l),
(166,701,l),
(579,701,l),
(582,715,l),
(153,715,l)
);
},
{
closed = 1;
nodes = (
(319,871,l),
(362,756,l),
(378,756,l),
(335,871,l)
);
}
);
width = 553;
}
);
note = Egrave;
unicode = 200;
},
{
glyphname = Iacute;
layers = (
{
hints = (
{
horizontal = 1;
place = (0, 21);
target = up;
type = BottomGhost;
},
{
horizontal = 1;
place = (715, -20);
target = down;
type = TopGhost;
},
{
place = (18, 225);
place = (18, 225);
type = Stem;
}
);
layerId = m01;
shapes = (
{
closed = 1;
nodes = (
(172,715,l),
(157,715,l),
(18,0,l),
(33,0,l)
);
},
{
closed = 1;
nodes = (
(178,756,l),
(243,871,l),
(227,871,l),
(162,756,l)
);
}
);
width = 152;
}
);
note = Iacute;
unicode = 205;
},
{
glyphname = Icircumflex;
layers = (
{
hints = (
{
horizontal = 1;
place = (0, 21);
target = up;
type = BottomGhost;
},
{
horizontal = 1;
place = (715, -20);
target = down;
type = TopGhost;
},
{
horizontal = 1;
place = (850, 12);
place = (850, 12);
type = Stem;
},
{
place = (18, 252);
place = (18, 252);
type = Stem;
}
);
layerId = m01;
shapes = (
{
closed = 1;
nodes = (
(172,715,l),
(157,715,l),
(18,0,l),
(33,0,l)
);
},
{
closed = 1;
nodes = (
(190,862,l),
(174,862,l),
(66,758,l),
(85,758,l),
(182,850,l),
(254,758,l),
(270,758,l)
);
}
);
width = 152;
}
);
note = Icircumflex;
unicode = 206;
},
{
glyphname = Idieresis;
layers = (
{
hints = (
{
horizontal = 1;
place = (0, 21);
target = up;
type = BottomGhost;
},
{
horizontal = 1;
place = (715, -20);
target = down;
type = TopGhost;
},
{
horizontal = 1;
place = (782, 54);
place = (782, 54);
type = Stem;
},
{
place = (18, 237);
place = (18, 237);
type = Stem;
}
);
layerId = m01;
shapes = (
{
closed = 1;
nodes = (
(137,836,l),
(122,836,l),
(111,782,l),
(126,782,l)
);
},
{
closed = 1;
nodes = (
(255,836,l),
(240,836,l),
(229,782,l),
(244,782,l)
);
},
{
closed = 1;
nodes = (
(172,715,l),
(157,715,l),
(18,0,l),
(33,0,l)
);
}
);
width = 152;
}
);
note = Idieresis;
unicode = 207;
},
{
glyphname = Igrave;
layers = (
{
hints = (
{
horizontal = 1;
place = (0, 21);
target = up;
type = BottomGhost;
},
{
horizontal = 1;
place = (715, -20);
target = down;
type = TopGhost;
},
{
horizontal = 1;
place = (756, 115);
place = (756, 115);
type = Stem;
},
{
place = (18, 158);
place = (18, 158);
type = Stem;
}
);
layerId = m01;
shapes = (
{
closed = 1;
nodes = (
(172,715,l),
(157,715,l),
(18,0,l),
(33,0,l)
);
},
{
closed = 1;
nodes = (
(117,871,l),
(160,756,l),
(176,756,l),
(133,871,l)
);
}
);
width = 152;
}
);
note = Igrave;
unicode = 204;
},
{
glyphname = Oacute;
kernLeft = C;
kernRight = O;
layers = (
{
hints = (
{
horizontal = 1;
place = (-8, 14);
place = (-8, 14);
type = Stem;
},
{
horizontal = 1;
place = (709, 14);
place = (709, 14);
type = Stem;
},
{
place = (50, 15);
place = (50, 15);
type = Stem;
},
{
place = (704, 15);
place = (704, 15);
type = Stem;
}
);
layerId = m01;
shapes = (
{
closed = 1;
nodes = (
(579,-8,o),
(719,175,o),
(719,400,cs),
(719,606,o),
(583,723,o),
(412,723,cs),
(199,723,o),
(50,536,o),
(50,314,cs),
(50,109,o),
(189,-8,o),
(360,-8,cs)
);
},
{
closed = 1;
nodes = (
(197,6,o),
(65,117,o),
(65,314,cs),
(65,528,o),
(207,709,o),
(412,709,cs),
(575,709,o),
(704,598,o),
(704,400,cs),
(704,183,o),
(571,6,o),
(360,6,cs)
);
},
{
closed = 1;
nodes = (
(439,756,l),
(504,871,l),
(488,871,l),
(423,756,l)
);
}
);
width = 732;
}
);
note = Oacute;
unicode = 211;
},
{
glyphname = Ocircumflex;
kernLeft = C;
kernRight = O;
layers = (
{
hints = (
{
horizontal = 1;
place = (-8, 14);
place = (-8, 14);
type = Stem;
},
{
horizontal = 1;
place = (709, 14);
place = (709, 14);
type = Stem;
},
{
horizontal = 1;
place = (850, 12);
place = (850, 12);
type = Stem;
},
{
place = (50, 15);
place = (50, 15);
type = Stem;
},
{
place = (704, 15);
place = (704, 15);
type = Stem;
}
);
layerId = m01;
shapes = (
{
closed = 1;
nodes = (
(579,-8,o),
(719,175,o),
(719,400,cs),
(719,606,o),
(583,723,o),
(412,723,cs),
(199,723,o),
(50,536,o),
(50,314,cs),
(50,109,o),
(189,-8,o),
(360,-8,cs)
);
},
{
closed = 1;
nodes = (
(197,6,o),
(65,117,o),
(65,314,cs),
(65,528,o),
(207,709,o),
(412,709,cs),
(575,709,o),
(704,598,o),
(704,400,cs),
(704,183,o),
(571,6,o),
(360,6,cs)
);
},
{
closed = 1;
nodes = (
(451,862,l),
(435,862,l),
(327,758,l),
(346,758,l),
(443,850,l),
(515,758,l),
(531,758,l)
);
}
);
width = 732;
}
);
note = Ocircumflex;
unicode = 212;
},
{
glyphname = Ograve;
kernLeft = C;
kernRight = O;
layers = (
{
hints = (
{
horizontal = 1;
place = (-8, 14);
place = (-8, 14);
type = Stem;
},
{
horizontal = 1;
place = (709, 14);
place = (709, 14);
type = Stem;
},
{
horizontal = 1;
place = (756, 115);
place = (756, 115);
type = Stem;
},
{
place = (50, 15);
place = (50, 15);
type = Stem;
},
{
place = (704, 15);
place = (704, 15);
type = Stem;
}
);
layerId = m01;
shapes = (
{
closed = 1;
nodes = (
(579,-8,o),
(719,175,o),
(719,400,cs),
(719,606,o),
(583,723,o),
(412,723,cs),
(199,723,o),
(50,536,o),
(50,314,cs),
(50,109,o),
(189,-8,o),
(360,-8,cs)
);
},
{
closed = 1;
nodes = (
(197,6,o),
(65,117,o),
(65,314,cs),
(65,528,o),
(207,709,o),
(412,709,cs),
(575,709,o),
(704,598,o),
(704,400,cs),
(704,183,o),
(571,6,o),
(360,6,cs)
);
},
{
closed = 1;
nodes = (
(378,871,l),
(421,756,l),
(437,756,l),
(394,871,l)
);
}
);
width = 732;
}
);
note = Ograve;
unicode = 210;
},
{
glyphname = Uacute;
kernLeft = U;
kernRight = U;
layers = (
{
hints = (
{
horizontal = 1;
place = (-7, 14);
place = (-7, 14);
type = Stem;
},
{
horizontal = 1;
place = (715, -20);
target = down;
type = TopGhost;
},
{
place = (46, 16);
place = (46, 16);
type = Stem;
}
);
layerId = m01;
shapes = (
{
closed = 1;
nodes = (
(142,715,l),
(53,260,ls),
(19,86,o),
(120,-7,o),
(288,-7,cs),
(430,-7,o),
(530,72,o),
(557,209,cs),
(657,715,l),
(642,715,l),
(542,211,ls),
(516,81,o),
(423,7,o),
(288,7,cs),
(117,7,o),
(38,104,o),
(68,258,cs),
(157,715,l)
);
},
{
closed = 1;
nodes = (
(412,756,l),
(477,871,l),
(461,871,l),
(396,756,l)
);
}
);
width = 623;
}
);
note = Uacute;
unicode = 218;
},
{
glyphname = Ucircumflex;
kernLeft = U;
kernRight = U;
layers = (
{
hints = (
{
horizontal = 1;
place = (-7, 14);
place = (-7, 14);
type = Stem;
},
{
horizontal = 1;
place = (715, -20);
target = down;
type = TopGhost;
},
{
horizontal = 1;
place = (850, 12);
place = (850, 12);
type = Stem;
},
{
place = (46, 16);
place = (46, 16);
type = Stem;
}
);
layerId = m01;
shapes = (
{
closed = 1;
nodes = (
(142,715,l),
(53,260,ls),
(19,86,o),
(120,-7,o),
(288,-7,cs),
(430,-7,o),
(530,72,o),
(557,209,cs),
(657,715,l),
(642,715,l),
(542,211,ls),
(516,81,o),
(423,7,o),
(288,7,cs),
(117,7,o),
(38,104,o),
(68,258,cs),
(157,715,l)
);
},
{
closed = 1;
nodes = (
(425,862,l),
(409,862,l),
(301,758,l),
(320,758,l),
(417,850,l),
(489,758,l),
(505,758,l)
);
}
);
width = 623;
}
);
note = Ucircumflex;
unicode = 219;
},
{
glyphname = Ugrave;
kernLeft = U;
kernRight = U;
layers = (
{
hints = (
{
horizontal = 1;
place = (-7, 14);
place = (-7, 14);
type = Stem;
},
{
horizontal = 1;
place = (715, -20);
target = down;
type = TopGhost;
},
{
horizontal = 1;
place = (756, 115);
place = (756, 115);
type = Stem;
},
{
place = (46, 16);
place = (46, 16);
type = Stem;
}
);
layerId = m01;
shapes = (
{
closed = 1;
nodes = (
(142,715,l),
(53,260,ls),
(19,86,o),
(120,-7,o),
(288,-7,cs),
(430,-7,o),
(530,72,o),
(557,209,cs),
(657,715,l),
(642,715,l),
(542,211,ls),
(516,81,o),
(423,7,o),
(288,7,cs),
(117,7,o),
(38,104,o),
(68,258,cs),
(157,715,l)
);
},
{
closed = 1;
nodes = (
(351,871,l),
(394,756,l),
(410,756,l),
(367,871,l)
);
}
);
width = 623;
}
);
note = Ugrave;
unicode = 217;
},
{
glyphname = dotlessi;
kernLeft = m;
kernRight = u;
layers = (
{
hints = (
{
horizontal = 1;
place = (0, 21);
target = up;
type = BottomGhost;
},
{
horizontal = 1;
place = (517, -20);
target = down;
type = TopGhost;
},
{
place = (4, 115);
place = (4, 115);
type = Stem;
}
);
layerId = m01;
shapes = (
{
closed = 1;
nodes = (
(119,517,l),
(104,517,l),
(4,0,l),
(19,0,l)
);
}
);
width = 122;
}
);
note = dotlessi;
unicode = 305;
},
{
glyphname = circumflex;
layers = (
{
hints = (
{
horizontal = 1;
place = (696, 12);
place = (696, 12);
type = Stem;
},
{
place = (178, 204);
place = (178, 204);
type = Stem;
}
);
layerId = m01;
shapes = (
{
closed = 1;
nodes = (
(302,708,l),
(286,708,l),
(178,604,l),
(197,604,l),
(294,696,l),
(366,604,l),
(382,604,l)
);
}
);
width = 426;
}
);
note = circumflex;
unicode = 710;
},
{
glyphname = tilde;
layers = (
{
hints = (
{
horizontal = 1;
place = (612, 14);
place = (612, 14);
type = Stem;
},
{
horizontal = 1;
place = (672, 14);
place = (672, 14);
type = Stem;
},
{
place = (177, 14);
place = (177, 14);
type = Stem;
},
{
place = (437, 14);
place = (437, 14);
type = Stem;
}
);
layerId = m01;
shapes = (
{
closed = 1;
nodes = (
(209,686,o),
(182,656,o),
(177,611,c),
(191,611,l),
(197,653,o),
(217,672,o),
(243,672,cs),
(294,672,o),
(328,612,o),
(386,612,cs),
(420,612,o),
(444,638,o),
(451,687,c),
(437,687,l),
(431,645,o),
(412,626,o),
(386,626,cs),
(333,626,o),
(303,686,o),
(244,686,cs)
);
}
);
width = 479;
}
);
note = tilde;
unicode = 732;
},
{
glyphname = macron;
layers = (
{
hints = (
{
horizontal = 1;
place = (650, 14);
place = (650, 14);
type = Stem;
},
{
place = (189, 217);
place = (189, 217);
type = Stem;
}
);
layerId = m01;
shapes = (
{
closed = 1;
nodes = (
(189,650,l),
(403,650,l),
(406,664,l),
(192,664,l)
);
}
);
width = 442;
}
);
note = macron;
unicode = 175;
},
{
glyphname = breve;
layers = (
{
hints = (
{
horizontal = 1;
place = (616, 14);
place = (616, 14);
type = Stem;
},
{
place = (204, 14);
place = (204, 14);
type = Stem;
}
);
layerId = m01;
shapes = (
{
closed = 1;
nodes = (
(204,706,l),
(209,651,o),
(250,616,o),
(315,616,cs),
(379,616,o),
(426,651,o),
(439,706,c),
(425,706,l),
(411,658,o),
(373,630,o),
(315,630,cs),
(258,630,o),
(224,659,o),
(218,706,c)
);
}
);
width = 477;
}
);
note = breve;
unicode = 728;
},
{
glyphname = dotaccent;
layers = (
{
hints = (
{
horizontal = 1;
place = (640, 55);
place = (640, 55);
type = Stem;
},
{
place = (275, 28);
place = (275, 28);
type = Stem;
}
);
layerId = m01;
shapes = (
{
closed = 1;
nodes = (
(303,695,l),
(286,695,l),
(275,640,l),
(292,640,l)
);
}
);
width = 422;
}
);
note = dotaccent;
unicode = 729;
},
{
glyphname = ring;
layers = (
{
hints = (
{
horizontal = 1;
place = (567, 13);
place = (567, 13);
type = Stem;
},
{
horizontal = 1;
place = (707, 13);
place = (707, 13);
type = Stem;
},
{
place = (237, 14);
place = (237, 14);
type = Stem;
},
{
place = (375, 14);
place = (375, 14);
type = Stem;
}
);
layerId = m01;
shapes = (
{
closed = 1;
nodes = (
(358,567,o),
(389,598,o),
(389,644,cs),
(389,689,o),
(358,720,o),
(313,720,cs),
(268,720,o),
(237,689,o),
(237,644,cs),
(237,598,o),
(268,567,o),
(313,567,cs)
);
},
{
closed = 1;
nodes = (
(275,580,o),
(251,607,o),
(251,644,cs),
(251,681,o),
(275,707,o),
(313,707,cs),
(351,707,o),
(375,681,o),
(375,644,cs),
(375,607,o),
(351,580,o),
(313,580,cs)
);
}
);
width = 479;
}
);
note = ring;
unicode = 730;
},
{
glyphname = cedilla;
layers = (
{
hints = (
{
horizontal = 1;
place = (-187, 14);
place = (-187, 14);
type = Stem;
},
{
horizontal = 1;
place = (-69, 14);
place = (-69, 14);
type = Stem;
},
{
horizontal = 1;
place = (-5, 21);
target = up;
type = BottomGhost;
},
{
place = (224, 15);
place = (224, 15);
type = Stem;
},
{
horizontal = 1;
place = (-158, 21);
target = up;
type = BottomGhost;
}
);
layerId = m01;
shapes = (
{
closed = 1;
nodes = (
(196,5,l),
(104,-70,l),
(110,-81,l),
(124,-75,o),
(146,-69,o),
(168,-69,cs),
(205,-69,o),
(224,-88,o),
(224,-117,cs),
(224,-163,o),
(176,-173,o),
(136,-173,cs),
(103,-173,o),
(71,-162,o),
(50,-146,c),
(42,-158,l),
(65,-176,o),
(105,-187,o),
(136,-187,cs),
(178,-187,o),
(239,-175,o),
(239,-117,cs),
(239,-81,o),
(215,-55,o),
(168,-55,cs),
(156,-55,o),
(145,-57,o),
(136,-60,c),
(204,-5,l)
);
}
);
width = 477;
}
);
note = cedilla;
unicode = 184;
},
{
glyphname = hungarumlaut;
layers = (
{
hints = (
{
horizontal = 1;
place = (604, 121);
place = (604, 121);
type = Stem;
},
{
place = (201, 198);
place = (201, 198);
type = Stem;
}
);
layerId = m01;
shapes = (
{
closed = 1;
nodes = (
(201,604,l),
(216,604,l),
(277,725,l),
(261,725,l)
);
},
{
closed = 1;
nodes = (
(323,604,l),
(338,604,l),
(399,725,l),
(383,725,l)
);
}
);
width = 440;
}
);
note = hungarumlaut;
unicode = 733;
},
{
glyphname = ogonek;
layers = (
{
hints = (
{
horizontal = 1;
place = (-172, 14);
place = (-172, 14);
type = Stem;
},
{
place = (60, 15);
place = (60, 15);
type = Stem;
}
);
layerId = m01;
shapes = (
{
closed = 1;
nodes = (
(152,0,l),
(87,-32,o),
(60,-70,o),
(60,-110,cs),
(60,-152,o),
(94,-172,o),
(134,-172,cs),
(147,-172,o),
(160,-169,o),
(169,-165,c),
(172,-151,l),
(171,-151,l),
(163,-154,o),
(149,-158,o),
(134,-158,cs),
(103,-158,o),
(75,-145,o),
(75,-110,cs),
(75,-74,o),
(102,-33,o),
(181,0,c)
);
}
);
width = 462;
}
);
note = ogonek;
unicode = 731;
},
{
glyphname = caron;
layers = (
{
hints = (
{
horizontal = 1;
place = (604, 12);
place = (604, 12);
type = Stem;
},
{
place = (198, 203);
place = (198, 203);
type = Stem;
}
);
layerId = m01;
shapes = (
{
closed = 1;
nodes = (
(279,604,l),
(293,604,l),
(401,708,l),
(383,708,l),
(287,616,l),
(215,708,l),
(198,708,l)
);
}
);
width = 425;
}
);
note = caron;
unicode = 711;
},
{
glyphname = Amacron;
kernLeft = A;
kernRight = A;
layers = (
{
hints = (
{
horizontal = 1;
place = (0, 21);
target = up;
type = BottomGhost;
},
{
horizontal = 1;
place = (256, 14);
place = (256, 14);
type = Stem;
},
{
horizontal = 1;
place = (695, 20);
place = (695, 20);
type = Stem;
},
{
horizontal = 1;
place = (787, 14);
place = (787, 14);
type = Stem;
},
{
place = (-39, 565);
place = (-39, 565);
type = Stem;
}
);
layerId = m01;
shapes = (
{
closed = 1;
nodes = (
(512,0,l),
(526,0,l),
(374,715,l),
(360,715,l),
(-39,0,l),
(-24,0,l),
(119,256,l),
(457,256,l)
);
},
{
closed = 1;
nodes = (
(306,591,ls),
(330,634,o),
(364,695,o),
(364,695,c),
(364,695,o),
(380,621,o),
(386,593,cs),
(454,270,l),
(127,270,l)
);
},
{
closed = 1;
nodes = (
(276,787,l),
(490,787,l),
(493,801,l),
(279,801,l)
);
}
);
width = 586;
}
);
note = Amacron;
unicode = 256;
},
{
glyphname = Abreve;
kernLeft = A;
kernRight = A;
layers = (
{
hints = (
{
horizontal = 1;
place = (0, 21);
target = up;
type = BottomGhost;
},
{
horizontal = 1;
place = (256, 14);
place = (256, 14);
type = Stem;
},
{
horizontal = 1;
place = (695, 20);
place = (695, 20);
type = Stem;
},
{
horizontal = 1;
place = (771, 14);
place = (771, 14);
type = Stem;
},
{
place = (269, 14);
place = (269, 14);
type = Stem;
}
);
layerId = m01;
shapes = (
{
closed = 1;
nodes = (
(512,0,l),
(526,0,l),
(374,715,l),
(360,715,l),
(-39,0,l),
(-24,0,l),
(119,256,l),
(457,256,l)
);
},
{
closed = 1;
nodes = (
(306,591,ls),
(330,634,o),
(364,695,o),
(364,695,c),
(364,695,o),
(380,621,o),
(386,593,cs),
(454,270,l),
(127,270,l)
);
},
{
closed = 1;
nodes = (
(269,861,l),
(274,806,o),
(315,771,o),
(380,771,cs),
(444,771,o),
(491,806,o),
(504,861,c),
(490,861,l),
(476,813,o),
(438,785,o),
(380,785,cs),
(323,785,o),
(289,814,o),
(283,861,c)
);
}
);
width = 586;
}
);
note = Abreve;
unicode = 258;
},
{
glyphname = Aogonek;
kernLeft = A;
kernRight = A;
layers = (
{
hints = (
{
horizontal = 1;
place = (-172, 14);
place = (-172, 14);
type = Stem;
},
{
horizontal = 1;
place = (0, 21);
target = up;
type = BottomGhost;
},
{
horizontal = 1;
place = (256, 14);
place = (256, 14);
type = Stem;
},
{
horizontal = 1;
place = (695, 20);
place = (695, 20);
type = Stem;
},
{
place = (404, 15);
place = (404, 15);
type = Stem;
}
);
layerId = m01;
shapes = (
{
closed = 1;
nodes = (
(404,-154,o),
(439,-172,o),
(478,-172,cs),
(493,-172,o),
(504,-169,o),
(513,-165,c),
(516,-151,l),
(515,-151,l),
(507,-154,o),
(495,-158,o),
(478,-158,cs),
(447,-158,o),
(419,-145,o),
(419,-109,cs),
(419,-70,o),
(456,-34,o),
(526,0,c),
(374,715,l),
(360,715,l),
(-39,0,l),
(-24,0,l),
(119,256,l),
(458,256,l),
(511,6,l),
(440,-29,o),
(404,-66,o),
(404,-109,cs)
);
},
{
closed = 1;
nodes = (
(306,591,ls),
(330,634,o),
(364,695,o),
(364,695,c),
(364,695,o),
(379,627,o),
(386,593,cs),
(455,270,l),
(127,270,l)
);
}
);
width = 586;
}
);
note = Aogonek;
unicode = 260;
},
{
glyphname = AEacute;
kernLeft = AE;
kernRight = E;
layers = (
{
hints = (
{
horizontal = 1;
place = (0, 14);
place = (0, 14);
type = Stem;
},
{
horizontal = 1;
place = (256, 14);
place = (256, 14);
type = Stem;
},
{
horizontal = 1;
place = (364, 14);
place = (364, 14);
type = Stem;
},
{
horizontal = 1;
place = (701, 14);
place = (701, 14);
type = Stem;
},
{
place = (-36, 972);
place = (-36, 972);
type = Stem;
}
);
layerId = m01;
shapes = (
{
closed = 1;
nodes = (
(936,715,l),
(384,715,l),
(-36,0,l),
(-19,0,l),
(131,256,l),
(444,256,l),
(395,0,l),
(820,0,l),
(823,14,l),
(413,14,l),
(480,364,l),
(835,364,l),
(838,378,l),
(483,378,l),
(545,701,l),
(933,701,l)
);
},
{
closed = 1;
nodes = (
(393,701,l),
(530,701,l),
(447,270,l),
(139,270,l)
);
},
{
closed = 1;
nodes = (
(646,756,l),
(711,871,l),
(695,871,l),
(630,756,l)
);
}
);
width = 907;
}
);
note = AEacute;
unicode = 508;
},
{
glyphname = Cacute;
kernLeft = C;
kernRight = C;
layers = (
{
hints = (
{
horizontal = 1;
place = (-7, 14);
place = (-7, 14);
type = Stem;
},
{
horizontal = 1;
place = (708, 14);
place = (708, 14);
type = Stem;
},
{
place = (50, 15);
place = (50, 15);
type = Stem;
}
);
layerId = m01;
shapes = (
{
closed = 1;
nodes = (
(660,516,l),
(644,641,o),
(555,722,o),
(413,722,cs),
(183,722,o),
(50,510,o),
(50,304,cs),
(50,123,o),
(147,-7,o),
(338,-7,cs),
(503,-7,o),
(605,113,o),
(636,249,c),
(621,249,l),
(591,120,o),
(496,7,o),
(338,7,cs),
(157,7,o),
(65,131,o),
(65,304,cs),
(65,504,o),
(191,708,o),
(413,708,cs),
(555,708,o),
(628,631,o),
(645,516,c)
);
},
{
closed = 1;
nodes = (
(439,756,l),
(504,871,l),
(488,871,l),
(423,756,l)
);
}
);
width = 660;
}
);
note = Cacute;
unicode = 262;
},
{
glyphname = Ccircumflex;
kernLeft = C;
kernRight = C;
layers = (
{
hints = (
{
horizontal = 1;
place = (-7, 14);
place = (-7, 14);
type = Stem;
},
{
horizontal = 1;
place = (708, 14);
place = (708, 14);
type = Stem;
},
{
horizontal = 1;
place = (850, 12);
place = (850, 12);
type = Stem;
},
{
place = (50, 15);
place = (50, 15);
type = Stem;
}
);
layerId = m01;
shapes = (
{
closed = 1;
nodes = (
(660,516,l),
(644,641,o),
(555,722,o),
(413,722,cs),
(183,722,o),
(50,510,o),
(50,304,cs),
(50,123,o),
(147,-7,o),
(338,-7,cs),
(503,-7,o),
(605,113,o),
(636,249,c),
(621,249,l),
(591,120,o),
(496,7,o),
(338,7,cs),
(157,7,o),
(65,131,o),
(65,304,cs),
(65,504,o),
(191,708,o),
(413,708,cs),
(555,708,o),
(628,631,o),
(645,516,c)
);
},
{
closed = 1;
nodes = (
(451,862,l),
(435,862,l),
(327,758,l),
(346,758,l),
(443,850,l),
(515,758,l),
(531,758,l)
);
}
);
width = 660;
}
);
note = Ccircumflex;
unicode = 264;
},
{
glyphname = Ccaron;
kernLeft = C;
kernRight = C;
layers = (
{
hints = (
{
horizontal = 1;
place = (-7, 14);
place = (-7, 14);
type = Stem;
},
{
horizontal = 1;
place = (708, 14);
place = (708, 14);
type = Stem;
},
{
horizontal = 1;
place = (758, 12);
place = (758, 12);
type = Stem;
},
{
place = (50, 15);
place = (50, 15);
type = Stem;
}
);
layerId = m01;
shapes = (
{
closed = 1;
nodes = (
(660,516,l),
(644,641,o),
(555,722,o),
(413,722,cs),
(183,722,o),
(50,510,o),
(50,304,cs),
(50,123,o),
(147,-7,o),
(338,-7,cs),
(503,-7,o),
(605,113,o),
(636,249,c),
(621,249,l),
(591,120,o),
(496,7,o),
(338,7,cs),
(157,7,o),
(65,131,o),
(65,304,cs),
(65,504,o),
(191,708,o),
(413,708,cs),
(555,708,o),
(628,631,o),
(645,516,c)
);
},
{
closed = 1;
nodes = (
(422,758,l),
(436,758,l),
(544,862,l),
(526,862,l),
(430,770,l),
(358,862,l),
(341,862,l)
);
}
);
width = 660;
}
);
note = Ccaron;
unicode = 268;
},
{
glyphname = Cdotaccent;
kernLeft = C;
kernRight = C;
layers = (
{
hints = (
{
horizontal = 1;
place = (-7, 14);
place = (-7, 14);
type = Stem;
},
{
horizontal = 1;
place = (708, 14);
place = (708, 14);
type = Stem;
},
{
horizontal = 1;
place = (782, 53);
place = (782, 53);
type = Stem;
},
{
place = (50, 15);
place = (50, 15);
type = Stem;
}
);
layerId = m01;
shapes = (
{
closed = 1;
nodes = (
(660,516,l),
(644,641,o),
(555,722,o),
(413,722,cs),
(183,722,o),
(50,510,o),
(50,304,cs),
(50,123,o),
(147,-7,o),
(338,-7,cs),
(503,-7,o),
(605,113,o),
(636,249,c),
(621,249,l),
(591,120,o),
(496,7,o),
(338,7,cs),
(157,7,o),
(65,131,o),
(65,304,cs),
(65,504,o),
(191,708,o),
(413,708,cs),
(555,708,o),
(628,631,o),
(645,516,c)
);
},
{
closed = 1;
nodes = (
(458,835,l),
(441,835,l),
(430,782,l),
(447,782,l)
);
}
);
width = 660;
}
);
note = Cdotaccent;
unicode = 266;
},
